<svg height="30" viewBox="0 0 30 30" width="30" xmlns="http://www.w3.org/2000/svg"><g fill="none" fill-rule="evenodd"><rect fill="#fff" height="30" rx="3" width="30"/><path d="m8.13033467 8.19752727h-2.82786422c-.44319212 0-.80247032.3592782-.80247032.80247031 0 .44319212.3592782.80247032.80247032.80247032h2.82786422v2.8278666c0 .4803029.38936243.8696654.86966546.8696654.48030277 0 .8696652-.3893625.8696652-.8696654v-2.8278666h2.82793397c.4431922 0 .8024704-.3592782.8024704-.80247032 0-.44319211-.3592782-.80247031-.8024704-.80247031h-2.82793397v-2.82790926c0-.4803029-.38936243-.86966533-.8696652-.86966533-.48030303 0-.86966546.38936243-.86966546.86966533zm.86966533 9.80247273c-4.97056275 0-9-4.0294373-9-9 0-4.97056275 4.02943725-9 9-9 4.9705627 0 9 4.02943725 9 9 0 4.9705627-4.0294373 9-9 9z" fill="#151515" transform="translate(6 6)"/></g></svg>