<svg height="30" viewBox="0 0 30 30" width="30" xmlns="http://www.w3.org/2000/svg"><g fill="none" fill-rule="evenodd"><rect fill="#fff" height="30" rx="3" width="30"/><path d="m1.17264734 9.09431889h12.36290066c.6474596 0 1.1723293.51529646 1.1723293 1.15094681 0 .1237062-.020314.2466034-.0601601.3639614l-.7614995 2.2428309c-.6382819 1.8799204-2.4302521 3.147942-4.44867681 3.147942h-4.1668864c-2.0184247 0-3.81039493-1.2680216-4.44867686-3.147942l-.7614995-2.2428309c-.2047447-.6030309.12721205-1.25483511.74144614-1.45584541.11953828-.03911933.24471866-.0590628.37072307-.0590628zm13.39208696 3.75773911.7614995-2.2428309c.0398461-.117358 3.1847912-1.59166524 5.1008674-1.54851571.0850285.00191482.1686143.02197136.2449565.05877771.2906047.1401072.410497.48497136.2677868.77027566-.3895072.77859654-1.040042 1.23249144-1.9516451 1.36166504-1.7808996.2523524-2.6168162 1.548328-3.6325506 2.1081396-.2447646.1348994-.6095833.1062449-.981432-.0347116.0717072-.1527576.1354119-.3104983.1905175-.4727998zm-8.21640775-12.27658457c0-.3178252.26243485-.57547343.58616464-.57547343s.58616464.25764823.58616464.57547343v.73464627c0 1.47976895-.74968462 2.86261698-1.99996039 3.68907297-.92671087.61257346-1.482381 1.63754758-1.482381 2.73435999v.20981938c0 .31782519-.26243485.57547342-.58616464.57547342s-.58616465-.25764823-.58616465-.57547342v-.20981938c0-1.47976895.74968463-2.86261698 1.9999604-3.68907297.92671087-.61257346 1.482381-1.63754758 1.482381-2.73435999zm2.3659304 1.61316435c0-.3178252.26243485-.57547343.58616465-.57547343.32372979 0 .58616464.25764823.58616464.57547343v.72296451c0 1.09886943-.5155743 2.13648438-1.39768109 2.81289194-.59765799.45828961-.94697748 1.16130978-.94697748 1.90583198v.31304583c0 .31782519-.26243485.57547342-.58616465.57547342-.32372979 0-.58616464-.25764823-.58616464-.57547342v-.31304583c0-1.09886942.5155743-2.13648438 1.39768109-2.81289194.59765799-.45828961.94697748-1.16130978.94697748-1.90583198zm2.34465855 2.3018937c0-.31782519.2624349-.57547342.5861647-.57547342s.5861646.25764823.5861646.57547342v.52129642c0 .66230474-.2792705 1.29506048-.7714804 1.74797775-.2557444.23532854-.4008489.56409827-.4008489.90822118v.27534521c0 .31782519-.2624348.57547342-.5861646.57547342s-.58616466-.25764823-.58616466-.57547342v-.27534521c0-.66230473.27927056-1.29506048.77148046-1.74797775.2557443-.23532854.4008488-.56409827.4008488-.90822118z" fill="#141414" transform="translate(5 7)"/></g></svg>