<svg height="30" viewBox="0 0 30 30" width="30" xmlns="http://www.w3.org/2000/svg"><g fill="none" fill-rule="evenodd"><rect fill="#fff" height="30" rx="3" width="30"/><g fill="#000" fill-rule="nonzero" transform="translate(5 5)"><path d="m0 0h20v20h-20z" opacity="0"/><path d="m16.9696846 9.00447496c0 3.46151304-2.6213827 6.38433144-6.019239 6.83746424l.0452493 2.1235602h1.9869948c.525064 0 .995645.4803343.995645.995645 0 .5153505-.3349729.9956449-.8600369.9956449h-3.1183078-3.11830777c-.52506401 0-.8600369-.4802944-.8600369-.995645 0-.5153106.47060094-.9956449.99566494-.9956449h1.98699483l.04522933-2.1235603c-3.39781629-.4531327-6.01923896-3.3759511-6.01923896-6.83746416 0-.00195867 0 .06611518 0 .06415651 0-.51826862.30529301-1.05986141.99566494-1.05986141.77155688 0 .99564496.48033433.99564496.99566494.00145901 2.74877632 2.17948231 4.97738532 4.97832469 4.97834472 2.79886234-.0009794 4.97690564-2.2295884 4.97834464-4.97834472 0-.51533061.470621-.99566494.995685-.99566494.525044 0 .9957249.54157281.9957249 1.05790273zm-6.9696946 3.48481734c-2.09975637 0-3.48483729-1.4225156-3.48483729-3.48481732v-5.47618717c0-2.06206191 1.38510092-3.48507711 3.48483731-3.48507711 2.09979638 0 3.48483728 1.4230152 3.48483728 3.48507711v5.47618715c0 2.06230174-1.3850809 3.48481734-3.4848373 3.48481734z"/></g></g></svg>