<svg height="30" viewBox="0 0 30 30" width="30" xmlns="http://www.w3.org/2000/svg"><g fill="none" fill-rule="evenodd"><rect fill="#fff" height="30" rx="3" width="30"/><path d="m13.5069073 0h-11.01381465c-1.37695005 0-2.49309265 1.16058997-2.49309265 2.59237336v12.81539044c0 1.4316462 1.1161426 2.5922362 2.49309265 2.5922362h11.01381465c1.3769501 0 2.4930927-1.16059 2.4930927-2.5922362v-12.81539044c0-1.43178339-1.1161426-2.59237336-2.4930926-2.59237336zm-2.6387863 1.88077383c.4704221 0 .8518268.39645321.8518268.88560861s-.3814047.88574858-.8518268.88574858c-.4702903 0-.8516923-.39659318-.8516923-.88574858s.3814048-.88560861.8516923-.88560861zm-2.86810453 13.41877877c-2.76395514 0-5.01271303-2.3381715-5.01271303-5.2123022 0-2.87402225 2.24876063-5.21233086 5.01271303-5.21233086 2.76409253 0 5.01271303 2.33831147 5.01271303 5.21233086 0 2.8741365-2.248626 5.2123022-5.01271303 5.2123022zm5.31969403-11.87408502c-.4704221 0-.8518269-.39645321-.8518269-.88574859 0-.48901828.3814048-.88560861.8518269-.88560861.470455 0 .8517252.39645321.8517252.88560861 0 .48929538-.3812702.88574859-.8517252.88574859zm-5.31969403 2.58247209c-2.16311695 0-3.92303222 1.82987061-3.92303222 4.07931353 0 2.2492573 1.75992626 4.0792565 3.92303222 4.0792565 2.16324883 0 3.92303223-1.8300106 3.92303223-4.0792565 0-2.24943149-1.7597917-4.07931353-3.92303223-4.07931353zm2.98964413 4.56369283c-.4020204-.3611877-.9336601-.68679234-1.55435286-.4690732-1.18948946.4169528-1.70351912.728454-2.90203339.1053156-.74479837-.38721182-1.26641328-.1048985-1.55461934.1643841-.0187795-.1418337-.02910495-.2864138-.02910495-.43366722 0-1.75183177 1.36572192-3.17194561 3.05046888-3.17194561 1.68487334 0 3.05046956 1.42010812 3.05046956 3.17194561.000133.21688532-.021019.42848802-.0608169.63304072z" fill="#131313" transform="translate(7 6)"/></g></svg>