<svg height="30" viewBox="0 0 30 30" width="30" xmlns="http://www.w3.org/2000/svg"><g fill="none" fill-rule="evenodd"><rect fill="#fff" height="30" rx="3" width="30"/><path d="m13.0897215.80836616v14.36091674c0 .3815596-.2472486.7191251-.6110312.8342335l-6.6625459 2.1081678c-.0658192.0208266-.10229294.0910669-.08146638.1568861.01743303.0550944.07035849.0910579.12800106.0869782l8.77674152-.6211773c.1963422-.0138962.3485255-.177231.3485255-.3740643v-12.87025402c0-.27614238.2238576-.5.5-.5h.8778939c.2761424 0 .5.22385762.5.5v14.77518772c0 .345178-.279822.625-.625.625h-14.48168002c-.34517797 0-.625-.279822-.625-.625v-14.1869659c0-.53497473.34044109-1.01064363.84682446-1.18319461l10.44746686-3.55999178c.2613841-.08906708.545481.0506235.6345481.31200763.0176941.05192679.0267221.10641154.0267221.16127022z" fill="#111" transform="translate(6 5)"/></g></svg>