<svg height="1504" viewBox="0 0 242 1504" width="242" 
  xmlns="http://www.w3.org/2000/svg">
  <g fill="none" fill-rule="evenodd" transform="matrix(-1 0 0 1 242 -2)">
    <g transform="translate(0 120)">
      <g fill="#b78717">
        <path d="m111 427c-1.104569 0-2-.895431-2-2s.895431-2 2-2 2 .895431 2 2-.895431 2-2 2zm6 0c-1.104569 0-2-.895431-2-2s.895431-2 2-2 2 .895431 2 2-.895431 2-2 2zm6 0c-1.104569 0-2-.895431-2-2s.895431-2 2-2 2 .895431 2 2-.895431 2-2 2z"/>
        <g transform="matrix(-1 0 0 1 228 79)">
          <path d="m18.613 48.0060434-.486-3.0060434-1.695 2.4628511-3.432-.0966939 2.181 2.1756132-1.371 2.8666904 3.069-1.4788483 2.295 2.0703875-.159-3.114113 2.985-1.2797725-3.39-.5972272zm-5.1220121-6.3344458.170623-1.9925005-1.5582699 1.2948648-2.30967041-.6150878 1.11614061 1.7370905-1.40587297 1.6042673 2.32572357-.4466941 1.2108959 1.6884733.4101943-2.0085756 2.235689-.333479-2.1979591-.9270318zm-2.6637484-16.1062937-1.47257768-2.5653039-.95978067 3.65863-3.39488115 1.6098975 2.69287021.566724-.47805266 3.1647485 2.47165412-2.5553948 3.09872033.87767-1.1078611-2.8812651 2.3226691-2.7884829zm-3.85412121 8.4346961-1.73118282 2.4138889-2.24193547.3833333 1.37096773 1.5472223-1.26344083 2.6555555 2.24193547-1.8333333 1.58602149 1.5944444.11021508-2.5555555 1.95430106-1.6416667-2.05913979-.1zm2.02688171-17.6708861-1.81499999.4913694-.95999997-1.8204833-.86250003 2.7991945-2.36250001 1.2606444 1.61249999.4228999-.40124999 2.5172612 1.91250004-2.3078251 1.91624999.7652475-.45000002-2.2353281zm9 .1028526-1.6260991 1.2198486.0285765 1.7637356-1.6334672-.8731515-2.1607476 1.4576008.8044551-1.8474006-1.4127177-.5671361 2.3945233-.5947865 1.2781414-1.9906768.5701354 1.5271297zm-12 31 1.6260991 1.2198486-.02857649 1.7637356 1.63346722-.8731515 2.16074757 1.4576008-.8044551-1.8474006 1.4127177-.5671361-2.39452325-.5947865-1.27814146-1.9906768-.57013539 1.5271297zm13.8628318-35.8107965.4778761-1.2999072 1.6592921-1.09563607-1.3053098-.19312905v-1.03249768l-1.3716813 1.35933146-1.8451328.25998148.6504425 1.02506966-1.1283186 1.3556174 1.7876106-.8987929zm-7.0133189 1.8434324-.7668011-.2344328-1.0827118.7698304.5974962-1.0043311-.54129-.6090857 1.1903115-.355475.7578234-1.0311082.1125067.6790106.8831522-.0035132-.9765131.8864511zm.1504871 22.2884524-.6249433.6021956.2934574 1.6447496-1.0281366-1.1952465-1.0843913.5860167.3337712-1.4360488-.8897574-1.1827277 1.0211074.1830793.4788926-.955073.5263914 1.2378376zm-9.8515295-5.2533101h-1.1484705l-1.32288315 1.5002553.40682973-1.6439286-1.08394658-.6287303 1.58538124-.9807394.63030932-1.7466017.39262383 1.2184837 1.39168561-.6823085-1.02047286 1.6340094z" fill-rule="nonzero"/>
          <path d="m218.613 48.0060434-.486-3.0060434-1.695 2.4628511-3.432-.0966939 2.181 2.1756132-1.371 2.8666904 3.069-1.4788483 2.295 2.0703875-.159-3.114113 2.985-1.2797725-3.39-.5972272zm-5.122012-6.3344458.170623-1.9925005-1.55827 1.2948648-2.30967-.6150878 1.11614 1.7370905-1.405873 1.6042673 2.325724-.4466941 1.210896 1.6884733.410194-2.0085756 2.235689-.333479-2.197959-.9270318zm-2.663748-16.1062937-1.472578-2.5653039-.959781 3.65863-3.394881 1.6098975 2.69287.566724-.478052 3.1647485 2.471654-2.5553948 3.09872.87767-1.107861-2.8812651 2.322669-2.7884829zm-3.854122 8.4346961-1.731183 2.4138889-2.241935.3833333 1.370968 1.5472223-1.263441 2.6555555 2.241935-1.8333333 1.586022 1.5944444.110215-2.5555555 1.954301-1.6416667-2.05914-.1zm2.026882-17.6708861-1.815.4913694-.96-1.8204833-.8625 2.7991945-2.3625 1.2606444 1.6125.4228999-.40125 2.5172612 1.9125-2.3078251 1.91625.7652475-.45-2.2353281zm9 .1028526-1.626099 1.2198486.028576 1.7637356-1.633467-.8731515-2.160747 1.4576008.804455-1.8474006-1.412718-.5671361 2.394523-.5947865 1.278142-1.9906768.570135 1.5271297zm-12 31 1.626099 1.2198486-.028576 1.7637356 1.633467-.8731515 2.160747 1.4576008-.804455-1.8474006 1.412718-.5671361-2.394523-.5947865-1.278142-1.9906768-.570135 1.5271297zm13.862832-35.8107965.477876-1.2999072 1.659292-1.09563607-1.30531-.19312905v-1.03249768l-1.371681 1.35933146-1.845133.25998148.650443 1.02506966-1.128319 1.3556174 1.787611-.8987929zm-7.013319 1.8434324-.766801-.2344328-1.082712.7698304.597496-1.0043311-.54129-.6090857 1.190312-.355475.757823-1.0311082.112507.6790106.883152-.0035132-.976513.8864511zm.150487 22.2884524-.624943.6021956.293457 1.6447496-1.028136-1.1952465-1.084392.5860167.333771-1.4360488-.889757-1.1827277 1.021107.1830793.478893-.955073.526391 1.2378376zm-9.85153-5.2533101h-1.14847l-1.322883 1.5002553.40683-1.6439286-1.083947-.6287303 1.585381-.9807394.63031-1.7466017.392623 1.2184837 1.391686-.6823085-1.020473 1.6340094z" fill-rule="nonzero" transform="matrix(-1 0 0 1 422 0)"/>
          <g font-size="11">
            <text font-family="PingFangSC-Semibold, PingFang SC" font-weight="500">
              <tspan x="39.3845" y="33">专利号 ZL 2011 2 0106296.7</tspan>
            </text>
            <text font-family="PingFangSC-Semibold, PingFang SC" font-weight="500">
              <tspan x="39.5" y="54">一种与人互动烹饪的智能炉具</tspan>
            </text>
            <text font-family="PingFangSC-Regular, PingFang SC">
              <tspan x="65.5" y="12">中国实用新型专利</tspan>
            </text>
          </g>
        </g>
        <g transform="matrix(-1 0 0 1 228 251)">
          <path d="m18.613 48.0060434-.486-3.0060434-1.695 2.4628511-3.432-.0966939 2.181 2.1756132-1.371 2.8666904 3.069-1.4788483 2.295 2.0703875-.159-3.114113 2.985-1.2797725-3.39-.5972272zm-5.1220121-6.3344458.170623-1.9925005-1.5582699 1.2948648-2.30967041-.6150878 1.11614061 1.7370905-1.40587297 1.6042673 2.32572357-.4466941 1.2108959 1.6884733.4101943-2.0085756 2.235689-.333479-2.1979591-.9270318zm-2.6637484-16.1062937-1.47257768-2.5653039-.95978067 3.65863-3.39488115 1.6098975 2.69287021.566724-.47805266 3.1647485 2.47165412-2.5553948 3.09872033.87767-1.1078611-2.8812651 2.3226691-2.7884829zm-3.85412121 8.4346961-1.73118282 2.4138889-2.24193547.3833333 1.37096773 1.5472223-1.26344083 2.6555555 2.24193547-1.8333333 1.58602149 1.5944444.11021508-2.5555555 1.95430106-1.6416667-2.05913979-.1zm2.02688171-17.6708861-1.81499999.4913694-.95999997-1.8204833-.86250003 2.7991945-2.36250001 1.2606444 1.61249999.4228999-.40124999 2.5172612 1.91250004-2.3078251 1.91624999.7652475-.45000002-2.2353281zm9 .1028526-1.6260991 1.2198486.0285765 1.7637356-1.6334672-.8731515-2.1607476 1.4576008.8044551-1.8474006-1.4127177-.5671361 2.3945233-.5947865 1.2781414-1.9906768.5701354 1.5271297zm-12 31 1.6260991 1.2198486-.02857649 1.7637356 1.63346722-.8731515 2.16074757 1.4576008-.8044551-1.8474006 1.4127177-.5671361-2.39452325-.5947865-1.27814146-1.9906768-.57013539 1.5271297zm13.8628318-35.8107965.4778761-1.2999072 1.6592921-1.09563607-1.3053098-.19312905v-1.03249768l-1.3716813 1.35933146-1.8451328.25998148.6504425 1.02506966-1.1283186 1.3556174 1.7876106-.8987929zm-7.0133189 1.8434324-.7668011-.2344328-1.0827118.7698304.5974962-1.0043311-.54129-.6090857 1.1903115-.355475.7578234-1.0311082.1125067.6790106.8831522-.0035132-.9765131.8864511zm.1504871 22.2884524-.6249433.6021956.2934574 1.6447496-1.0281366-1.1952465-1.0843913.5860167.3337712-1.4360488-.8897574-1.1827277 1.0211074.1830793.4788926-.955073.5263914 1.2378376zm-9.8515295-5.2533101h-1.1484705l-1.32288315 1.5002553.40682973-1.6439286-1.08394658-.6287303 1.58538124-.9807394.63030932-1.7466017.39262383 1.2184837 1.39168561-.6823085-1.02047286 1.6340094z" fill-rule="nonzero"/>
          <path d="m218.613 48.0060434-.486-3.0060434-1.695 2.4628511-3.432-.0966939 2.181 2.1756132-1.371 2.8666904 3.069-1.4788483 2.295 2.0703875-.159-3.114113 2.985-1.2797725-3.39-.5972272zm-5.122012-6.3344458.170623-1.9925005-1.55827 1.2948648-2.30967-.6150878 1.11614 1.7370905-1.405873 1.6042673 2.325724-.4466941 1.210896 1.6884733.410194-2.0085756 2.235689-.333479-2.197959-.9270318zm-2.663748-16.1062937-1.472578-2.5653039-.959781 3.65863-3.394881 1.6098975 2.69287.566724-.478052 3.1647485 2.471654-2.5553948 3.09872.87767-1.107861-2.8812651 2.322669-2.7884829zm-3.854122 8.4346961-1.731183 2.4138889-2.241935.3833333 1.370968 1.5472223-1.263441 2.6555555 2.241935-1.8333333 1.586022 1.5944444.110215-2.5555555 1.954301-1.6416667-2.05914-.1zm2.026882-17.6708861-1.815.4913694-.96-1.8204833-.8625 2.7991945-2.3625 1.2606444 1.6125.4228999-.40125 2.5172612 1.9125-2.3078251 1.91625.7652475-.45-2.2353281zm9 .1028526-1.626099 1.2198486.028576 1.7637356-1.633467-.8731515-2.160747 1.4576008.804455-1.8474006-1.412718-.5671361 2.394523-.5947865 1.278142-1.9906768.570135 1.5271297zm-12 31 1.626099 1.2198486-.028576 1.7637356 1.633467-.8731515 2.160747 1.4576008-.804455-1.8474006 1.412718-.5671361-2.394523-.5947865-1.278142-1.9906768-.570135 1.5271297zm13.862832-35.8107965.477876-1.2999072 1.659292-1.09563607-1.30531-.19312905v-1.03249768l-1.371681 1.35933146-1.845133.25998148.650443 1.02506966-1.128319 1.3556174 1.787611-.8987929zm-7.013319 1.8434324-.766801-.2344328-1.082712.7698304.597496-1.0043311-.54129-.6090857 1.190312-.355475.757823-1.0311082.112507.6790106.883152-.0035132-.976513.8864511zm.150487 22.2884524-.624943.6021956.293457 1.6447496-1.028136-1.1952465-1.084392.5860167.333771-1.4360488-.889757-1.1827277 1.021107.1830793.478893-.955073.526391 1.2378376zm-9.85153-5.2533101h-1.14847l-1.322883 1.5002553.40683-1.6439286-1.083947-.6287303 1.585381-.9807394.63031-1.7466017.392623 1.2184837 1.391686-.6823085-1.020473 1.6340094z" fill-rule="nonzero" transform="matrix(-1 0 0 1 422 0)"/>
          <g font-size="11">
            <text font-family="PingFangSC-Semibold, PingFang SC" font-weight="500">
              <tspan x="40.4295" y="33">专利号 ZL 2015 2 0175216.1</tspan>
            </text>
            <text font-family="PingFangSC-Semibold, PingFang SC" font-weight="500">
              <tspan x="39.5" y="54">一种给料螺杆及螺旋给料机构</tspan>
            </text>
            <text font-family="PingFangSC-Regular, PingFang SC">
              <tspan x="66.5" y="12">中国实用新型专利</tspan>
            </text>
          </g>
        </g>
        <g transform="matrix(-1 0 0 1 228 165)">
          <path d="m18.613 48.0060434-.486-3.0060434-1.695 2.4628511-3.432-.0966939 2.181 2.1756132-1.371 2.8666904 3.069-1.4788483 2.295 2.0703875-.159-3.114113 2.985-1.2797725-3.39-.5972272zm-5.1220121-6.3344458.170623-1.9925005-1.5582699 1.2948648-2.30967041-.6150878 1.11614061 1.7370905-1.40587297 1.6042673 2.32572357-.4466941 1.2108959 1.6884733.4101943-2.0085756 2.235689-.333479-2.1979591-.9270318zm-2.6637484-16.1062937-1.47257768-2.5653039-.95978067 3.65863-3.39488115 1.6098975 2.69287021.566724-.47805266 3.1647485 2.47165412-2.5553948 3.09872033.87767-1.1078611-2.8812651 2.3226691-2.7884829zm-3.85412121 8.4346961-1.73118282 2.4138889-2.24193547.3833333 1.37096773 1.5472223-1.26344083 2.6555555 2.24193547-1.8333333 1.58602149 1.5944444.11021508-2.5555555 1.95430106-1.6416667-2.05913979-.1zm2.02688171-17.6708861-1.81499999.4913694-.95999997-1.8204833-.86250003 2.7991945-2.36250001 1.2606444 1.61249999.4228999-.40124999 2.5172612 1.91250004-2.3078251 1.91624999.7652475-.45000002-2.2353281zm9 .1028526-1.6260991 1.2198486.0285765 1.7637356-1.6334672-.8731515-2.1607476 1.4576008.8044551-1.8474006-1.4127177-.5671361 2.3945233-.5947865 1.2781414-1.9906768.5701354 1.5271297zm-12 31 1.6260991 1.2198486-.02857649 1.7637356 1.63346722-.8731515 2.16074757 1.4576008-.8044551-1.8474006 1.4127177-.5671361-2.39452325-.5947865-1.27814146-1.9906768-.57013539 1.5271297zm13.8628318-35.8107965.4778761-1.2999072 1.6592921-1.09563607-1.3053098-.19312905v-1.03249768l-1.3716813 1.35933146-1.8451328.25998148.6504425 1.02506966-1.1283186 1.3556174 1.7876106-.8987929zm-7.0133189 1.8434324-.7668011-.2344328-1.0827118.7698304.5974962-1.0043311-.54129-.6090857 1.1903115-.355475.7578234-1.0311082.1125067.6790106.8831522-.0035132-.9765131.8864511zm.1504871 22.2884524-.6249433.6021956.2934574 1.6447496-1.0281366-1.1952465-1.0843913.5860167.3337712-1.4360488-.8897574-1.1827277 1.0211074.1830793.4788926-.955073.5263914 1.2378376zm-9.8515295-5.2533101h-1.1484705l-1.32288315 1.5002553.40682973-1.6439286-1.08394658-.6287303 1.58538124-.9807394.63030932-1.7466017.39262383 1.2184837 1.39168561-.6823085-1.02047286 1.6340094z" fill-rule="nonzero"/>
          <path d="m218.613 48.0060434-.486-3.0060434-1.695 2.4628511-3.432-.0966939 2.181 2.1756132-1.371 2.8666904 3.069-1.4788483 2.295 2.0703875-.159-3.114113 2.985-1.2797725-3.39-.5972272zm-5.122012-6.3344458.170623-1.9925005-1.55827 1.2948648-2.30967-.6150878 1.11614 1.7370905-1.405873 1.6042673 2.325724-.4466941 1.210896 1.6884733.410194-2.0085756 2.235689-.333479-2.197959-.9270318zm-2.663748-16.1062937-1.472578-2.5653039-.959781 3.65863-3.394881 1.6098975 2.69287.566724-.478052 3.1647485 2.471654-2.5553948 3.09872.87767-1.107861-2.8812651 2.322669-2.7884829zm-3.854122 8.4346961-1.731183 2.4138889-2.241935.3833333 1.370968 1.5472223-1.263441 2.6555555 2.241935-1.8333333 1.586022 1.5944444.110215-2.5555555 1.954301-1.6416667-2.05914-.1zm2.026882-17.6708861-1.815.4913694-.96-1.8204833-.8625 2.7991945-2.3625 1.2606444 1.6125.4228999-.40125 2.5172612 1.9125-2.3078251 1.91625.7652475-.45-2.2353281zm9 .1028526-1.626099 1.2198486.028576 1.7637356-1.633467-.8731515-2.160747 1.4576008.804455-1.8474006-1.412718-.5671361 2.394523-.5947865 1.278142-1.9906768.570135 1.5271297zm-12 31 1.626099 1.2198486-.028576 1.7637356 1.633467-.8731515 2.160747 1.4576008-.804455-1.8474006 1.412718-.5671361-2.394523-.5947865-1.278142-1.9906768-.570135 1.5271297zm13.862832-35.8107965.477876-1.2999072 1.659292-1.09563607-1.30531-.19312905v-1.03249768l-1.371681 1.35933146-1.845133.25998148.650443 1.02506966-1.128319 1.3556174 1.787611-.8987929zm-7.013319 1.8434324-.766801-.2344328-1.082712.7698304.597496-1.0043311-.54129-.6090857 1.190312-.355475.757823-1.0311082.112507.6790106.883152-.0035132-.976513.8864511zm.150487 22.2884524-.624943.6021956.293457 1.6447496-1.028136-1.1952465-1.084392.5860167.333771-1.4360488-.889757-1.1827277 1.021107.1830793.478893-.955073.526391 1.2378376zm-9.85153-5.2533101h-1.14847l-1.322883 1.5002553.40683-1.6439286-1.083947-.6287303 1.585381-.9807394.63031-1.7466017.392623 1.2184837 1.391686-.6823085-1.020473 1.6340094z" fill-rule="nonzero" transform="matrix(-1 0 0 1 422 0)"/>
          <g font-size="11">
            <text font-family="PingFangSC-Semibold, PingFang SC" font-weight="500">
              <tspan x="38.3395" y="33">专利号 ZL 2015 2 0526261.7</tspan>
            </text>
            <text font-family="PingFangSC-Semibold, PingFang SC" font-weight="500">
              <tspan x="83.5" y="54">一种烹饪锅</tspan>
            </text>
            <text font-family="PingFangSC-Regular, PingFang SC">
              <tspan x="66.5" y="12">中国实用新型专利</tspan>
            </text>
          </g>
        </g>
        <g transform="matrix(-1 0 0 1 228 338)">
          <path d="m18.613 47.0060434-.486-3.0060434-1.695 2.4628511-3.432-.0966939 2.181 2.1756132-1.371 2.8666904 3.069-1.4788483 2.295 2.0703875-.159-3.114113 2.985-1.2797725-3.39-.5972272zm-5.1220121-6.3344458.170623-1.9925005-1.5582699 1.2948648-2.30967041-.6150878 1.11614061 1.7370905-1.40587297 1.6042673 2.32572357-.4466941 1.2108959 1.6884733.4101943-2.0085756 2.235689-.333479-2.1979591-.9270318zm-2.6637484-16.1062937-1.47257768-2.5653039-.95978067 3.65863-3.39488115 1.6098975 2.69287021.566724-.47805266 3.1647485 2.47165412-2.5553948 3.09872033.87767-1.1078611-2.8812651 2.3226691-2.7884829zm-3.85412121 8.4346961-1.73118282 2.4138889-2.24193547.3833333 1.37096773 1.5472223-1.26344083 2.6555555 2.24193547-1.8333333 1.58602149 1.5944444.11021508-2.5555555 1.95430106-1.6416667-2.05913979-.1zm2.02688171-17.6708861-1.81499999.4913694-.95999997-1.8204833-.86250003 2.7991945-2.36250001 1.2606444 1.61249999.4228999-.40124999 2.5172612 1.91250004-2.3078251 1.91624999.7652475-.45000002-2.2353281zm9 .1028526-1.6260991 1.2198486.0285765 1.7637356-1.6334672-.8731515-2.1607476 1.4576008.8044551-1.8474006-1.4127177-.5671361 2.3945233-.5947865 1.2781414-1.9906768.5701354 1.5271297zm-12 31 1.6260991 1.2198486-.02857649 1.7637356 1.63346722-.8731515 2.16074757 1.4576008-.8044551-1.8474006 1.4127177-.5671361-2.39452325-.5947865-1.27814146-1.9906768-.57013539 1.5271297zm13.8628318-35.8107965.4778761-1.29990719 1.6592921-1.09563608-1.3053098-.19312905v-1.03249768l-1.3716813 1.35933146-1.8451328.25998148.6504425 1.02506963-1.1283186 1.35561743 1.7876106-.8987929zm-7.0133189 1.8434324-.7668011-.2344328-1.0827118.7698304.5974962-1.0043311-.54129-.6090857 1.1903115-.355475.7578234-1.0311082.1125067.6790106.8831522-.0035132-.9765131.8864511zm.1504871 22.2884524-.6249433.6021956.2934574 1.6447496-1.0281366-1.1952465-1.0843913.5860167.3337712-1.4360488-.8897574-1.1827277 1.0211074.1830793.4788926-.955073.5263914 1.2378376zm-9.8515295-5.2533101h-1.1484705l-1.32288315 1.5002553.40682973-1.6439286-1.08394658-.6287303 1.58538124-.9807394.63030932-1.7466017.39262383 1.2184837 1.39168561-.6823085-1.02047286 1.6340094z" fill-rule="nonzero"/>
          <path d="m218.613 47.0060434-.486-3.0060434-1.695 2.4628511-3.432-.0966939 2.181 2.1756132-1.371 2.8666904 3.069-1.4788483 2.295 2.0703875-.159-3.114113 2.985-1.2797725-3.39-.5972272zm-5.122012-6.3344458.170623-1.9925005-1.55827 1.2948648-2.30967-.6150878 1.11614 1.7370905-1.405873 1.6042673 2.325724-.4466941 1.210896 1.6884733.410194-2.0085756 2.235689-.333479-2.197959-.9270318zm-2.663748-16.1062937-1.472578-2.5653039-.959781 3.65863-3.394881 1.6098975 2.69287.566724-.478052 3.1647485 2.471654-2.5553948 3.09872.87767-1.107861-2.8812651 2.322669-2.7884829zm-3.854122 8.4346961-1.731183 2.4138889-2.241935.3833333 1.370968 1.5472223-1.263441 2.6555555 2.241935-1.8333333 1.586022 1.5944444.110215-2.5555555 1.954301-1.6416667-2.05914-.1zm2.026882-17.6708861-1.815.4913694-.96-1.8204833-.8625 2.7991945-2.3625 1.2606444 1.6125.4228999-.40125 2.5172612 1.9125-2.3078251 1.91625.7652475-.45-2.2353281zm9 .1028526-1.626099 1.2198486.028576 1.7637356-1.633467-.8731515-2.160747 1.4576008.804455-1.8474006-1.412718-.5671361 2.394523-.5947865 1.278142-1.9906768.570135 1.5271297zm-12 31 1.626099 1.2198486-.028576 1.7637356 1.633467-.8731515 2.160747 1.4576008-.804455-1.8474006 1.412718-.5671361-2.394523-.5947865-1.278142-1.9906768-.570135 1.5271297zm13.862832-35.8107965.477876-1.29990719 1.659292-1.09563608-1.30531-.19312905v-1.03249768l-1.371681 1.35933146-1.845133.25998148.650443 1.02506963-1.128319 1.35561743 1.787611-.8987929zm-7.013319 1.8434324-.766801-.2344328-1.082712.7698304.597496-1.0043311-.54129-.6090857 1.190312-.355475.757823-1.0311082.112507.6790106.883152-.0035132-.976513.8864511zm.150487 22.2884524-.624943.6021956.293457 1.6447496-1.028136-1.1952465-1.084392.5860167.333771-1.4360488-.889757-1.1827277 1.021107.1830793.478893-.955073.526391 1.2378376zm-9.85153-5.2533101h-1.14847l-1.322883 1.5002553.40683-1.6439286-1.083947-.6287303 1.585381-.9807394.63031-1.7466017.392623 1.2184837 1.391686-.6823085-1.020473 1.6340094z" fill-rule="nonzero" transform="matrix(-1 0 0 1 422 0)"/>
          <g font-size="11">
            <text font-family="PingFangSC-Semibold, PingFang SC" font-weight="500">
              <tspan x="33.536" y="33">专利号 ZL 2018 2 0568652.9</tspan>
            </text>
            <text font-family="PingFangSC-Semibold, PingFang SC" font-weight="500">
              <tspan x="78" y="54">翻炒烹饪设备</tspan>
            </text>
            <text font-family="PingFangSC-Regular, PingFang SC">
              <tspan x="66.5" y="12">中国实用新型专利</tspan>
            </text>
          </g>
        </g>
        <g transform="matrix(-1 0 0 1 228 538)">
          <path d="m18.613 50.0060434-.486-3.0060434-1.695 2.4628511-3.432-.0966939 2.181 2.1756132-1.371 2.8666904 3.069-1.4788483 2.295 2.0703875-.159-3.114113 2.985-1.2797725-3.39-.5972272zm-5.1220121-6.3344458.170623-1.9925005-1.5582699 1.2948648-2.30967041-.6150878 1.11614061 1.7370905-1.40587297 1.6042673 2.32572357-.4466941 1.2108959 1.6884733.4101943-2.0085756 2.235689-.333479-2.1979591-.9270318zm-2.6637484-16.1062937-1.47257768-2.5653039-.95978067 3.65863-3.39488115 1.6098975 2.69287021.566724-.47805266 3.1647485 2.47165412-2.5553948 3.09872033.87767-1.1078611-2.8812651 2.3226691-2.7884829zm-3.85412121 8.4346961-1.73118282 2.4138889-2.24193547.3833333 1.37096773 1.5472223-1.26344083 2.6555555 2.24193547-1.8333333 1.58602149 1.5944444.11021508-2.5555555 1.95430106-1.6416667-2.05913979-.1zm2.02688171-17.6708861-1.81499999.4913694-.95999997-1.8204833-.86250003 2.7991945-2.36250001 1.2606444 1.61249999.4228999-.40124999 2.5172612 1.91250004-2.3078251 1.91624999.7652475-.45000002-2.2353281zm9 .1028526-1.6260991 1.2198486.0285765 1.7637356-1.6334672-.8731515-2.1607476 1.4576008.8044551-1.8474006-1.4127177-.5671361 2.3945233-.5947865 1.2781414-1.9906768.5701354 1.5271297zm-12 31 1.6260991 1.2198486-.02857649 1.7637356 1.63346722-.8731515 2.16074757 1.4576008-.8044551-1.8474006 1.4127177-.5671361-2.39452325-.5947865-1.27814146-1.9906768-.57013539 1.5271297zm13.8628318-35.8107965.4778761-1.2999072 1.6592921-1.0956361-1.3053098-.193129v-1.0324977l-1.3716813 1.3593315-1.8451328.2599814.6504425 1.0250697-1.1283186 1.3556174 1.7876106-.8987929zm-7.0133189 1.8434324-.7668011-.2344328-1.0827118.7698304.5974962-1.0043311-.54129-.6090857 1.1903115-.355475.7578234-1.0311082.1125067.6790106.8831522-.0035132-.9765131.8864511zm.1504871 22.2884524-.6249433.6021956.2934574 1.6447496-1.0281366-1.1952465-1.0843913.5860167.3337712-1.4360488-.8897574-1.1827277 1.0211074.1830793.4788926-.955073.5263914 1.2378376zm-9.8515295-5.2533101h-1.1484705l-1.32288315 1.5002553.40682973-1.6439286-1.08394658-.6287303 1.58538124-.9807394.63030932-1.7466017.39262383 1.2184837 1.39168561-.6823085-1.02047286 1.6340094z" fill-rule="nonzero"/>
          <path d="m218.613 50.0060434-.486-3.0060434-1.695 2.4628511-3.432-.0966939 2.181 2.1756132-1.371 2.8666904 3.069-1.4788483 2.295 2.0703875-.159-3.114113 2.985-1.2797725-3.39-.5972272zm-5.122012-6.3344458.170623-1.9925005-1.55827 1.2948648-2.30967-.6150878 1.11614 1.7370905-1.405873 1.6042673 2.325724-.4466941 1.210896 1.6884733.410194-2.0085756 2.235689-.333479-2.197959-.9270318zm-2.663748-16.1062937-1.472578-2.5653039-.959781 3.65863-3.394881 1.6098975 2.69287.566724-.478052 3.1647485 2.471654-2.5553948 3.09872.87767-1.107861-2.8812651 2.322669-2.7884829zm-3.854122 8.4346961-1.731183 2.4138889-2.241935.3833333 1.370968 1.5472223-1.263441 2.6555555 2.241935-1.8333333 1.586022 1.5944444.110215-2.5555555 1.954301-1.6416667-2.05914-.1zm2.026882-17.6708861-1.815.4913694-.96-1.8204833-.8625 2.7991945-2.3625 1.2606444 1.6125.4228999-.40125 2.5172612 1.9125-2.3078251 1.91625.7652475-.45-2.2353281zm9 .1028526-1.626099 1.2198486.028576 1.7637356-1.633467-.8731515-2.160747 1.4576008.804455-1.8474006-1.412718-.5671361 2.394523-.5947865 1.278142-1.9906768.570135 1.5271297zm-12 31 1.626099 1.2198486-.028576 1.7637356 1.633467-.8731515 2.160747 1.4576008-.804455-1.8474006 1.412718-.5671361-2.394523-.5947865-1.278142-1.9906768-.570135 1.5271297zm13.862832-35.8107965.477876-1.2999072 1.659292-1.0956361-1.30531-.193129v-1.0324977l-1.371681 1.3593315-1.845133.2599814.650443 1.0250697-1.128319 1.3556174 1.787611-.8987929zm-7.013319 1.8434324-.766801-.2344328-1.082712.7698304.597496-1.0043311-.54129-.6090857 1.190312-.355475.757823-1.0311082.112507.6790106.883152-.0035132-.976513.8864511zm.150487 22.2884524-.624943.6021956.293457 1.6447496-1.028136-1.1952465-1.084392.5860167.333771-1.4360488-.889757-1.1827277 1.021107.1830793.478893-.955073.526391 1.2378376zm-9.85153-5.2533101h-1.14847l-1.322883 1.5002553.40683-1.6439286-1.083947-.6287303 1.585381-.9807394.63031-1.7466017.392623 1.2184837 1.391686-.6823085-1.020473 1.6340094z" fill-rule="nonzero" transform="matrix(-1 0 0 1 422 0)"/>
          <g font-size="11">
            <text font-family="PingFangSC-Semibold, PingFang SC" font-weight="500">
              <tspan x="38.598" y="33">专利号 ZL 2015 1 0232877.8</tspan>
            </text>
            <text font-family="PingFangSC-Semibold, PingFang SC" font-weight="500">
              <tspan x="45" y="54">餐饮任务的分配方法及系统</tspan>
            </text>
            <text font-family="PingFangSC-Regular, PingFang SC">
              <tspan x="77.5" y="12">中国发明专利</tspan>
            </text>
          </g>
        </g>
        <g transform="matrix(-1 0 0 1 227 626)">
          <path d="m18.613 50.0060434-.486-3.0060434-1.695 2.4628511-3.432-.0966939 2.181 2.1756132-1.371 2.8666904 3.069-1.4788483 2.295 2.0703875-.159-3.114113 2.985-1.2797725-3.39-.5972272zm-5.1220121-6.3344458.170623-1.9925005-1.5582699 1.2948648-2.30967041-.6150878 1.11614061 1.7370905-1.40587297 1.6042673 2.32572357-.4466941 1.2108959 1.6884733.4101943-2.0085756 2.235689-.333479-2.1979591-.9270318zm-2.6637484-16.1062937-1.47257768-2.5653039-.95978067 3.65863-3.39488115 1.6098975 2.69287021.566724-.47805266 3.1647485 2.47165412-2.5553948 3.09872033.87767-1.1078611-2.8812651 2.3226691-2.7884829zm-3.85412121 8.4346961-1.73118282 2.4138889-2.24193547.3833333 1.37096773 1.5472223-1.26344083 2.6555555 2.24193547-1.8333333 1.58602149 1.5944444.11021508-2.5555555 1.95430106-1.6416667-2.05913979-.1zm2.02688171-17.6708861-1.81499999.4913694-.95999997-1.8204833-.86250003 2.7991945-2.36250001 1.2606444 1.61249999.4228999-.40124999 2.5172612 1.91250004-2.3078251 1.91624999.7652475-.45000002-2.2353281zm9 .1028526-1.6260991 1.2198486.0285765 1.7637356-1.6334672-.8731515-2.1607476 1.4576008.8044551-1.8474006-1.4127177-.5671361 2.3945233-.5947865 1.2781414-1.9906768.5701354 1.5271297zm-12 31 1.6260991 1.2198486-.02857649 1.7637356 1.63346722-.8731515 2.16074757 1.4576008-.8044551-1.8474006 1.4127177-.5671361-2.39452325-.5947865-1.27814146-1.9906768-.57013539 1.5271297zm13.8628318-35.8107965.4778761-1.2999072 1.6592921-1.0956361-1.3053098-.193129v-1.0324977l-1.3716813 1.3593315-1.8451328.2599814.6504425 1.0250697-1.1283186 1.3556174 1.7876106-.8987929zm-7.0133189 1.8434324-.7668011-.2344328-1.0827118.7698304.5974962-1.0043311-.54129-.6090857 1.1903115-.355475.7578234-1.0311082.1125067.6790106.8831522-.0035132-.9765131.8864511zm.1504871 22.2884524-.6249433.6021956.2934574 1.6447496-1.0281366-1.1952465-1.0843913.5860167.3337712-1.4360488-.8897574-1.1827277 1.0211074.1830793.4788926-.955073.5263914 1.2378376zm-9.8515295-5.2533101h-1.1484705l-1.32288315 1.5002553.40682973-1.6439286-1.08394658-.6287303 1.58538124-.9807394.63030932-1.7466017.39262383 1.2184837 1.39168561-.6823085-1.02047286 1.6340094z" fill-rule="nonzero"/>
          <path d="m218.613 50.0060434-.486-3.0060434-1.695 2.4628511-3.432-.0966939 2.181 2.1756132-1.371 2.8666904 3.069-1.4788483 2.295 2.0703875-.159-3.114113 2.985-1.2797725-3.39-.5972272zm-5.122012-6.3344458.170623-1.9925005-1.55827 1.2948648-2.30967-.6150878 1.11614 1.7370905-1.405873 1.6042673 2.325724-.4466941 1.210896 1.6884733.410194-2.0085756 2.235689-.333479-2.197959-.9270318zm-2.663748-16.1062937-1.472578-2.5653039-.959781 3.65863-3.394881 1.6098975 2.69287.566724-.478052 3.1647485 2.471654-2.5553948 3.09872.87767-1.107861-2.8812651 2.322669-2.7884829zm-3.854122 8.4346961-1.731183 2.4138889-2.241935.3833333 1.370968 1.5472223-1.263441 2.6555555 2.241935-1.8333333 1.586022 1.5944444.110215-2.5555555 1.954301-1.6416667-2.05914-.1zm2.026882-17.6708861-1.815.4913694-.96-1.8204833-.8625 2.7991945-2.3625 1.2606444 1.6125.4228999-.40125 2.5172612 1.9125-2.3078251 1.91625.7652475-.45-2.2353281zm9 .1028526-1.626099 1.2198486.028576 1.7637356-1.633467-.8731515-2.160747 1.4576008.804455-1.8474006-1.412718-.5671361 2.394523-.5947865 1.278142-1.9906768.570135 1.5271297zm-12 31 1.626099 1.2198486-.028576 1.7637356 1.633467-.8731515 2.160747 1.4576008-.804455-1.8474006 1.412718-.5671361-2.394523-.5947865-1.278142-1.9906768-.570135 1.5271297zm13.862832-35.8107965.477876-1.2999072 1.659292-1.0956361-1.30531-.193129v-1.0324977l-1.371681 1.3593315-1.845133.2599814.650443 1.0250697-1.128319 1.3556174 1.787611-.8987929zm-7.013319 1.8434324-.766801-.2344328-1.082712.7698304.597496-1.0043311-.54129-.6090857 1.190312-.355475.757823-1.0311082.112507.6790106.883152-.0035132-.976513.8864511zm.150487 22.2884524-.624943.6021956.293457 1.6447496-1.028136-1.1952465-1.084392.5860167.333771-1.4360488-.889757-1.1827277 1.021107.1830793.478893-.955073.526391 1.2378376zm-9.85153-5.2533101h-1.14847l-1.322883 1.5002553.40683-1.6439286-1.083947-.6287303 1.585381-.9807394.63031-1.7466017.392623 1.2184837 1.391686-.6823085-1.020473 1.6340094z" fill-rule="nonzero" transform="matrix(-1 0 0 1 422 0)"/>
          <g font-size="11">
            <text font-family="PingFangSC-Semibold, PingFang SC" font-weight="500">
              <tspan x="39.3845" y="33">专利号 ZL 2012 1 0004769.1</tspan>
            </text>
            <text font-family="PingFangSC-Semibold, PingFang SC" font-weight="500">
              <tspan x="34" y="54">智能烹饪设备及其烹饪工作方法</tspan>
            </text>
            <text font-family="PingFangSC-Regular, PingFang SC">
              <tspan x="77.5" y="12">中国发明专利</tspan>
            </text>
          </g>
        </g>
        <g transform="matrix(-1 0 0 1 229 831)">
          <path d="m18.613 48.0060434-.486-3.0060434-1.695 2.4628511-3.432-.0966939 2.181 2.1756132-1.371 2.8666904 3.069-1.4788483 2.295 2.0703875-.159-3.114113 2.985-1.2797725-3.39-.5972272zm-5.1220121-6.3344458.170623-1.9925005-1.5582699 1.2948648-2.30967041-.6150878 1.11614061 1.7370905-1.40587297 1.6042673 2.32572357-.4466941 1.2108959 1.6884733.4101943-2.0085756 2.235689-.333479-2.1979591-.9270318zm-2.6637484-16.1062937-1.47257768-2.5653039-.95978067 3.65863-3.39488115 1.6098975 2.69287021.566724-.47805266 3.1647485 2.47165412-2.5553948 3.09872033.87767-1.1078611-2.8812651 2.3226691-2.7884829zm-3.85412121 8.4346961-1.73118282 2.4138889-2.24193547.3833333 1.37096773 1.5472223-1.26344083 2.6555555 2.24193547-1.8333333 1.58602149 1.5944444.11021508-2.5555555 1.95430106-1.6416667-2.05913979-.1zm2.02688171-17.6708861-1.81499999.4913694-.95999997-1.8204833-.86250003 2.7991945-2.36250001 1.2606444 1.61249999.4228999-.40124999 2.5172612 1.91250004-2.3078251 1.91624999.7652475-.45000002-2.2353281zm9 .1028526-1.6260991 1.2198486.0285765 1.7637356-1.6334672-.8731515-2.1607476 1.4576008.8044551-1.8474006-1.4127177-.5671361 2.3945233-.5947865 1.2781414-1.9906768.5701354 1.5271297zm-12 31 1.6260991 1.2198486-.02857649 1.7637356 1.63346722-.8731515 2.16074757 1.4576008-.8044551-1.8474006 1.4127177-.5671361-2.39452325-.5947865-1.27814146-1.9906768-.57013539 1.5271297zm13.8628318-35.8107965.4778761-1.2999072 1.6592921-1.09563607-1.3053098-.19312905v-1.03249768l-1.3716813 1.35933146-1.8451328.25998148.6504425 1.02506966-1.1283186 1.3556174 1.7876106-.8987929zm-7.0133189 1.8434324-.7668011-.2344328-1.0827118.7698304.5974962-1.0043311-.54129-.6090857 1.1903115-.355475.7578234-1.0311082.1125067.6790106.8831522-.0035132-.9765131.8864511zm.1504871 22.2884524-.6249433.6021956.2934574 1.6447496-1.0281366-1.1952465-1.0843913.5860167.3337712-1.4360488-.8897574-1.1827277 1.0211074.1830793.4788926-.955073.5263914 1.2378376zm-9.8515295-5.2533101h-1.1484705l-1.32288315 1.5002553.40682973-1.6439286-1.08394658-.6287303 1.58538124-.9807394.63030932-1.7466017.39262383 1.2184837 1.39168561-.6823085-1.02047286 1.6340094z" fill-rule="nonzero"/>
          <path d="m218.613 48.0060434-.486-3.0060434-1.695 2.4628511-3.432-.0966939 2.181 2.1756132-1.371 2.8666904 3.069-1.4788483 2.295 2.0703875-.159-3.114113 2.985-1.2797725-3.39-.5972272zm-5.122012-6.3344458.170623-1.9925005-1.55827 1.2948648-2.30967-.6150878 1.11614 1.7370905-1.405873 1.6042673 2.325724-.4466941 1.210896 1.6884733.410194-2.0085756 2.235689-.333479-2.197959-.9270318zm-2.663748-16.1062937-1.472578-2.5653039-.959781 3.65863-3.394881 1.6098975 2.69287.566724-.478052 3.1647485 2.471654-2.5553948 3.09872.87767-1.107861-2.8812651 2.322669-2.7884829zm-3.854122 8.4346961-1.731183 2.4138889-2.241935.3833333 1.370968 1.5472223-1.263441 2.6555555 2.241935-1.8333333 1.586022 1.5944444.110215-2.5555555 1.954301-1.6416667-2.05914-.1zm2.026882-17.6708861-1.815.4913694-.96-1.8204833-.8625 2.7991945-2.3625 1.2606444 1.6125.4228999-.40125 2.5172612 1.9125-2.3078251 1.91625.7652475-.45-2.2353281zm9 .1028526-1.626099 1.2198486.028576 1.7637356-1.633467-.8731515-2.160747 1.4576008.804455-1.8474006-1.412718-.5671361 2.394523-.5947865 1.278142-1.9906768.570135 1.5271297zm-12 31 1.626099 1.2198486-.028576 1.7637356 1.633467-.8731515 2.160747 1.4576008-.804455-1.8474006 1.412718-.5671361-2.394523-.5947865-1.278142-1.9906768-.570135 1.5271297zm13.862832-35.8107965.477876-1.2999072 1.659292-1.09563607-1.30531-.19312905v-1.03249768l-1.371681 1.35933146-1.845133.25998148.650443 1.02506966-1.128319 1.3556174 1.787611-.8987929zm-7.013319 1.8434324-.766801-.2344328-1.082712.7698304.597496-1.0043311-.54129-.6090857 1.190312-.355475.757823-1.0311082.112507.6790106.883152-.0035132-.976513.8864511zm.150487 22.2884524-.624943.6021956.293457 1.6447496-1.028136-1.1952465-1.084392.5860167.333771-1.4360488-.889757-1.1827277 1.021107.1830793.478893-.955073.526391 1.2378376zm-9.85153-5.2533101h-1.14847l-1.322883 1.5002553.40683-1.6439286-1.083947-.6287303 1.585381-.9807394.63031-1.7466017.392623 1.2184837 1.391686-.6823085-1.020473 1.6340094z" fill-rule="nonzero" transform="matrix(-1 0 0 1 422 0)"/>
          <g font-size="11">
            <text font-family="PingFangSC-Semibold, PingFang SC" font-weight="500">
              <tspan x="55.901" y="33">专利号 US9820615B2</tspan>
            </text>
            <text font-family="PingFangSC-Semibold, PingFang SC" font-weight="500">
              <tspan x="78" y="54">自动配料装置</tspan>
            </text>
            <text font-family="PingFangSC-Regular, PingFang SC">
              <tspan x="77.5" y="12">美国发明专利</tspan>
            </text>
          </g>
        </g>
        <g transform="matrix(-1 0 0 1 242 1122)">
          <path d="m18.613 48.0060434-.486-3.0060434-1.695 2.4628511-3.432-.0966939 2.181 2.1756132-1.371 2.8666904 3.069-1.4788483 2.295 2.0703875-.159-3.114113 2.985-1.2797725-3.39-.5972272zm-5.1220121-6.3344458.170623-1.9925005-1.5582699 1.2948648-2.30967041-.6150878 1.11614061 1.7370905-1.40587297 1.6042673 2.32572357-.4466941 1.2108959 1.6884733.4101943-2.0085756 2.235689-.333479-2.1979591-.9270318zm-2.6637484-16.1062937-1.47257768-2.5653039-.95978067 3.65863-3.39488115 1.6098975 2.69287021.566724-.47805266 3.1647485 2.47165412-2.5553948 3.09872033.87767-1.1078611-2.8812651 2.3226691-2.7884829zm-3.85412121 8.4346961-1.73118282 2.4138889-2.24193547.3833333 1.37096773 1.5472223-1.26344083 2.6555555 2.24193547-1.8333333 1.58602149 1.5944444.11021508-2.5555555 1.95430106-1.6416667-2.05913979-.1zm2.02688171-17.6708861-1.81499999.4913694-.95999997-1.8204833-.86250003 2.7991945-2.36250001 1.2606444 1.61249999.4228999-.40124999 2.5172612 1.91250004-2.3078251 1.91624999.7652475-.45000002-2.2353281zm9 .1028526-1.6260991 1.2198486.0285765 1.7637356-1.6334672-.8731515-2.1607476 1.4576008.8044551-1.8474006-1.4127177-.5671361 2.3945233-.5947865 1.2781414-1.9906768.5701354 1.5271297zm-12 31 1.6260991 1.2198486-.02857649 1.7637356 1.63346722-.8731515 2.16074757 1.4576008-.8044551-1.8474006 1.4127177-.5671361-2.39452325-.5947865-1.27814146-1.9906768-.57013539 1.5271297zm13.8628318-35.8107965.4778761-1.2999072 1.6592921-1.09563607-1.3053098-.19312905v-1.03249768l-1.3716813 1.35933146-1.8451328.25998148.6504425 1.02506966-1.1283186 1.3556174 1.7876106-.8987929zm-7.0133189 1.8434324-.7668011-.2344328-1.0827118.7698304.5974962-1.0043311-.54129-.6090857 1.1903115-.355475.7578234-1.0311082.1125067.6790106.8831522-.0035132-.9765131.8864511zm.1504871 22.2884524-.6249433.6021956.2934574 1.6447496-1.0281366-1.1952465-1.0843913.5860167.3337712-1.4360488-.8897574-1.1827277 1.0211074.1830793.4788926-.955073.5263914 1.2378376zm-9.8515295-5.2533101h-1.1484705l-1.32288315 1.5002553.40682973-1.6439286-1.08394658-.6287303 1.58538124-.9807394.63030932-1.7466017.39262383 1.2184837 1.39168561-.6823085-1.02047286 1.6340094z" fill-rule="nonzero"/>
          <path d="m238.613 48.0060434-.486-3.0060434-1.695 2.4628511-3.432-.0966939 2.181 2.1756132-1.371 2.8666904 3.069-1.4788483 2.295 2.0703875-.159-3.114113 2.985-1.2797725-3.39-.5972272zm-5.122012-6.3344458.170623-1.9925005-1.55827 1.2948648-2.30967-.6150878 1.11614 1.7370905-1.405873 1.6042673 2.325724-.4466941 1.210896 1.6884733.410194-2.0085756 2.235689-.333479-2.197959-.9270318zm-2.663748-16.1062937-1.472578-2.5653039-.959781 3.65863-3.394881 1.6098975 2.69287.566724-.478052 3.1647485 2.471654-2.5553948 3.09872.87767-1.107861-2.8812651 2.322669-2.7884829zm-3.854122 8.4346961-1.731183 2.4138889-2.241935.3833333 1.370968 1.5472223-1.263441 2.6555555 2.241935-1.8333333 1.586022 1.5944444.110215-2.5555555 1.954301-1.6416667-2.05914-.1zm2.026882-17.6708861-1.815.4913694-.96-1.8204833-.8625 2.7991945-2.3625 1.2606444 1.6125.4228999-.40125 2.5172612 1.9125-2.3078251 1.91625.7652475-.45-2.2353281zm9 .1028526-1.626099 1.2198486.028576 1.7637356-1.633467-.8731515-2.160747 1.4576008.804455-1.8474006-1.412718-.5671361 2.394523-.5947865 1.278142-1.9906768.570135 1.5271297zm-12 31 1.626099 1.2198486-.028576 1.7637356 1.633467-.8731515 2.160747 1.4576008-.804455-1.8474006 1.412718-.5671361-2.394523-.5947865-1.278142-1.9906768-.570135 1.5271297zm13.862832-35.8107965.477876-1.2999072 1.659292-1.09563607-1.30531-.19312905v-1.03249768l-1.371681 1.35933146-1.845133.25998148.650443 1.02506966-1.128319 1.3556174 1.787611-.8987929zm-7.013319 1.8434324-.766801-.2344328-1.082712.7698304.597496-1.0043311-.54129-.6090857 1.190312-.355475.757823-1.0311082.112507.6790106.883152-.0035132-.976513.8864511zm.150487 22.2884524-.624943.6021956.293457 1.6447496-1.028136-1.1952465-1.084392.5860167.333771-1.4360488-.889757-1.1827277 1.021107.1830793.478893-.955073.526391 1.2378376zm-9.85153-5.2533101h-1.14847l-1.322883 1.5002553.40683-1.6439286-1.083947-.6287303 1.585381-.9807394.63031-1.7466017.392623 1.2184837 1.391686-.6823085-1.020473 1.6340094z" fill-rule="nonzero" transform="matrix(-1 0 0 1 462 0)"/>
          <g font-size="11">
            <text font-family="PingFangSC-Semibold, PingFang SC" font-weight="500">
              <tspan x="31.1955" y="33">专利申请号： PCT/CN2019/090125</tspan>
            </text>
            <text font-family="PingFangSC-Semibold, PingFang SC" font-weight="500">
              <tspan x="77" y="54">复合锅的制造方法</tspan>
            </text>
            <text font-family="PingFangSC-Regular, PingFang SC">
              <tspan x="87.5605" y="12">PCT专利申请</tspan>
            </text>
          </g>
        </g>
        <g transform="matrix(-1 0 0 1 242 1210)">
          <path d="m18.613 48.0060434-.486-3.0060434-1.695 2.4628511-3.432-.0966939 2.181 2.1756132-1.371 2.8666904 3.069-1.4788483 2.295 2.0703875-.159-3.114113 2.985-1.2797725-3.39-.5972272zm-5.1220121-6.3344458.170623-1.9925005-1.5582699 1.2948648-2.30967041-.6150878 1.11614061 1.7370905-1.40587297 1.6042673 2.32572357-.4466941 1.2108959 1.6884733.4101943-2.0085756 2.235689-.333479-2.1979591-.9270318zm-2.6637484-16.1062937-1.47257768-2.5653039-.95978067 3.65863-3.39488115 1.6098975 2.69287021.566724-.47805266 3.1647485 2.47165412-2.5553948 3.09872033.87767-1.1078611-2.8812651 2.3226691-2.7884829zm-3.85412121 8.4346961-1.73118282 2.4138889-2.24193547.3833333 1.37096773 1.5472223-1.26344083 2.6555555 2.24193547-1.8333333 1.58602149 1.5944444.11021508-2.5555555 1.95430106-1.6416667-2.05913979-.1zm2.02688171-17.6708861-1.81499999.4913694-.95999997-1.8204833-.86250003 2.7991945-2.36250001 1.2606444 1.61249999.4228999-.40124999 2.5172612 1.91250004-2.3078251 1.91624999.7652475-.45000002-2.2353281zm9 .1028526-1.6260991 1.2198486.0285765 1.7637356-1.6334672-.8731515-2.1607476 1.4576008.8044551-1.8474006-1.4127177-.5671361 2.3945233-.5947865 1.2781414-1.9906768.5701354 1.5271297zm-12 31 1.6260991 1.2198486-.02857649 1.7637356 1.63346722-.8731515 2.16074757 1.4576008-.8044551-1.8474006 1.4127177-.5671361-2.39452325-.5947865-1.27814146-1.9906768-.57013539 1.5271297zm13.8628318-35.8107965.4778761-1.2999072 1.6592921-1.09563607-1.3053098-.19312905v-1.03249768l-1.3716813 1.35933146-1.8451328.25998148.6504425 1.02506966-1.1283186 1.3556174 1.7876106-.8987929zm-7.0133189 1.8434324-.7668011-.2344328-1.0827118.7698304.5974962-1.0043311-.54129-.6090857 1.1903115-.355475.7578234-1.0311082.1125067.6790106.8831522-.0035132-.9765131.8864511zm.1504871 22.2884524-.6249433.6021956.2934574 1.6447496-1.0281366-1.1952465-1.0843913.5860167.3337712-1.4360488-.8897574-1.1827277 1.0211074.1830793.4788926-.955073.5263914 1.2378376zm-9.8515295-5.2533101h-1.1484705l-1.32288315 1.5002553.40682973-1.6439286-1.08394658-.6287303 1.58538124-.9807394.63030932-1.7466017.39262383 1.2184837 1.39168561-.6823085-1.02047286 1.6340094z" fill-rule="nonzero"/>
          <path d="m238.613 48.0060434-.486-3.0060434-1.695 2.4628511-3.432-.0966939 2.181 2.1756132-1.371 2.8666904 3.069-1.4788483 2.295 2.0703875-.159-3.114113 2.985-1.2797725-3.39-.5972272zm-5.122012-6.3344458.170623-1.9925005-1.55827 1.2948648-2.30967-.6150878 1.11614 1.7370905-1.405873 1.6042673 2.325724-.4466941 1.210896 1.6884733.410194-2.0085756 2.235689-.333479-2.197959-.9270318zm-2.663748-16.1062937-1.472578-2.5653039-.959781 3.65863-3.394881 1.6098975 2.69287.566724-.478052 3.1647485 2.471654-2.5553948 3.09872.87767-1.107861-2.8812651 2.322669-2.7884829zm-3.854122 8.4346961-1.731183 2.4138889-2.241935.3833333 1.370968 1.5472223-1.263441 2.6555555 2.241935-1.8333333 1.586022 1.5944444.110215-2.5555555 1.954301-1.6416667-2.05914-.1zm2.026882-17.6708861-1.815.4913694-.96-1.8204833-.8625 2.7991945-2.3625 1.2606444 1.6125.4228999-.40125 2.5172612 1.9125-2.3078251 1.91625.7652475-.45-2.2353281zm9 .1028526-1.626099 1.2198486.028576 1.7637356-1.633467-.8731515-2.160747 1.4576008.804455-1.8474006-1.412718-.5671361 2.394523-.5947865 1.278142-1.9906768.570135 1.5271297zm-12 31 1.626099 1.2198486-.028576 1.7637356 1.633467-.8731515 2.160747 1.4576008-.804455-1.8474006 1.412718-.5671361-2.394523-.5947865-1.278142-1.9906768-.570135 1.5271297zm13.862832-35.8107965.477876-1.2999072 1.659292-1.09563607-1.30531-.19312905v-1.03249768l-1.371681 1.35933146-1.845133.25998148.650443 1.02506966-1.128319 1.3556174 1.787611-.8987929zm-7.013319 1.8434324-.766801-.2344328-1.082712.7698304.597496-1.0043311-.54129-.6090857 1.190312-.355475.757823-1.0311082.112507.6790106.883152-.0035132-.976513.8864511zm.150487 22.2884524-.624943.6021956.293457 1.6447496-1.028136-1.1952465-1.084392.5860167.333771-1.4360488-.889757-1.1827277 1.021107.1830793.478893-.955073.526391 1.2378376zm-9.85153-5.2533101h-1.14847l-1.322883 1.5002553.40683-1.6439286-1.083947-.6287303 1.585381-.9807394.63031-1.7466017.392623 1.2184837 1.391686-.6823085-1.020473 1.6340094z" fill-rule="nonzero" transform="matrix(-1 0 0 1 462 0)"/>
          <g font-size="11">
            <text font-family="PingFangSC-Semibold, PingFang SC" font-weight="500">
              <tspan x="31.1955" y="33">专利申请号：PCT/CN 2019/090124</tspan>
            </text>
            <text font-family="PingFangSC-Semibold, PingFang SC" font-weight="500">
              <tspan x="28.5" y="54">一种电子口味包的运行方法及装置专利</tspan>
            </text>
            <text font-family="PingFangSC-Regular, PingFang SC">
              <tspan x="28.217" y="174">*专利申请含义：已递交申请，尚未授权</tspan>
            </text>
            <text font-family="PingFangSC-Regular, PingFang SC">
              <tspan x="87.5605" y="12">PCT专利申请</tspan>
            </text>
          </g>
        </g>
        <g transform="matrix(-1 0 0 1 230 919)">
          <path d="m18.613 48.0060434-.486-3.0060434-1.695 2.4628511-3.432-.0966939 2.181 2.1756132-1.371 2.8666904 3.069-1.4788483 2.295 2.0703875-.159-3.114113 2.985-1.2797725-3.39-.5972272zm-5.1220121-6.3344458.170623-1.9925005-1.5582699 1.2948648-2.30967041-.6150878 1.11614061 1.7370905-1.40587297 1.6042673 2.32572357-.4466941 1.2108959 1.6884733.4101943-2.0085756 2.235689-.333479-2.1979591-.9270318zm-2.6637484-16.1062937-1.47257768-2.5653039-.95978067 3.65863-3.39488115 1.6098975 2.69287021.566724-.47805266 3.1647485 2.47165412-2.5553948 3.09872033.87767-1.1078611-2.8812651 2.3226691-2.7884829zm-3.85412121 8.4346961-1.73118282 2.4138889-2.24193547.3833333 1.37096773 1.5472223-1.26344083 2.6555555 2.24193547-1.8333333 1.58602149 1.5944444.11021508-2.5555555 1.95430106-1.6416667-2.05913979-.1zm2.02688171-17.6708861-1.81499999.4913694-.95999997-1.8204833-.86250003 2.7991945-2.36250001 1.2606444 1.61249999.4228999-.40124999 2.5172612 1.91250004-2.3078251 1.91624999.7652475-.45000002-2.2353281zm9 .1028526-1.6260991 1.2198486.0285765 1.7637356-1.6334672-.8731515-2.1607476 1.4576008.8044551-1.8474006-1.4127177-.5671361 2.3945233-.5947865 1.2781414-1.9906768.5701354 1.5271297zm-12 31 1.6260991 1.2198486-.02857649 1.7637356 1.63346722-.8731515 2.16074757 1.4576008-.8044551-1.8474006 1.4127177-.5671361-2.39452325-.5947865-1.27814146-1.9906768-.57013539 1.5271297zm13.8628318-35.8107965.4778761-1.2999072 1.6592921-1.09563607-1.3053098-.19312905v-1.03249768l-1.3716813 1.35933146-1.8451328.25998148.6504425 1.02506966-1.1283186 1.3556174 1.7876106-.8987929zm-7.0133189 1.8434324-.7668011-.2344328-1.0827118.7698304.5974962-1.0043311-.54129-.6090857 1.1903115-.355475.7578234-1.0311082.1125067.6790106.8831522-.0035132-.9765131.8864511zm.1504871 22.2884524-.6249433.6021956.2934574 1.6447496-1.0281366-1.1952465-1.0843913.5860167.3337712-1.4360488-.8897574-1.1827277 1.0211074.1830793.4788926-.955073.5263914 1.2378376zm-9.8515295-5.2533101h-1.1484705l-1.32288315 1.5002553.40682973-1.6439286-1.08394658-.6287303 1.58538124-.9807394.63030932-1.7466017.39262383 1.2184837 1.39168561-.6823085-1.02047286 1.6340094z" fill-rule="nonzero"/>
          <path d="m218.613 48.0060434-.486-3.0060434-1.695 2.4628511-3.432-.0966939 2.181 2.1756132-1.371 2.8666904 3.069-1.4788483 2.295 2.0703875-.159-3.114113 2.985-1.2797725-3.39-.5972272zm-5.122012-6.3344458.170623-1.9925005-1.55827 1.2948648-2.30967-.6150878 1.11614 1.7370905-1.405873 1.6042673 2.325724-.4466941 1.210896 1.6884733.410194-2.0085756 2.235689-.333479-2.197959-.9270318zm-2.663748-16.1062937-1.472578-2.5653039-.959781 3.65863-3.394881 1.6098975 2.69287.566724-.478052 3.1647485 2.471654-2.5553948 3.09872.87767-1.107861-2.8812651 2.322669-2.7884829zm-3.854122 8.4346961-1.731183 2.4138889-2.241935.3833333 1.370968 1.5472223-1.263441 2.6555555 2.241935-1.8333333 1.586022 1.5944444.110215-2.5555555 1.954301-1.6416667-2.05914-.1zm2.026882-17.6708861-1.815.4913694-.96-1.8204833-.8625 2.7991945-2.3625 1.2606444 1.6125.4228999-.40125 2.5172612 1.9125-2.3078251 1.91625.7652475-.45-2.2353281zm9 .1028526-1.626099 1.2198486.028576 1.7637356-1.633467-.8731515-2.160747 1.4576008.804455-1.8474006-1.412718-.5671361 2.394523-.5947865 1.278142-1.9906768.570135 1.5271297zm-12 31 1.626099 1.2198486-.028576 1.7637356 1.633467-.8731515 2.160747 1.4576008-.804455-1.8474006 1.412718-.5671361-2.394523-.5947865-1.278142-1.9906768-.570135 1.5271297zm13.862832-35.8107965.477876-1.2999072 1.659292-1.09563607-1.30531-.19312905v-1.03249768l-1.371681 1.35933146-1.845133.25998148.650443 1.02506966-1.128319 1.3556174 1.787611-.8987929zm-7.013319 1.8434324-.766801-.2344328-1.082712.7698304.597496-1.0043311-.54129-.6090857 1.190312-.355475.757823-1.0311082.112507.6790106.883152-.0035132-.976513.8864511zm.150487 22.2884524-.624943.6021956.293457 1.6447496-1.028136-1.1952465-1.084392.5860167.333771-1.4360488-.889757-1.1827277 1.021107.1830793.478893-.955073.526391 1.2378376zm-9.85153-5.2533101h-1.14847l-1.322883 1.5002553.40683-1.6439286-1.083947-.6287303 1.585381-.9807394.63031-1.7466017.392623 1.2184837 1.391686-.6823085-1.020473 1.6340094z" fill-rule="nonzero" transform="matrix(-1 0 0 1 422 0)"/>
          <g font-size="11">
            <text font-family="PingFangSC-Semibold, PingFang SC" font-weight="500">
              <tspan x="45.9955" y="33">专利号 特效第6347854 号</tspan>
            </text>
            <text font-family="PingFangSC-Semibold, PingFang SC" font-weight="500">
              <tspan x="78" y="54">自动调料配置</tspan>
            </text>
            <text font-family="PingFangSC-Regular, PingFang SC">
              <tspan x="77.5" y="12">日本发明专利</tspan>
            </text>
          </g>
        </g>
      </g>
      <g transform="matrix(-1 0 0 1 146 36)">
        <path d="m3 0h51c1.6568542 0 3 1.34314575 3 3v11c0 1.6568542-1.3431458 3-3 3h-51c-1.65685425 0-3-1.3431458-3-3v-11c0-1.65685425 1.34314575-3 3-3z" fill="#6b574e"/>
        <text fill="#fff" font-family="PingFangSC-Semibold, PingFang SC" font-size="11" font-weight="500">
          <tspan x="7" y="12">新型专利</tspan>
        </text>
      </g>
      <g fill="#6b574e" transform="matrix(-1 0 0 1 141 0)">
        <text font-family="Oswald-Bold, Oswald" font-size="20" font-weight="bold">
          <tspan x=".68" y="24">229</tspan>
        </text>
        <text font-family="PingFangSC-Semibold, PingFang SC" font-size="11" font-weight="500">
          <tspan x="37" y="26">项</tspan>
        </text>
      </g>
    </g>
    <g transform="matrix(-1 0 0 1 173 0)">
      <text fill="#333" font-family="PingFangSC-Regular, PingFang SC" font-size="11">
        <tspan x="22" y="12">行业领先水平</tspan>
      </text>
      <g transform="translate(0 65)">
        <path d="m3 0h106c1.656854 0 3 1.34314575 3 3v16c0 1.6568542-1.343146 3-3 3h-106c-1.65685425 0-3-1.3431458-3-3v-16c0-1.65685425 1.34314575-3 3-3z" fill="#080808"/>
        <text fill="#fff" font-family="PingFangSC-Semibold, PingFang SC" font-size="12" font-weight="500">
          <tspan x="5" y="16">授权/审中专利技术</tspan>
        </text>
      </g>
      <g fill="#000" transform="translate(26 16)">
        <text font-family="Oswald-Bold, Oswald" font-size="30" font-weight="bold">
          <tspan x="0" y="36">466</tspan>
        </text>
        <text font-family="PingFangSC-Semibold, PingFang SC" font-size="11" font-weight="500">
          <tspan x="53" y="41">项</tspan>
        </text>
      </g>
    </g>
    <path d="m114 1426c-1.104569 0-2-.89543-2-2s.895431-2 2-2 2 .89543 2 2-.895431 2-2 2zm6 0c-1.104569 0-2-.89543-2-2s.895431-2 2-2 2 .89543 2 2-.895431 2-2 2zm6 0c-1.104569 0-2-.89543-2-2s.895431-2 2-2 2 .89543 2 2-.895431 2-2 2z" fill="#b78717"/>
  </g>
</svg>