<svg height="50" viewBox="0 0 50 50" width="50" xmlns="http://www.w3.org/2000/svg"><g fill="none"><path d="m49.25.75v48.5h-48.5v-48.5zm-48 .5v47.5h47.5v-47.5z"/><g fill="#fff" stroke-linecap="round" stroke-linejoin="round" transform="translate(13 9)"><path d="m-.25 14.779937c0-.1380712.11192881-.25.25-.25h24.8680793c.1380712 0 .25.1119288.25.25v15.9473684c0 .690356-.5596441 1.25-1.25 1.25h-22.8680793c-.69035595 0-1.25-.559644-1.25-1.25zm.5.25v15.6973684c0 .4142136.33578642.75.75.75h22.8680793c.4142136 0 .75-.3357864.75-.75v-15.6973684z"/><path d="m0 20.4014126h24.8680793c.1380712 0 .25-.1119288.25-.25s-.1119288-.25-.25-.25h-24.8680793c-.13807119 0-.25.1119288-.25.25s.11192881.25.25.25z"/><path d="m2.55702257 9.71858855h5.23349037v3.31869365c0 .1380712.11192881.25.25.25h12.76589926c.1380712 0 .25-.1119288.25-.25v-7.58544224c0-.13807119-.1119288-.25-.25-.25h-12.76589926c-.13807119 0-.25.11192881-.25.25s.11192881.25.25.25h12.51589926v7.08544224h-12.26589926v-3.31869365c0-.13807119-.11192881-.25-.25-.25h-5.64498646c-.09830079 0-.18747808.05760713-.22789327.14721549l-2.39552648 5.31134846c-.05676632.125862-.00075322.2739115.12510876.3306778s.27391146.0007532.33067778-.1251088z"/><path d="m7.79051294 5.45183996v4.01674859c0 .13807119.11192881.25.25.25s.25-.11192881.25-.25v-4.01674859c0-.13807119-.11192881-.25-.25-.25s-.25.11192881-.25.25z"/><path d="m24.6345667 14.8692223c.0493109.1289654.1938324.1935382.3227979.1442273.1289654-.0493109.1935382-.1938324.1442273-.3227979l-2.0308336-5.31134843c-.037008-.09678892-.1298898-.16071472-.2335126-.16071472h-2.0308335c-.1380712 0-.25.11192881-.25.25s.1119288.25.25.25h1.8587714z"/><path d="m2.53869853-.25h4.07232106c.41421356 0 .75.33578644.75.75v6.46021425c0 .41421356-.33578644.75-.75.75h-4.07232106c-.41421357 0-.75-.33578643-.75-.75v-6.46021425c0-.41421356.33578643-.75.75-.75zm0 .5c-.13807119 0-.25.11192881-.25.25v6.46021425c0 .13807119.11192881.25.25.25h4.07232106c.13807119 0 .25-.11192881.25-.25v-6.46021425c0-.13807118-.11192882-.25-.25-.25z"/><path d="m3.39835347 7.46021425v2.0083743c0 .13807119.11192881.25.25.25h1.89390115c.13807119 0 .25-.11192881.25-.25v-2.0083743c0-.13807119-.11192881-.25-.25-.25h-1.89390115c-.13807119 0-.25.11192881-.25.25zm1.89390115.25v1.5083743h-1.39390115v-1.5083743z"/></g></g></svg>