<svg height="80" viewBox="0 0 80 80" width="80" xmlns="http://www.w3.org/2000/svg"><g fill="none" fill-rule="evenodd"><path d="m.5.5h79v79h-79z" fill="#d8d8d8" opacity="0" stroke="#979797"/><g fill-rule="nonzero" transform="translate(5 5)"><path d="m0 0h70v70h-70z" fill="#000" opacity="0"/><g fill="#2cc6c0"><path d="m35.2575758 51.1868687c-7.3005051 0-13.2575758-3.9772727-13.2575758-8.8737374 0-4.8964646 5.9393939-8.5151515 13.2575758-8.5151515 7.300505 0 13.2575757 3.6186869 13.2575757 8.5151515 0 4.8964647-5.9570707 8.8737374-13.2575757 8.8737374zm0-16.1868687c-6.6464647 0-12.0378788 3.0883838-12.0378788 7.3131313 0 4.2247476 5.4090909 7.6717172 12.0378788 7.6717172 6.6464646 0 12.0378788-3.429293 12.0378788-7.6717172 0-4.2424241-5.409091-7.3131313-12.0378788-7.3131313zm-9.0505051-12.0782828c0-3.270202 3.8888889-5.9217172 8.6439394-5.9217172 4.7727273 0 8.6439394 2.6515152 8.6439394 5.9217172s-3.8712121 5.9217172-8.6439394 5.9217172-8.6439394-2.6515152-8.6439394-5.9217172zm1.2020202 0c0 2.5984848 3.3409091 4.7020202 7.4419192 4.7020202s7.4419192-2.1035354 7.4419192-4.7020202-3.3409091-4.7020202-7.4419192-4.7020202-7.4419192 2.1035354-7.4419192 4.7020202z"/><path d="m34.7979798 18.0606061c-3.2525253 0-5.7979798-1.7676768-5.7979798-4.0303031 0-2.2626262 2.5454546-4.030303 5.7979798-4.030303 3.2525251 0 5.7979798 1.7676768 5.7979798 4.030303 0 2.2626263-2.5454546 4.0303031-5.7979798 4.0303031zm0-6.8409091c-2.4747475 0-4.5782828 1.290404-4.5782828 2.810606 0 1.5202021 2.1035353 2.8106061 4.5782828 2.8106061 2.4747474 0 4.5782828-1.2904041 4.5782828-2.8106061 0-1.5202019-2.1035354-2.810606-4.5782828-2.810606z"/><path d="m33 42.4217172c0 .8651962.4615766 1.6646706 1.2108586 2.0972687.7492819.4325981 1.6724353.4325981 2.4217172 0s1.2108586-1.2320725 1.2108586-2.0972687c0-1.3374775-1.0842397-2.4217172-2.4217172-2.4217172s-2.4217172 1.0842397-2.4217172 2.4217172z"/><path d="m23.6098485 34h22.9621212c.33681 0 .6098484.2730385.6098484.6098485s-.2730384.6098485-.6098484.6098485h-22.9621212c-.33681 0-.6098485-.2730385-.6098485-.6098485s.2730385-.6098485.6098485-.6098485z"/><path d="m27 34.6414142v-6.0176768c0-.5522848.4477153-1 1-1h14.1919192c.5522847 0 1 .4477152 1 1v6.0176768zm14.9722222-1.2020202v-4.5782828h-13.7525252v4.5782828zm-7.1760836-28.439394c.4881305 0 .8838384.39570793.8838384.88383839v4.43686861c0 .4881305-.3957079.8838384-.8838384.8838384-.4881304 0-.8838384-.3957079-.8838384-.8838384v-4.43686861c0-.48813046.395708-.88383839.8838384-.88383839zm5.7972957 51.2020202h-11.1818181v-6.2171717h11.1818181zm-9.9797979-1.219697h8.760101v-3.7777778h-8.760101z"/><path d="m47.6843435 65.1641414h-25.5606061l-.0707071-.530303c-.0353535-.2828283-.0530303-.5303031-.0530303-.760101 0-4.8964647 5.780303-8.8737374 12.9040404-8.8737374s12.9040404 3.9772727 12.9040404 8.8737374c0 .2297979-.0176767.4772727-.0530303.760101zm-24.4646465-1.219697h23.3686868v-.070707c0-4.2247475-5.25-7.6717172-11.6843434-7.6717172s-11.6843434 3.4292929-11.6843434 7.6717172z"/><path d="m51.6426768 13.6641414c-.2121212 0-.3888889-.1767677-.3888889-.3888889v-2.2979798c0-.2121212.1767677-.3888889.3888889-.3888889s.3888889.1767677.3888889.3888889v2.2979798c0 .2121212-.1767677.3888889-.3888889.3888889zm-.9722222.4419192c-.1060606 0-.1944444-.0353536-.2651516-.1060606l-1.6262626-1.6262626c-.1590909-.159091-.1590909-.3888889 0-.5479799.1590909-.1590909.3888889-.1590909.5479798 0l1.6262626 1.6262627c.1590909.1590909.1590909.3888889 0 .5479798-.0883838.070707-.1767677.1060606-.2828282.1060606zm-.3535354 1.0075758h-2.2979798c-.2121212 0-.3888889-.1767677-.3888889-.3888889s.1767677-.3888889.3888889-.3888889h2.2979798c.2121212 0 .3888889.1767677.3888889.3888889s-.1767677.3888889-.3888889.3888889zm-1.1843434 2.580808c-.1060606 0-.1944445-.0353535-.2651516-.1060606-.1590909-.1590909-.1590909-.3888889 0-.5479797l1.6262627-1.6262627c.1590909-.1590909.3888889-.1590909.5479798 0 .1590909.159091.1590909.3888889 0 .5479798l-1.6262626 1.6262626c-.0883839.0707071-.1767677.1060606-.2828283.1060606zm2.6338384 1.0252526c-.2121212 0-.3888889-.1767678-.3888889-.3888889v-2.2979798c0-.2121212.1767677-.3888889.3888889-.3888889.2121211 0 .3888888.1767677.3888888.3888889v2.2979798c-.0176767.2297979-.1767677.3888889-.3888888.3888889zm2.580808-1.1136364c-.1060606 0-.1944444-.0353536-.2651515-.1060606l-1.6262626-1.6262626c-.159091-.159091-.159091-.3888889 0-.5479799.1590909-.1590909.3888889-.1590909.5479798 0l1.6262626 1.6262627c.1590909.1590909.1590909.3888889 0 .5479798-.0883838.070707-.1944444.1060606-.2828283.1060606zm1.0252525-2.6161616h-2.2979798c-.2121212 0-.3888888-.1767677-.3888888-.3888889s.1767677-.3888889.3888888-.3888889h2.2979798c.2121212 0 .3888889.1767677.3888889.3888889s-.1767677.3888889-.3888889.3888889zm-2.7398989-.9722222c-.1060606 0-.1944445-.0353536-.2651516-.1060606-.1590909-.1590909-.1590909-.3888889 0-.5479798l1.6262627-1.6262627c.1590909-.1590909.3888889-.1590909.5479798 0 .1590909.159091.1590909.3888889 0 .5479799l-1.6262626 1.6262626c-.0883839.070707-.1767677.1060606-.2828283.1060606z"/><path d="m20.0126263 4.07575762c-.2121212 0-.3888889-.17676771-.3888889-.3888889v-2.29797982c0-.21212119.1767677-.3888889.3888889-.3888889s.3888889.17676771.3888889.3888889v2.29797982c0 .21212119-.1767677.3888889-.3888889.3888889zm-.9722222.44191916c-.1060606 0-.1944445-.03535356-.2651516-.1060606l-1.6262626-1.62626263c-.1590909-.15909092-.1590909-.38888889 0-.54797982s.3888889-.15909093.5479798 0l1.6262626 1.62626263c.1590909.15909093.1590909.38888889 0 .54797982-.0883838.07070704-.1767677.1060606-.2828282.1060606zm-.3535354 1.00757576h-2.2979798c-.2121212 0-.3888889-.17676771-.3888889-.3888889s.1767677-.38888889.3888889-.38888889h2.2979798c.2121211 0 .3888888.1767677.3888888.38888889s-.1767677.3888889-.3888888.3888889zm-1.1843434 2.58080806c-.1060606 0-.1944445-.03535356-.2651516-.1060606-.1590909-.15909093-.1590909-.3888889 0-.54797976l1.6262627-1.62626262c.1590909-.15909093.3888889-.15909093.5479798 0 .1590909.15909092.1590909.38888889 0 .54797975l-1.6262626 1.62626263c-.0883839.07070704-.1767678.1060606-.2828283.1060606zm2.6338383 1.02525253c-.2121211 0-.3888889-.1767677-.3888889-.38888889v-2.29797976c0-.21212119.1767678-.38888889.3888889-.38888889.2121212 0 .3888889.1767677.3888889.38888889v2.29797976c-.0176767.22979797-.1767677.38888889-.3888889.38888889zm2.5808081-1.11363635c-.1060606 0-.1944444-.03535356-.2651515-.1060606l-1.6262627-1.62626263c-.1590909-.15909092-.1590909-.38888889 0-.54797982.159091-.15909093.3888889-.15909093.5479799 0l1.6262626 1.62626263c.1590909.15909093.1590909.38888889 0 .54797982-.0883838.07070704-.1944444.1060606-.2828283.1060606zm1.0252525-2.61616161h-2.2979798c-.2121212 0-.3888888-.17676771-.3888888-.3888889s.1767677-.3888889.3888888-.3888889h2.2979798c.2121212 0 .3888889.17676771.3888889.3888889s-.1767677.3888889-.3888889.3888889zm-2.7398989-.97222221c-.1060606 0-.1944445-.03535356-.2651516-.1060606-.1590909-.15909092-.1590909-.38888889 0-.54797982l1.6262627-1.62626263c.1590909-.15909093.3888889-.15909093.5479798 0s.1590909.3888889 0 .54797983l-1.6262626 1.62626262c-.0883839.07070704-.1767678.1060606-.2828283.1060606z"/></g></g></g></svg>