<svg height="80" viewBox="0 0 80 80" width="80" xmlns="http://www.w3.org/2000/svg"><g fill="#d8d8d8" fill-rule="evenodd"><path d="m.5.5h79v79h-79z" opacity="0" stroke="#979797"/><g fill-opacity="0" stroke="#2cc6c0" stroke-linejoin="round" transform="translate(8 11)"><path d="m14.8794643 53.8961719v-53.8961719"/><path d="m26.5680804 3.30654939v52.70708341"/><path d="m26.5680804 8.45425781c-8.1019346 11.36075349-16.95796135 19.79497219-26.5680804 25.30265629"/><path d="m14.8995536 6.88411648c-2.9540248 5.18406172-7.9205427 10.60810622-14.8995536 16.27213352"/><path d="m14.8995536 9.37605469h11.6685268"/><path d="m26.5680804 19.4067187h-11.1066594"/><path d="m26.5680804 28.1860547h-11.6685268"/><path d="m25.9966518 36.0146484h-11.0970982"/><path d="m0 44.5324833h63.7633929l-63.7633929 6.2798782"/><path d="m26.5680804 8.45425781c7.284253 21.16537459 13.9527798 31.74806189 20.0055803 31.74806189s10.0115059-6.4160467 11.8761161-19.24814"/><path d="m58.4497768 19.4067187v30.2478516"/><path d="m49.9453125 17.8525781v30.5779082"/><path d="m49.9453125 20.5467187c-2.7209821 11.4141016-6.7779018 17.1211524-12.1707589 17.1211524-5.3928572 0-13.0245536-9.8992608-22.8950893-29.69778238"/></g></g></svg>