<svg height="48" viewBox="0 0 48 48" width="48" xmlns="http://www.w3.org/2000/svg"><g fill="none" fill-rule="evenodd" stroke="#fff"><circle cx="24" cy="24" fill="none" r="23" stroke-width="2"/><path d="m10.3935565 9 7.328982-7.33203668c.3699487-.3701028.3699487-.98027229 0-1.3503751l-.0399944-.04001111c-.3699486-.37010281-.9798639-.37010281-1.3498125 0l-7.32898212 7.34203945-7.32898209-7.34203945c-.36994861-.37010281-.9798639-.37010281-1.34981252 0l-.03999445.04001111c-.37994723.37010281-.37994723.9802723 0 1.3503751l7.32898209 7.33203668-7.32898209 7.3320367c-.36994862.3701028-.36994862.9802723 0 1.3503751l.03999445.0400111c.36994862.3701028.97986391.3701028 1.34981252 0l7.32898209-7.3320367 7.32898212 7.3320367c.3699486.3701028.9798639.3701028 1.3498125 0l.0399944-.0400111c.3699487-.3701028.3699487-.9802723 0-1.3503751z" fill="#fff" fill-rule="nonzero" transform="translate(15 15)"/></g></svg>