<svg height="120" viewBox="0 0 120 120" width="120" xmlns="http://www.w3.org/2000/svg"><g fill="none" transform="translate(1 1)"><path d="m117.2.8v116.4h-116.4v-116.4zm-115.2 1.2v114h114v-114z"/><g fill="#fff" transform="translate(19.2 28.8)"><path d="m6.2.8h67.2c2.9823376 0 5.4 2.41766235 5.4 5.4v46.3999999c0 2.9823377-2.4176624 5.4-5.4 5.4h-67.2c-2.98233765 0-5.4-2.4176623-5.4-5.4v-46.3999999c0-2.98233765 2.41766235-5.4 5.4-5.4zm0 1.2c-2.31959595 0-4.2 1.88040405-4.2 4.2v46.3999999c0 2.319596 1.88040405 4.2 4.2 4.2h67.2c2.319596 0 4.2-1.880404 4.2-4.2v-46.3999999c0-2.31959595-1.880404-4.2-4.2-4.2z"/><path d="m17.7703704 12.6814815h4.237037c.9941125 0 1.8.8058874 1.8 1.8v9.9259259c0 .9941125-.8058875 1.8-1.8 1.8h-4.237037c-.9941126 0-1.8-.8058875-1.8-1.8v-9.9259259c0-.9941126.8058874-1.8 1.8-1.8zm0 1.2c-.3313709 0-.6.2686291-.6.6v9.9259259c0 .3313708.2686291.6.6.6h4.237037c.3313708 0 .6-.2686292.6-.6v-9.9259259c0-.3313709-.2686292-.6-.6-.6z"/><path d="m57.5925925 12.6814815h4.237037c.9941126 0 1.8.8058874 1.8 1.8v9.9259259c0 .9941125-.8058874 1.8-1.8 1.8h-4.237037c-.9941126 0-1.8-.8058875-1.8-1.8v-9.9259259c0-.9941126.8058874-1.8 1.8-1.8zm0 1.2c-.3313709 0-.6.2686291-.6.6v9.9259259c0 .3313708.2686291.6.6.6h4.237037c.3313709 0 .6-.2686292.6-.6v-9.9259259c0-.3313709-.2686291-.6-.6-.6z"/><path d="m1.4 20.0444444h15.1703704v-1.2h-15.1703704z"/><path d="m23.2074074 20.0444444h33.1851851v-1.2h-33.1851851z"/><path d="m63.0296295 20.0444444h15.1703705v-1.2h-15.1703705z"/><path d="m.8 34.4h78v5.7851851c0 1.6568543-1.3431458 3-3 3h-72c-1.65685429 0-3-1.3431456-3-3zm1.2 1.2v4.5851851c0 .9941126.8058874 1.8 1.8 1.8h72c.9941125 0 1.8-.8058874 1.8-1.8v-4.5851851z"/></g></g></svg>