<svg height="88" viewBox="0 0 88 88" width="88" xmlns="http://www.w3.org/2000/svg"><g fill="#d8d8d8" fill-rule="evenodd"><path d="m.5.5h87v87h-87z" opacity="0" stroke="#979797"/><g fill-opacity="0" stroke="#000" transform="translate(2 17)"><path d="m3 0h78c1.6568542 0 3 1.34314575 3 3v48c0 1.6568542-1.3431458 3-3 3h-78c-1.65685425 0-3-1.3431458-3-3v-48c0-1.65685425 1.34314575-3 3-3z"/><path d="m5 4h74c.5522847 0 1 .44771525 1 1v44c0 .5522847-.4477153 1-1 1h-74c-.55228475 0-1-.4477153-1-1v-44c0-.55228475.44771525-1 1-1z"/></g></g></svg>