<svg height="30" viewBox="0 0 30 30" width="30" xmlns="http://www.w3.org/2000/svg"><g fill="none" fill-rule="evenodd"><rect fill="#000" height="30" rx="3" width="30"/><g fill-rule="nonzero" transform="translate(3 3)"><path d="m0 0h24v24h-24z" fill="#000" opacity="0"/><path d="m14.2134432 1.41345839s-.6668472-.370428-1.8111336-.34162319c-1.1443344-.02880481-1.810152.34162319-1.810152.34162319v1.38918614h3.6212856v-1.38918687zm4.9642368 18.87853681s0-11.83384081 0-12.48209761c0-.64830481-.4095624-.86439839-.4095624-.86439839l-4.5371664-3.61391759h-3.6562553l-4.53719037 3.61391761s-.41059439.21609361-.41059439.86439839v12.48209759s-.15846719 1.8542784 1.86260639 1.8542784h3.10263957 3.6212616 3.1026397c2.0200888 0 1.8616216-1.8542784 1.8616216-1.8542784zm-1.8626055-4.4844816c0 .2037168-.1708209.370428-.3807825.370428h-2.7733046c-.2099136 0-.3797256-.1667112-.3797256-.370428v-6.12069726c0-.2057808.1698121-.37146.3797257-.37146h2.7733294c.2099616 0 .3807576.1656792.3807576.37146v6.12069816z" fill="#fff"/></g></g></svg>