<svg height="30" viewBox="0 0 31 30" width="31" xmlns="http://www.w3.org/2000/svg"><g fill="none" fill-rule="evenodd"><rect fill="#fff" height="30" rx="4" width="30" x=".5"/><g fill="#000" fill-rule="nonzero" transform="translate(6 5)"><path d="m0 0h20v20h-20z" opacity="0"/><path d="m5.19335938 1.24609375c-.28710938 0-.5078125.22070312-.5078125.5078125v1.08007813h3.59375v-1.08203126c0-.26367187-.22070313-.5078125-.5078125-.5078125.00195312.00195313-2.578125.00195313-2.578125.00195313zm9.50390622 17.46484375c.75 0 1.3671875-.5957031 1.3671875-1.3457031v-7.58593752c0-.52929688-.2871093-1.125-.6386719-1.38867188l-5.86718745-4.41015625c-.22070313-.17578125-.484375-.2421875-.79296875-.2421875h-4.1015625c-.39648438 0-.72851563.30859375-.72851563.70507813v12.96679682c0 .75.6171875 1.3457032 1.3671875 1.3457032h9.39453123zm-6.70312497-4.9394531c0 .6386719-.52929688 1.1464844-1.16796875 1.1464844-.63867188 0-1.16796876-.5078125-1.16796876-1.1464844 0-.5078125.2421875-1.1464844 1.16796876-3.0878906.92382812 1.9628906 1.16796875 2.6015625 1.16796875 3.0878906zm5.99804687-4.60937502c.3535156.26367187.3964844.72851562.1328125 1.08007812-.1542969.1992188-.375.2871094-.6171875.2871094-.1757812 0-.3300781-.0449219-.484375-.1542969l-4.19140625-3.15429687c-.35351563-.26367188-.39648437-.72851563-.1328125-1.08007813.26367187-.33007812.75-.39648438 1.10351563-.1328125z"/></g></g></svg>