<svg height="120" viewBox="0 0 120 120" width="120" xmlns="http://www.w3.org/2000/svg"><g fill="none" transform="translate(1 1)"><path d="m117.2.8v116.4h-116.4v-116.4zm-115.2 1.2v114h114v-114z"/><g fill="#fff" transform="translate(12 27.8)"><path d="m3.18823529.70905054h22.67661061c1.3016175 0 2.4547398.8393378 2.8547907 2.07795286l1.2803635 4.05868093v57.61313907h-26.81176481c-1.31898595 0-2.38823529-1.0692492-2.38823529-2.3882352v-58.97330238c0-1.31898592 1.06924936-2.38823528 2.38823529-2.38823528zm25.61207141 62.54977286.0287353-56.22872964-1.2513216-3.87427149c-.2400306-.74316904-.931904-1.24677173-1.7128745-1.24677173h-22.67661061c-.65624423 0-1.18823529.53199106-1.18823529 1.18823528v58.97330238c0 .6562443.53199102 1.1882352 1.18823529 1.1882352z"/><path d="m7.352 67.704c.96760289 0 1.752-.7843971 1.752-1.752s-.78439711-1.752-1.752-1.752-1.752.7843971-1.752 1.752.78439711 1.752 1.752 1.752zm0-1.2c-.3048612 0-.552-.2471388-.552-.552s.2471388-.552.552-.552.552.2471388.552.552-.2471388.552-.552.552z"/><path d="m24.152 67.704c.9676029 0 1.752-.7843971 1.752-1.752s-.7843971-1.752-1.752-1.752-1.752.7843971-1.752 1.752.7843971 1.752 1.752 1.752zm0-1.2c-.3048612 0-.552-.2471388-.552-.552s.2471388-.552.552-.552.552.2471388.552.552-.2471388.552-.552.552z"/><path d="m69.752 67.704c.9676029 0 1.752-.7843971 1.752-1.752s-.7843971-1.752-1.752-1.752-1.752.7843971-1.752 1.752.7843971 1.752 1.752 1.752zm0-1.2c-.3048612 0-.552-.2471388-.552-.552s.2471388-.552.552-.552.552.2471388.552.552-.2471388.552-.552.552z"/><path d="m86.552 67.704c.9676029 0 1.752-.7843971 1.752-1.752s-.7843971-1.752-1.752-1.752-1.752.7843971-1.752 1.752.7843971 1.752 1.752 1.752zm0-1.2c-.3048612 0-.552-.2471388-.552-.552s.2471388-.552.552-.552.552.2471388.552.552-.2471388.552-.552.552z"/><path d="m68.1441109.70905054h22.6676539c1.3189858 0 2.3882352 1.06924941 2.3882352 2.38823528v58.97330238c0 1.3189859-1.0692494 2.3882352-2.3882352 2.3882352h-26.8117649l.0281505-57.70115492 1.256713-3.95675033c.3956448-1.2456842 1.5522418-2.09186761 2.8592475-2.09186761zm22.6676539 62.54977286c.6562441 0 1.1882352-.531991 1.1882352-1.1882352v-58.97330238c0-.65624417-.5319911-1.18823528-1.1882352-1.18823528h-22.6676539c-.7842035 0-1.4781617.50771004-1.7155485 1.2551206l-1.2285625 3.77512382v56.31952844z"/><path d="m65.1999999 6.27058824v58.18823516h-36.3999998v-58.18823516zm-35.1999998 56.98823516h34v-55.78823516h-34z"/><path d="m35.8941176 11.1647059h22.2117648c.8251783 0 1.4941176.6689392 1.4941176 1.4941176v27.0117647c0 .8251784-.6689393 1.4941177-1.4941176 1.4941177h-22.2117648c-.8251783 0-1.4941176-.6689393-1.4941176-1.4941177v-27.0117647c0-.8251784.6689393-1.4941176 1.4941176-1.4941176zm0 1.2c-.1624366 0-.2941176.1316809-.2941176.2941176v27.0117647c0 .1624367.131681.2941177.2941176.2941177h22.2117648c.1624366 0 .2941176-.131681.2941176-.2941177v-27.0117647c0-.1624367-.131681-.2941176-.2941176-.2941176z"/><path d="m1.4 6.27058824v1.2h91.2v-1.2z"/></g></g></svg>