<svg height="30" viewBox="0 0 30 30" width="30" xmlns="http://www.w3.org/2000/svg"><g fill="none" fill-rule="evenodd"><rect fill="#fff" height="30" rx="4" width="30"/><path d="m2.59151786 10.1424556h2.91294643v6.3162868h-2.91294643c-.96526554 0-1.74776786-.7848005-1.74776786-1.7529009v-5.73198654h1.74776786zm-1.74776786-1.16860064c0-4.51780201 3.65167751-8.18020417 8.15625-8.18020417 4.5045725 0 8.15625 3.66240216 8.15625 8.18020417h-1.7477679c0-3.54970158-2.8691751-6.42730327-6.4084821-6.42730327-3.53930696 0-6.40848214 2.87760169-6.40848214 6.42730327zm16.3125 5.73198654c0 .8189511-.5599649 1.5067313-1.3168374 1.6992171.0000869 1.5570694-1.2404909 2.8012906-2.7708211 2.8012906-.0643433 0-.1281743-.0021995-.1914224-.0065278h-3.08328959c-.03534107.0025744-.07103192.003884-.10702776.003884h-1.16517857c-.80438794 0-1.45647321-.6540003-1.45647321-1.4607507s.65208527-1.4607507 1.45647321-1.4607507h1.16517857c.70326065 0 1.29010625.4998958 1.42654685 1.1647166h2.0567228c.5332278-.0438568.8344172-.4311278.8452991-.9881782h-1.5198848v-6.3162868h2.9129464v-1.16860064h1.7477679z" fill="#000" transform="translate(6 5)"/></g></svg>