<svg height="30" viewBox="0 0 30 30" width="30" xmlns="http://www.w3.org/2000/svg"><g fill="none" fill-rule="evenodd"><rect fill="#fff" height="30" rx="3" width="30"/><g fill="#000" fill-rule="nonzero" transform="translate(5 5)"><path d="m0 .019493h20v19.961014h-20z" opacity="0"/><path d="m9.99830277 19.9805031c-2.08691742.0056752-4.08939227-.8221048-5.5610941-2.2988659l-2.1372157-2.1319407c-3.06665731-3.0601249-3.06665731-8.03982812 0-11.09939859l2.13666014-2.13194062c1.47170183-1.47676118 3.47417668-2.30454111 5.56109412-2.29886568 2.10110467 0 4.07665417.81621046 5.56220527 2.29886568l2.1361045 2.13194062c1.4799746 1.46843066 2.3096122 3.46690078 2.3039114 5.54969932 0 2.09590007-.8183604 4.06759857-2.3039114 5.55025377l-2.1361045 2.1313862c-1.4719078 1.4767933-3.4745643 2.3045656-5.56164973 2.2988659zm1.94610513-12.75286041c.4602359 0 .8333308-.37236762.8333308-.83170635 0-.45933874-.3730949-.83170636-.8333308-.83170636h-3.3333231c-.46023588 0-.83333078.37236762-.83333078.83170636 0 .45933873.3730949.83170635.83333078.83170635zm1.6666616 3.32682541c.4602359 0 .8333308-.3723676.8333308-.83170633s-.3730949-.83170635-.8333308-.83170635h-6.66664628c-.46023588 0-.83333078.37236762-.83333078.83170635s.3730949.83170633.83333078.83170633zm-1.6649949 3.3268255c.4602359 0 .8333308-.3723677.8333308-.8317064s-.3730949-.8317063-.8333308-.8317063h-3.33332314c-.46023586 0-.83333074.3723676-.83333074.8317063s.37309488.8317064.83333074.8317064z"/></g></g></svg>