<svg height="30" viewBox="0 0 30 30" width="30" xmlns="http://www.w3.org/2000/svg"><g fill="none" fill-rule="evenodd"><rect fill="#fff" height="30" rx="4" width="30"/><g fill="#000" fill-rule="nonzero" transform="translate(2 2)"><path d="m0 0h26v26h-26z" opacity="0"/><path d="m6.4731875 6.469125c-1.16025 0-1.1919375 1.0830625-1.1919375 1.0830625v4.5540625c0 .9546875 1.0668125 1.1935625 1.0668125 1.1935625h.6426875c.7605 0 .6825.8766875.6825.8766875l-1.0018125 4.5621875c-.225875.820625.2819375.792307.2819375.792307h4.0145625c.424125 0 .4801875-.792307.0284375-1.2156195-.4525625-.4233125-.4639375-.8978125-.4639375-.8978125l.3778125-1.363375h.77675c.2965625 0 .4265625-.3680625.4265625-.3680625v-1.2146875c0-.3680625-.4265625-.424125-.4265625-.424125.0138125-.3680625.8344375-.7629375.8344375-.7629375h1.6713125c.8523125 0 2.7096875-1.2146875 2.7096875-1.2146875v-4.3281875c-.8458125-.7905625-2.8250625-1.272375-2.8250625-1.272375zm16.1939375 2.756h-1.5624375c-.3030625-.9790625-1.32925-1.376375-1.32925-1.376375h-1.678625c-.53625 0-.466375.5126875-.466375.5126875v3.07775c0 .466375.466375.443625.466375.443625h1.818375c.8393125-.3729375 1.1895-1.352 1.1895-1.352h1.5535c.2795 0 .4980625-.2795.4980625-.723125s-.489125-.5825625-.489125-.5825625z"/></g></g></svg>