<svg height="120" viewBox="0 0 120 120" width="120" xmlns="http://www.w3.org/2000/svg"><g fill="none" transform="translate(1 1)"><path d="m117.2.8v116.4h-116.4v-116.4zm-115.2 1.2v114h114v-114z"/><g fill="#fff" stroke-linecap="round" stroke-linejoin="round" transform="translate(28.8 19.2)"><path d="m.8 36.8718488c0-.3313708.26862915-.6.6-.6h59.6833903c.3313709 0 .6.2686292.6.6v38.2736842c0 1.6568543-1.3431458 3-3 3h-54.8833903c-1.65685429 0-3-1.3431457-3-3zm1.2.6v37.6736842c0 .9941126.8058874 1.8 1.8 1.8h54.8833903c.9941125 0 1.8-.8058875 1.8-1.8v-37.6736842z"/><path d="m1.4 50.3633902h59.6833903c.3313709 0 .6-.2686291.6-.6 0-.3313708-.2686291-.6-.6-.6h-59.6833903c-.33137085 0-.6.2686292-.6.6 0 .3313709.26862915.6.6.6z"/><path d="m7.53685416 24.7246125h12.56037694v7.9648648c0 .3313708.2686291.6.6.6h30.6381582c.3313708 0 .6-.2686292.6-.6v-18.2050614c0-.3313708-.2686292-.6-.6-.6h-30.6381582c-.3313709 0-.6.2686292-.6.6 0 .3313709.2686291.6.6.6h30.0381582v17.0050614h-29.4381582v-7.9648648c0-.3313708-.2686292-.6-.6-.6h-13.54796755c-.2359219 0-.44994738.1382571-.54694385.3533172l-5.74926355 12.7472363c-.13623917.3020687-.00180773.6573875.30026102.7936267.30206875.1362391.65738752.0018077.79362668-.3002611z"/><path d="m20.0972311 14.4844159v9.6401966c0 .3313709.2686291.6.6.6.3313708 0 .6-.2686291.6-.6v-9.6401966c0-.3313708-.2686292-.6-.6-.6-.3313709 0-.6.2686292-.6.6z"/><path d="m60.5229601 37.0861335c.1183461.3095171.4651978.4644917.7747149.3461456.3095171-.1183462.4644917-.4651979.3461456-.774715l-4.8740007-12.7472363c-.0888191-.2322934-.3117355-.3857153-.5604302-.3857153h-4.8740004c-.3313709 0-.6.2686292-.6.6 0 .3313709.2686291.6.6.6h4.4610512z"/><path d="m7.49287647.8h9.77357053c.9941126 0 1.8.80588745 1.8 1.8v15.5045142c0 .9941126-.8058874 1.8-1.8 1.8h-9.77357053c-.99411256 0-1.8-.8058874-1.8-1.8v-15.5045142c0-.99411255.80588744-1.8 1.8-1.8zm0 1.2c-.33137086 0-.6.26862914-.6.6v15.5045142c0 .3313709.26862914.6.6.6h9.77357053c.3313709 0 .6-.2686291.6-.6v-15.5045142c0-.33137085-.2686291-.6-.6-.6z"/><path d="m9.55604833 19.3045142v4.8200983c0 .3313709.26862915.6.59999997.6h4.5453628c.3313708 0 .6-.2686291.6-.6v-4.8200983c0-.3313708-.2686292-.6-.6-.6h-4.5453628c-.33137082 0-.59999997.2686292-.59999997.6zm4.54536277.6v3.6200983h-3.3453628v-3.6200983z"/></g></g></svg>