<svg height="30" viewBox="0 0 30 30" width="30" xmlns="http://www.w3.org/2000/svg"><g fill="none" fill-rule="evenodd"><rect fill="#fff" height="30" rx="4" width="30"/><path d="m16.6295722 16.7424572-1.3249665-1.3408419c.2950021-.4298692.4679049-.9520181.4679049-1.5150344 0-1.2864752-.9027403-2.3595778-2.102134-2.605959v-5.24483264c.3378814-.023911.6882628-.03578926 1.051067-.03578926 3.3403908 0 5.4404103 1.83340163 6.3000586 5.5002049.1434376.6118284.4191034 1.1838751.8071595 1.6749825l.9636762 1.2195719c.0597465.0756116.1078277.1599476.1426065.2501368.1901545.4931117-.0507079 1.0488554-.5379813 1.2412883l-.6643719.2623722c-.3227162.1274463-.535169.442137-.535169.7927065v1.1156951c0 .9513279-.6241408 1.7870076-1.5285313 2.0465934l-1.5761518.4524004c-.6048436.1736074-1.0222603.7324982-1.0222603 1.3687329v.5434848c0 .2937218-.2352894.5318303-.5255335.5318303h-5.7771953c-.2902047 0-.5254621-.2380762-.5255335-.531758v-2.4691027c0-1.8326037-3.2422165-2.5220625-3.2422165-6.5972034 0-4.32125087 1.91660164-6.64962175 5.6193096-7.24634837v5.12503437c-1.1993938.2463812-2.1021341 1.3194838-2.1021341 2.605959 0 1.4686089 1.1764469 2.6591516 2.6276676 2.6591516.514698 0 .9948329-.1497556 1.4001787-.4085589l1.3782466 1.3947604c-.0152274.0720637-.023242.1468331-.023242.2234967 0 .5874436.4705788 1.0636606 1.051067 1.0636606.5804883 0 1.0510671-.476217 1.0510671-1.0636606s-.4705788-1.0636607-1.0510671-1.0636607c-.1121425 0-.220183.0177729-.3215212.0506872zm-3.4847291-1.2603854c-.8707325 0-1.5766006-.7143256-1.5766006-1.5954909 0-.8811654.7058681-1.595491 1.5766006-1.595491.8707324 0 1.5766005.7143256 1.5766005 1.595491 0 .8811653-.7058681 1.5954909-1.5766005 1.5954909z" fill="#000"/></g></svg>