<svg height="30" viewBox="0 0 30 30" width="30" xmlns="http://www.w3.org/2000/svg"><g fill="none" fill-rule="evenodd"><rect fill="#fff" height="30" rx="3" width="30"/><g fill="#000" fill-rule="nonzero" transform="translate(4 4)"><path d="m0 0h22v22h-22z" opacity="0"/><path d="m11.6680988 13.5424275v-5.90118153c0-.35875402-.292159-.65091299-.650913-.65091299h-.0515574c-.3501612 0-.631579.28356606-.631579.63157894v5.92051558c-.97099891.2814178-1.68206228 1.1493018-1.68206228 2.1847476 0 1.2653061 1.05048334 2.2900107 2.35016108 2.2900107 1.2975296 0 2.3480129-1.0268528 2.3480129-2.2900107-.0021482-1.0354458-.7132116-1.9011815-1.6820623-2.1847476zm3.4564984-2.6143931c-.1460795-.1203008-.2320086-.2835661-.2320086-.4511278v-6.67239532c0-2.09881847-1.7465091-3.80451128-3.8925886-3.80451128-2.14607948 0-3.89258861 1.70569281-3.89258861 3.80451128v6.48335122c0 .2814178-.1160043.5413534-.31578948.7110634-1.40708915 1.1879699-2.21267453 2.9129968-2.21267453 4.7303974 0 3.4564984 2.88077337 6.2706767 6.42320082 6.2706767 3.5424275 0 6.4232009-2.8120301 6.4232009-6.2706767-.0021482-1.8603652-.839957-3.6111708-2.3007519-4.8012889zm-4.1245972 9.0805585c-2.42749732 0-4.39957036-1.9205156-4.39957036-4.2814178 0-1.471536.76906552-2.8249194 2.05585392-3.6176155l.31149302-.1911922c.1009667-.0622987.1632653-.1740065.1632653-.292159v-7.82169712c0-1.00107412.83995704-1.81525242 1.87110632-1.81525242 1.0311493 0 1.8711064.8141783 1.8711064 1.81525242v7.82169712c0 .1181525.0622986.2298603.1632653.292159l.311493.1911922c1.2867884.7926961 2.0537057 2.1439313 2.0537057 3.6176155-.0021482 2.3609022-1.9763695 4.2814178-4.4017186 4.2814178z"/></g></g></svg>