<svg height="50" viewBox="0 0 50 50" width="50" xmlns="http://www.w3.org/2000/svg"><g fill="none"><path d="m49.25.75v48.5h-48.5v-48.5zm-48 .5v47.5h47.5v-47.5z"/><g fill="#000" transform="translate(15.4 9.64)"><path d="m1.92-.25h15.36c1.1984579 0 2.17.97154209 2.17 2.17v26.88c0 1.1984579-.9715421 2.17-2.17 2.17h-15.36c-1.19845791 0-2.17-.9715421-2.17-2.17v-26.88c0-1.19845791.97154209-2.17 2.17-2.17zm0 .5c-.92231553 0-1.67.74768447-1.67 1.67v26.88c0 .9223155.74768447 1.67 1.67 1.67h15.36c.9223155 0 1.67-.7476845 1.67-1.67v-26.88c0-.92231553-.7476845-1.67-1.67-1.67z"/><path d="m0 1.89025467h19.2v-.5h-19.2z"/><path d="m0 26.17h19.2v-.5h-19.2z"/><path d="m9.6 20.41c4.3796181 0 7.93-3.5503819 7.93-7.93 0-4.37961807-3.5503819-7.93-7.93-7.93-4.37961807 0-7.93 3.55038193-7.93 7.93 0 4.3796181 3.55038193 7.93 7.93 7.93zm0-.5c-4.10347569 0-7.43-3.3265243-7.43-7.43 0-4.10347569 3.32652431-7.43 7.43-7.43 4.1034757 0 7.43 3.32652431 7.43 7.43 0 4.1034757-3.3265243 7.43-7.43 7.43z"/><path d="m7.92 27.11h3.36c.2706195 0 .49.2193805.49.49v.96c0 .2706195-.2193805.49-.49.49h-3.36c-.27061953 0-.49-.2193805-.49-.49v-.96c0-.2706195.21938047-.49.49-.49zm.01 1.44h3.34v-.94h-3.34z"/></g></g></svg>