<svg height="50" viewBox="0 0 50 50" width="50" xmlns="http://www.w3.org/2000/svg"><g fill="none"><path d="m49.25.75v48.5h-48.5v-48.5zm-48 .5v47.5h47.5v-47.5z"/><g fill="#000" transform="translate(11 11)"><path d="m1.89830508-.25h23.72881352c1.1864762 0 2.1483051.96182895 2.1483051 2.14830508v24.20338982c0 1.1864762-.9618289 2.1483051-2.1483051 2.1483051h-23.72881352c-1.18647613 0-2.14830508-.9618289-2.14830508-2.1483051v-24.20338982c0-1.18647613.96182895-2.14830508 2.14830508-2.14830508zm0 .5c-.91033376 0-1.64830508.73797132-1.64830508 1.64830508v24.20338982c0 .9103338.73797132 1.6483051 1.64830508 1.6483051h23.72881352c.9103338 0 1.6483051-.7379713 1.6483051-1.6483051v-24.20338982c0-.91033376-.7379713-1.64830508-1.6483051-1.64830508z"/><path d="m0 2.14830508h27.5254237v-.5h-27.5254237z"/><path d="m13.7627119 24.9279661c5.6421972 0 10.2161017-4.5739045 10.2161017-10.2161017 0-5.64219717-4.5739045-10.21610169-10.2161017-10.21610169-5.64219717 0-10.21610169 4.57390452-10.21610169 10.21610169 0 5.6421972 4.57390452 10.2161017 10.21610169 10.2161017zm0-.5c-5.36605479 0-9.71610169-4.3500469-9.71610169-9.7161017 0-5.36605479 4.3500469-9.71610169 9.71610169-9.71610169 5.3660548 0 9.7161017 4.3500469 9.7161017 9.71610169 0 5.3660548-4.3500469 9.7161017-9.7161017 9.7161017z"/><path d="m13.7627119 23.029661c4.5937922 0 8.3177966-3.7240044 8.3177966-8.3177966s-3.7240044-8.31779661-8.3177966-8.31779661c-4.59379222 0-8.31779661 3.72400441-8.31779661 8.31779661s3.72400439 8.3177966 8.31779661 8.3177966zm0-.5c-4.31764984 0-7.81779661-3.5001468-7.81779661-7.8177966s3.50014677-7.81779661 7.81779661-7.81779661c4.3176498 0 7.8177966 3.50014681 7.8177966 7.81779661s-3.5001468 7.8177966-7.8177966 7.8177966z"/></g></g></svg>