<svg height="50" viewBox="0 0 50 50" width="50" xmlns="http://www.w3.org/2000/svg"><g fill="none"><path d="m49.25.75v48.5h-48.5v-48.5zm-48 .5v47.5h47.5v-47.5z"/><g fill="#000" transform="translate(10.6 9.8)"><path d="m2.02666667-.25h24.31999993c1.2573683 0 2.2766667 1.01929839 2.2766667 2.27666667v26.34666663c0 1.2573683-1.0192984 2.2766667-2.2766667 2.2766667h-24.31999993c-1.25736828 0-2.27666667-1.0192984-2.27666667-2.2766667v-26.34666663c0-1.20497794.93612647-2.19131182 2.12079209-2.27141434zm0 .5-.14571429.0058896c-.91306709.07411894-1.63095238.83861246-1.63095238 1.77077707v26.34666663c0 .9812259.79544076 1.7766667 1.77666667 1.7766667h24.31999993c.9812259 0 1.7766667-.7954408 1.7766667-1.7766667v-26.34666663c0-.98122591-.7954408-1.77666667-1.7766667-1.77666667z"/><path d="m0 25.0766667h28.3733333v-.5h-28.3733333z"/><path d="m6.33333333 1.77666667h19.75999997c.2779834 0 .5033334.22534998.5033334.50333333v4.56c0 .27798335-.22535.50333333-.5033334.50333333h-19.75999997c-.27798332 0-.50333333-.22535-.50333333-.50333333v-4.56c0-.27798333.22535001-.50333333.50333333-.50333333zm19.75999997.5-19.76235699.00097631v4.56471404h19.76471409l.0009763-4.56235702z"/><path d="m6.33333333 8.36333333h19.75999997c.2779834 0 .5033334.22534999.5033334.50333334v4.56000003c0 .2779833-.22535.5033333-.5033334.5033333h-19.75999997c-.27798331 0-.50333333-.22535-.50333333-.5033333v-4.56000003c0-.27798332.22535001-.50333334.50333333-.50333334zm19.75999997.5-19.76235699.00097631v4.56471406h19.76471409l.0009763-4.56235703z"/><path d="m6.33333333 14.95h19.75999997c.2779834 0 .5033334.22535.5033334.5033333v7.6c0 .2779834-.22535.5033334-.5033334.5033334h-19.75999997c-.27798334 0-.50333333-.22535-.50333333-.5033334v-7.6c0-.2779833.22535002-.5033333.50333333-.5033333zm19.75999997.5-19.76235699.0009763v7.6047141h19.76471409l.0009763-7.6023571z"/><path d="m2.28 2.79h1.52000001c.27798332 0 .50333333.22535001.50333333.50333333v2.53333334c0 .27798332-.22535001.50333333-.50333333.50333333h-1.52000001c-.27798332 0-.50333333-.22535001-.50333333-.50333333v-2.53333334c0-.27798332.22535001-.50333333.50333333-.50333333zm1.52000001.5-1.52235703.00097631v2.53804738h1.52471405l.00097631-2.53569036z"/></g></g></svg>