<svg height="50" viewBox="0 0 50 50" width="50" xmlns="http://www.w3.org/2000/svg"><g fill="none"><path d="m49.25.75v48.5h-48.5v-48.5zm-48 .5v47.5h47.5v-47.5z"/><g fill="#000" transform="translate(11.4 10.6)"><path d="m2.26666667-.25h22.66666663c1.3899167 0 2.5166667 1.12675005 2.5166667 2.51666667v24.47999993c0 1.3899167-1.12675 2.5166667-2.5166667 2.5166667h-22.66666663c-1.38991662 0-2.51666667-1.12675-2.51666667-2.5166667v-24.47999993c0-1.33431996 1.03841284-2.4261056 2.35119514-2.51131354zm0 .5-.1505062.00553145c-1.0434837.07698539-1.86616047.94798707-1.86616047 2.01113522v24.47999993c0 1.1137743.90289242 2.0166667 2.01666667 2.0166667h22.66666663c1.1137743 0 2.0166667-.9028924 2.0166667-2.0166667v-24.47999993c0-1.11377425-.9028924-2.01666667-2.0166667-2.01666667z"/><path d="m0 2.51666667h27.2v-.5h-27.2z"/><path d="m11.6 26.8766667c5.1086339 0 9.25-4.1413661 9.25-9.25s-4.1413661-9.25-9.25-9.25c-5.10863394 0-9.25 4.1413661-9.25 9.25s4.14136606 9.25 9.25 9.25zm0-.5c-4.83249156 0-8.75-3.9175084-8.75-8.75s3.91750844-8.75 8.75-8.75c4.8324916 0 8.75 3.9175084 8.75 8.75s-3.9175084 8.75-8.75 8.75z"/><path d="m21.6 10.65c1.7949254 0 3.25-1.45507456 3.25-3.25s-1.4550746-3.25-3.25-3.25-3.25 1.45507456-3.25 3.25 1.4550746 3.25 3.25 3.25zm0-.5c-1.5187831 0-2.75-1.23121694-2.75-2.75s1.2312169-2.75 2.75-2.75 2.75 1.23121694 2.75 2.75-1.2312169 2.75-2.75 2.75z"/></g></g></svg>