<svg height="50" viewBox="0 0 50 50" width="50" xmlns="http://www.w3.org/2000/svg"><g fill="none"><path d="m49.25.75v48.5h-48.5v-48.5zm-48 .5v47.5h47.5v-47.5z"/><g fill="#000" transform="translate(11.4 10.6)"><path d="m2.26666667-.25h22.66666663c1.3899167 0 2.5166667 1.12675005 2.5166667 2.51666667v24.47999993c0 1.3899167-1.12675 2.5166667-2.5166667 2.5166667h-22.66666663c-1.38991662 0-2.51666667-1.12675-2.51666667-2.5166667v-24.47999993c0-1.33431996 1.03841284-2.4261056 2.35119514-2.51131354zm0 .5-.1505062.00553145c-1.0434837.07698539-1.86616047.94798707-1.86616047 2.01113522v24.47999993c0 1.1137743.90289242 2.0166667 2.01666667 2.0166667h22.66666663c1.1137743 0 2.0166667-.9028924 2.0166667-2.0166667v-24.47999993c0-1.11377425-.9028924-2.01666667-2.0166667-2.01666667z"/><path d="m0 2.51666667h27.2v-.5h-27.2z"/><path d="m13.6 22.01c4.8950838 0 8.8633333-3.9682495 8.8633333-8.8633333 0-4.89508383-3.9682495-8.86333333-8.8633333-8.86333333-4.89508383 0-8.86333333 3.9682495-8.86333333 8.86333333 0 4.8950838 3.9682495 8.8633333 8.86333333 8.8633333zm0-.5c-4.61894146 0-8.36333333-3.7443918-8.36333333-8.3633333 0-4.61894146 3.74439187-8.36333333 8.36333333-8.36333333 4.6189415 0 8.3633333 3.74439187 8.3633333 8.36333333 0 4.6189415-3.7443918 8.3633333-8.3633333 8.3633333z"/><path d="m24.73 2.01666667v22.26000003h-22.26v-22.26000003zm-21.76.5v21.26000003h21.26v-21.26000003z"/></g></g></svg>