<svg height="50" viewBox="0 0 50 50" width="50" xmlns="http://www.w3.org/2000/svg"><g fill="none"><path d="m49.25.75v48.5h-48.5v-48.5zm-48 .5v47.5h47.5v-47.5z"/><g fill="#000" transform="translate(8.68 10.12)"><path d="m10.56 3.11h12c.9333612 0 1.69.75663877 1.69 1.69v16.32c0 .9333612-.7566388 1.69-1.69 1.69h-12c-.93336123 0-1.69-.7566388-1.69-1.69v-16.32c0-.93336123.75663877-1.69 1.69-1.69zm0 .5c-.65721885 0-1.19.53278115-1.19 1.19v16.32c0 .6572189.53278115 1.19 1.19 1.19h12c.6572189 0 1.19-.5327811 1.19-1.19v-16.32c0-.65721885-.5327811-1.19-1.19-1.19z"/><path d="m14.4 1.67h4.32c.4031679 0 .73.32683213.73.73v.48c0 .40316787-.3268321.73-.73.73h-4.32c-.4031679 0-.73-.32683213-.73-.73v-.48c0-.40316787.3268321-.73.73-.73zm0 .5c-.1270255 0-.23.10297451-.23.23v.48c0 .12702549.1029745.23.23.23h4.32c.1270255 0 .23-.10297451.23-.23v-.48c0-.12702549-.1029745-.23-.23-.23z"/><path d="m1.92-.25h4.8c.66826455 0 1.21.54173545 1.21 1.21v1.92c0 .66826455-.54173545 1.21-1.21 1.21h-4.8c-.66826455 0-1.21-.54173545-1.21-1.21v-1.92c0-.66826455.54173545-1.21 1.21-1.21zm0 .5c-.39212217 0-.71.31787783-.71.71v1.92c0 .39212217.31787783.71.71.71h4.8c.39212217 0 .71-.31787783.71-.71v-1.92c0-.39212217-.31787783-.71-.71-.71z"/><path d="m7.93 21.6c0 1.1874122.96258779 2.15 2.15 2.15h12.96c1.1874122 0 2.15-.9625878 2.15-2.15v-16.57h5.53c1.4635546 0 2.65 1.18644541 2.65 2.65v19.2c0 1.4635546-1.1864454 2.65-2.65 2.65h-28.32c-1.46355459 0-2.65-1.1864454-2.65-2.65v-19.2c0-1.46355459 1.18644541-2.65 2.65-2.65h5.53zm17.76 0c0 1.4635546-1.1864454 2.65-2.65 2.65h-12.96c-1.46355459 0-2.65-1.1864454-2.65-2.65v-16.07h-5.03c-1.18741221 0-2.15.96258779-2.15 2.15v19.2c0 1.1874122.96258779 2.15 2.15 2.15h28.32c1.1874122 0 2.15-.9625878 2.15-2.15v-19.2c0-1.18741221-.9625878-2.15-2.15-2.15h-5.03z"/><path d="m4.07 3.84v1.44h.5v-1.44z"/><path d="m28.32 7.43h.96c.9333612 0 1.69.75663877 1.69 1.69v5.28c0 .9333612-.7566388 1.69-1.69 1.69h-.96c-.9333612 0-1.69-.7566388-1.69-1.69v-5.28c0-.93336123.7566388-1.69 1.69-1.69zm0 .5c-.6572189 0-1.19.53278115-1.19 1.19v5.28c0 .6572189.5327811 1.19 1.19 1.19h.96c.6572189 0 1.19-.5327811 1.19-1.19v-5.28c0-.65721885-.5327811-1.19-1.19-1.19z"/><path d="m4.56 10.13c.69035594 0 1.25-.55964406 1.25-1.25s-.55964406-1.25-1.25-1.25-1.25.55964406-1.25 1.25.55964406 1.25 1.25 1.25zm0-.5c-.41421356 0-.75-.33578644-.75-.75s.33578644-.75.75-.75.75.33578644.75.75-.33578644.75-.75.75z"/><path d="m4.56 12.05c.69035594 0 1.25-.5596441 1.25-1.25s-.55964406-1.25-1.25-1.25-1.25.5596441-1.25 1.25.55964406 1.25 1.25 1.25zm0-.5c-.41421356 0-.75-.3357864-.75-.75s.33578644-.75.75-.75.75.3357864.75.75-.33578644.75-.75.75z"/><path d="m4.56 13.97c.69035594 0 1.25-.5596441 1.25-1.25s-.55964406-1.25-1.25-1.25-1.25.5596441-1.25 1.25.55964406 1.25 1.25 1.25zm0-.5c-.41421356 0-.75-.3357864-.75-.75s.33578644-.75.75-.75.75.3357864.75.75-.33578644.75-.75.75z"/><path d="m7.68 31.01c.69035594 0 1.25-.5596441 1.25-1.25s-.55964406-1.25-1.25-1.25-1.25.5596441-1.25 1.25.55964406 1.25 1.25 1.25zm0-.5c-.41421356 0-.75-.3357864-.75-.75s.33578644-.75.75-.75.75.3357864.75.75-.33578644.75-.75.75z"/><path d="m25.44 31.01c.6903559 0 1.25-.5596441 1.25-1.25s-.5596441-1.25-1.25-1.25-1.25.5596441-1.25 1.25.5596441 1.25 1.25 1.25zm0-.5c-.4142136 0-.75-.3357864-.75-.75s.3357864-.75.75-.75.75.3357864.75.75-.3357864.75-.75.75z"/></g></g></svg>