<svg height="50" viewBox="0 0 50 50" width="50" xmlns="http://www.w3.org/2000/svg"><g fill="none"><path d="m49.25.75v48.5h-48.5v-48.5zm-48 .5v47.5h47.5v-47.5z"/><g fill="#000" transform="translate(7.4 14.6)"><path d="m2.07058824-.25h31.05882356c1.2816255 0 2.3205882 1.03896274 2.3205882 2.32058824v16.15058826c0 1.2816255-1.0389627 2.3205882-2.3205882 2.3205882h-31.05882356c-1.2816255 0-2.32058824-1.0389627-2.32058824-2.3205882v-16.15058826c0-1.22822443.95418627-2.23358672 2.16170652-2.31523458zm0 .5-.14931654.0060352c-.93563933.07595126-1.6712717.85934408-1.6712717 1.81455304v16.15058826c0 1.0054831.81510512 1.8205882 1.82058824 1.8205882h31.05882356c1.0054831 0 1.8205882-.8151051 1.8205882-1.8205882v-16.15058826c0-1.00548312-.8151051-1.82058824-1.8205882-1.82058824z"/><path d="m28.7382353 0v20.2917647h.5v-20.2917647z"/><path d="m31.2658824 3.06294118h1.6564705c.2524267 0 .4570589.20463218.4570589.45705882v4.55529412c0 .25242664-.2046322.45705882-.4570589.45705882h-1.6564705c-.2524267 0-.4570589-.20463218-.4570589-.45705882v-4.55529412c0-.25242664.2046322-.45705882.4570589-.45705882zm.0429411 4.96941176h1.5705883v-4.46941176h-1.5705883z"/><path d="m3.52 3.06294118h21.9482353c.2524266 0 .4570588.20463221.4570588.45705882v5.38352941c0 .25242661-.2046322.45705883-.4570588.45705883h-21.9482353c-.25242662 0-.45705882-.20463221-.45705882-.45705883v-5.38352941c0-.25242662.2046322-.45705882.45705882-.45705882zm.04294118.5v5.29764706h21.86235292v-5.29764706z"/><path d="m3.52 10.9311765h21.9482353c.2524266 0 .4570588.2046322.4570588.4570588v5.3835294c0 .2524266-.2046322.4570588-.4570588.4570588h-21.9482353c-.25242661 0-.45705882-.2046322-.45705882-.4570588v-5.3835294c0-.2524266.20463221-.4570588.45705882-.4570588zm.04294118.5v5.297647h21.86235292v-5.297647z"/></g></g></svg>