<svg height="50" viewBox="0 0 50 50" width="50" xmlns="http://www.w3.org/2000/svg"><g fill="none"><path d="m49.25.75v48.5h-48.5v-48.5zm-48 .5v47.5h47.5v-47.5z"/><g fill="#000" transform="translate(13.8 8.2)"><path d="m2.16774194-.25h18.96774196c1.335282 0 2.4177419 1.08245994 2.4177419 2.41774194v29.26451616c0 1.335282-1.0824599 2.4177419-2.4177419 2.4177419h-18.96774196c-1.335282 0-2.41774194-1.0824599-2.41774194-2.4177419v-29.26451616c0-1.335282 1.08245994-2.41774194 2.41774194-2.41774194zm0 .5c-1.05913963 0-1.91774194.85860231-1.91774194 1.91774194v29.26451616c0 1.0591396.85860231 1.9177419 1.91774194 1.9177419h18.96774196c1.0591396 0 1.9177419-.8586023 1.9177419-1.9177419v-29.26451616c0-1.05913963-.8586023-1.91774194-1.9177419-1.91774194z"/><path d="m0 24.6370968h23.3032258v-.5h-23.3032258z"/><path d="m16.55 0v24.3870968h.5v-24.3870968z"/><path d="m3.74134203 8.86830214v6.66489796h.5v-6.66489796z"/><path d="m19.2387096 3.54354839h1.6258065c.2877225 0 .5209677.2332452.5209677.52096774v3.25161291c0 .28772254-.2332452.52096774-.5209677.52096774h-1.6258065c-.2877225 0-.5209677-.2332452-.5209677-.52096774v-3.25161291c0-.28772254.2332452-.52096774.5209677-.52096774zm0 .5c-.0115801 0-.0209677.00938758-.0209677.02096774v3.25161291c0 .01158016.0093876.02096774.0209677.02096774h1.6258065c.0115802 0 .0209677-.00938758.0209677-.02096774v-3.25161291c0-.01158016-.0093875-.02096774-.0209677-.02096774z"/></g></g></svg>