<svg height="50" viewBox="0 0 50 50" width="50" xmlns="http://www.w3.org/2000/svg"><g fill="none"><path d="m49.25.75v48.5h-48.5v-48.5zm-48 .5v47.5h47.5v-47.5z"/><g fill="#000" transform="translate(13 10)"><path d="m1.93548387-.25h20.32258063c1.2070094 0 2.1854839.97847446 2.1854839 2.18548387v26.12903223c0 1.2070094-.9784745 2.1854839-2.1854839 2.1854839h-20.32258063c-1.20700941 0-2.18548387-.9784745-2.18548387-2.1854839v-26.12903223c0-1.15453074.89523939-2.09996712 2.02940554-2.1799965zm0 .5-.14543.00618673c-.86278004.07373485-1.54005387.7974231-1.54005387 1.67929714v26.12903223c0 .9308671.75461683 1.6854839 1.68548387 1.6854839h20.32258063c.9308671 0 1.6854839-.7546168 1.6854839-1.6854839v-26.12903223c0-.93086704-.7546168-1.68548387-1.6854839-1.68548387z"/><path d="m0 2.59107044h24.1935484v-.5h-24.1935484z"/><path d="m0 25.8951613h24.1935484v-.5h-24.1935484z"/><path d="m6.77419355 9.92741936c1.74147853 0 3.15322581-1.41174728 3.15322581-3.15322581s-1.41174728-3.15322581-3.15322581-3.15322581-3.15322581 1.41174728-3.15322581 3.15322581 1.41174728 3.15322581 3.15322581 3.15322581zm0-.5c-1.46533615 0-2.65322581-1.18788966-2.65322581-2.65322581s1.18788966-2.65322581 2.65322581-2.65322581 2.65322581 1.18788966 2.65322581 2.65322581-1.18788966 2.65322581-2.65322581 2.65322581z"/><path d="m17.4193548 9.92741936c1.7414785 0 3.1532258-1.41174728 3.1532258-3.15322581s-1.4117473-3.15322581-3.1532258-3.15322581-3.1532258 1.41174728-3.1532258 3.15322581 1.4117473 3.15322581 3.1532258 3.15322581zm0-.5c-1.4653362 0-2.6532258-1.18788966-2.6532258-2.65322581s1.1878896-2.65322581 2.6532258-2.65322581 2.6532258 1.18788966 2.6532258 2.65322581-1.1878896 2.65322581-2.6532258 2.65322581z"/><path d="m6.77419355 17.1854839c1.74147853 0 3.15322581-1.4117473 3.15322581-3.1532258s-1.41174728-3.1532258-3.15322581-3.1532258-3.15322581 1.4117473-3.15322581 3.1532258 1.41174728 3.1532258 3.15322581 3.1532258zm0-.5c-1.46533615 0-2.65322581-1.1878896-2.65322581-2.6532258s1.18788966-2.6532258 2.65322581-2.6532258 2.65322581 1.1878896 2.65322581 2.6532258-1.18788966 2.6532258-2.65322581 2.6532258z"/><path d="m17.4193548 17.1854839c1.7414785 0 3.1532258-1.4117473 3.1532258-3.1532258s-1.4117473-3.1532258-3.1532258-3.1532258-3.1532258 1.4117473-3.1532258 3.1532258 1.4117473 3.1532258 3.1532258 3.1532258zm0-.5c-1.4653362 0-2.6532258-1.1878896-2.6532258-2.6532258s1.1878896-2.6532258 2.6532258-2.6532258 2.6532258 1.1878896 2.6532258 2.6532258-1.1878896 2.6532258-2.6532258 2.6532258z"/><path d="m6.77419355 24.4435484c1.74147853 0 3.15322581-1.4117473 3.15322581-3.1532258s-1.41174728-3.1532258-3.15322581-3.1532258-3.15322581 1.4117473-3.15322581 3.1532258 1.41174728 3.1532258 3.15322581 3.1532258zm0-.5c-1.46533615 0-2.65322581-1.1878896-2.65322581-2.6532258s1.18788966-2.6532258 2.65322581-2.6532258 2.65322581 1.1878896 2.65322581 2.6532258-1.18788966 2.6532258-2.65322581 2.6532258z"/><path d="m17.4193548 24.4435484c1.7414785 0 3.1532258-1.4117473 3.1532258-3.1532258s-1.4117473-3.1532258-3.1532258-3.1532258-3.1532258 1.4117473-3.1532258 3.1532258 1.4117473 3.1532258 3.1532258 3.1532258zm0-.5c-1.4653362 0-2.6532258-1.1878896-2.6532258-2.6532258s1.1878896-2.6532258 2.6532258-2.6532258 2.6532258 1.1878896 2.6532258 2.6532258-1.1878896 2.6532258-2.6532258 2.6532258z"/></g></g></svg>