<svg height="50" viewBox="0 0 50 50" width="50" xmlns="http://www.w3.org/2000/svg"><g fill="none"><path d="m49.25.75v48.5h-48.5v-48.5zm-48 .5v47.5h47.5v-47.5z"/><g fill="#000" transform="translate(11.56 9.64)"><path d="m2.88-.25h21.12c.4031679 0 .73.32683213.73.73v3.84c0 .40316787-.3268321.73-.73.73h-21.12c-.40316787 0-.73-.32683213-.73-.73v-3.84c0-.40316787.32683213-.73.73-.73zm0 .5c-.12702549 0-.23.10297451-.23.23v3.84c0 .12702549.10297451.23.23.23h21.12c.1270255 0 .23-.1029745.23-.23v-3.84c0-.1270255-.1029745-.23-.23-.23z"/><path d="m23.77 4.55v7.22h-20.66v-7.22zm-20.16.5v6.22h19.66v-6.22z"/><path d="m-.25 16.07h27.38v12.73c0 1.1984579-.9715421 2.17-2.17 2.17h-23.04c-1.1984579 0-2.17-.9715421-2.17-2.17zm.5.5v12.23c0 .9223155.74768448 1.67 1.67 1.67h23.04c.9223155 0 1.67-.7476845 1.67-1.67v-12.23z"/><path d="m0 28.57h26.88v-.5h-26.88z"/><path d="m23.6501639 11.27 3.71 5.3h-27.84032779l3.71-5.3zm-20.16000001.5-3.01 4.3h25.91967221l-3.01-4.3z"/><path d="m13.44 15.17.6259886-.0028561.6246943-.0088244c3.8990486-.0746923 6.6793171-.5057082 6.6793171-1.2383195 0-.7711698-3.0806299-1.2081618-7.3040114-1.2471439l-.6259886-.0028561c-4.54149039 0-7.93.4412122-7.93 1.25s3.38850961 1.25 7.93 1.25zm0-.5-.8779324-.0074065-.5887455-.0131238c-3.30099044-.0917551-5.9633221-.4710715-5.9633221-.7294697 0-.2883871 3.31615705-.7273881 7.1352769-.7491579l.2947231-.0008421c3.9416034 0 7.43.4542183 7.43.75s-3.4883966.75-7.43.75z"/></g></g></svg>