<svg height="50" viewBox="0 0 50 50" width="50" xmlns="http://www.w3.org/2000/svg"><g fill="none"><path d="m49.25.75v48.5h-48.5v-48.5zm-48 .5v47.5h47.5v-47.5z"/><g fill="#000" transform="translate(12 10)"><path d="m1.875-.25h22.03125c1.1736051 0 2.125.95139491 2.125 2.125v26.25c0 1.1736051-.9513949 2.125-2.125 2.125h-22.03125c-1.17360509 0-2.125-.9513949-2.125-2.125v-26.25c0-1.17360509.95139491-2.125 2.125-2.125zm0 .5c-.89746272 0-1.625.72753728-1.625 1.625v26.25c0 .8974627.72753728 1.625 1.625 1.625h22.03125c.8974627 0 1.625-.7275373 1.625-1.625v-26.25c0-.89746272-.7275373-1.625-1.625-1.625z"/><path d="m0 2.35762906h25.78125v-.5h-25.78125z"/><path d="m3.75 3.5h9.390625v22.53125h-9.390625c-.39695467 0-.71875-.3217953-.71875-.71875v-21.09375c0-.39695467.32179533-.71875.71875-.71875zm8.890625.5h-8.890625c-.12081229 0-.21875.09793771-.21875.21875v21.09375c0 .1208123.0979377.21875.21875.21875h8.890625z"/><path d="m22.03125 3.5c.3969547 0 .71875.32179533.71875.71875v21.09375c0 .3969547-.3217953.71875-.71875.71875h-9.390625v-22.53125zm-8.890625.5v21.53125h8.890625c.1208123 0 .21875-.0979377.21875-.21875v-21.09375c0-.1208123-.0979377-.21875-.21875-.21875z"/><path d="m8.21875 20.4445506v-11.21263459h-.5v11.21263459z"/><path d="m18.0625 20.4445506v-11.21263459h-.5v11.21263459z"/></g></g></svg>