<svg height="24" viewBox="0 0 24 24" width="24" 
  xmlns="http://www.w3.org/2000/svg">
  <g fill="none">
    <path d="m0 0h24v24h-24z" fill="#000" opacity="0"/>
    <path d="m24 14.907c0-3.3255-3.325-6.03349999-7.0655-6.03349999-3.963 0-7.075 2.70799999-7.075 6.03349999 0 3.334 3.112 6.0325 7.075 6.0325.829 0 1.6675-.2115 2.496-.4135l2.284 1.252-.625-2.081c1.6665-1.2525 2.9105-2.9195 2.9105-4.79zm-9.3605-1.041c-.4135 0-.828-.414-.828-.8295 0-.413.4145-.828.828-.828.627 0 1.042.415 1.042.828 0 .4155-.415.8295-1.042.8295zm4.5795 0c-.414 0-.8275-.414-.8275-.8295 0-.413.4135-.828.8275-.828.626 0 1.041.415 1.041.828 0 .4155-.425.8295-1.041.8295zm-2.971-5.72749999c.2725 0 .546.01900001.818.04699999-.733-3.42499999-4.392-5.964-8.57050002-5.964-4.66649997 0-8.49549998 3.17950001-8.49549998 7.22449999 0 2.33350001 1.2705 4.25200001 3.39649999 5.73900001l-.84649999 2.558 2.97250001-1.495c1.06300001.2065 1.91899999.4235 2.973.4235.26299999 0 .52750001-.0095.79099999-.0365-.1695-.5655-.26350001-1.166-.26350001-1.7785-.00049999-3.7075 3.18950001-6.71799999 7.22500001-6.71799999zm-4.573-2.30500001c.6395 0 1.0625.42349999 1.0625 1.0635 0 .639-.4235 1.06249999-1.0625 1.06249999-.64 0-1.279-.42349999-1.279-1.06249999.0095-.6405.648-1.0635 1.279-1.0635zm-5.94549999 2.12500001c-.64000001 0-1.27900001-.423-1.27900001-1.06249999 0-.64000001.63949999-1.06300001 1.27900001-1.06300001.6405 0 1.06399999.42349999 1.06399999 1.06300001-.00049999.63049999-.42349999 1.06249999-1.06399999 1.06249999z" fill="#888"/>
  </g>
</svg>