<svg height="24" viewBox="0 0 24 24" width="24" 
  xmlns="http://www.w3.org/2000/svg">
  <g fill="none">
    <path d="m0 0h24v24h-24z" fill="#000" opacity="0"/>
    <path d="m23.693401 11.1215457v.0026424c-.1154074.3461446-.4321067.5892386-.8024838.6183041-.3703771.0290656-.721967-.1638241-.8910522-.4861879-.1100396-.211386-.1315108-.4571223-.0563618-.6843623h-.0026839c.499204-1.50084088.1395624-3.14700969-.9447301-4.32020223-1.0789246-1.17055022-2.7187828-1.69108835-4.2995954-1.36079766-.2388664.05020419-.4884684.00528465-.6924442-.1241893s-.348906-.33293302-.3998999-.56545767c-.1046718-.48354557.2120275-.96180649.7085475-1.06485719 2.14443-.44655302 4.4713646.20610139 6.0468093 1.91304369 1.5808126 1.70429998 2.0048675 4.02954646 1.3338945 6.07206406zm-6.3661925-3.35839572c-.2039758.04227721-.4186872.00528465-.5958241-.10833535-.1771369-.11097767-.297912-.28537116-.3435382-.4861879-.0912523-.41748744.1798208-.8270479.6092436-.91688696 1.0816085-.22724 2.2061594.12683162 2.9469137.93009859.7702771.83233254.9742529 1.9658902.646818 2.95940464-.0644134.1955321-.2039758.3567139-.3918483.4491953-.1878724.0924814-.4052677.1109777-.6038757.0475619-.4160033-.1321163-.6441342-.5681-.5072557-.97237583h-.0026839c.1664014-.50204186.0483101-1.05428789-.3140153-1.4479944-.3676933-.39106418-.9152073-.56545767-1.4439341-.45447999zm.7031798 4.38361812c1.3768367.4174874 2.9093392 1.4268557 2.9093392 3.2024985 0 2.9435507-4.3425377 6.6507334-10.8697637 6.6507334-4.97862016 0-10.0699638-2.3595967-10.0699638-6.2385306 0-2.029306 1.31510721-4.3730488 3.5776284-6.58731758 3.0220627-2.95411996 6.5486971-4.29906366 7.8745399-3.00168182.5850885.57074232.6414503 1.5616144.2657054 2.74273391-.1959242.59452325.571669.26423256.571669.26687488 2.442342-1.00144138 4.5760363-1.05957254 5.3543651.02906558.4133194.5786693.3757449 1.39250553-.0080517 2.33581583-.1771369.4333413.0536779.4993995.3945322.5998079zm-7.9496889 8.4633687c3.9721605-.3831372 6.9861716-2.7612302 6.7285179-5.3137167-.2576537-2.5472018-3.687668-4.3043483-7.65982854-3.9212111-3.97216057.3831372-6.98617159 2.7638725-6.72851793 5.3110743.25765366 2.5524865 3.68766798 4.3069907 7.65982857 3.9238535zm.397216-7.2690376c1.9565575.4941149 2.9549654 2.2988232 2.1551655 4.0506851-.8105354 1.794139-3.14283782 2.7480185-5.12086643 2.1244297-1.9109313-.6024502-2.71878287-2.4467935-1.88140848-4.1088162.82127103-1.6276726 2.95764928-2.5472019 4.84710941-2.0662986zm-1.44393401 4.2409325c.37842881-.6050926.17982078-1.2973818-.44284223-1.5563298-.61461133-.2510209-1.41172733.007927-1.79015614.5892386-.3837966.583954-.20397581 1.2815279.40795162 1.5510451.61997912.2774442 1.44125015.0132117 1.82504675-.5839539z" fill="#888"/>
  </g>
</svg>