<svg height="10" viewBox="0 0 10 10" width="10" xmlns="http://www.w3.org/2000/svg"><g fill="none"><path d="m0 0h10v10h-10z" fill="#000" opacity="0"/><path d="m8.5625 6.4375-2.5-1.4375 2.5-1.4375c.25-.125.375-.5.1875-.75-.125-.25-.5-.375-.75-.1875l-2.5 1.4375v-2.875c.0625-.3125-.1875-.5625-.5-.5625s-.5625.25-.5625.5625v2.875l-2.5-1.4375c-.1875-.1875-.5625-.0625-.6875.1875s-.0625.625.1875.75l2.5 1.4375-2.5 1.4375c-.25.125-.375.5-.1875.75.125.1875.3125.25.5.25.0625 0 .1875 0 .25-.0625l2.5-1.4375v2.875c-.0625.3125.1875.5625.5.5625s.5625-.25.5625-.5625v-2.875l2.5 1.4375c.0625.0625.1875.0625.25.0625.1875 0 .375-.125.5-.25.0625-.25 0-.625-.25-.75z" fill="#df3923" stroke="#df3923" stroke-width=".6"/></g></svg>