<svg height="36" viewBox="0 0 36 36" width="36" 
  xmlns="http://www.w3.org/2000/svg">
  <path d="m18 0c9.9411255 0 18 8.0588745 18 18s-8.0588745 18-18 18-18-8.0588745-18-18 8.0588745-18 18-18zm1.5233746 10.5-7.5233746 7.5117712 7.4963597 7.4882288 1.5036403-1.3287142-6.181824-6.1577919 6.101354-6.1130039z" stroke="#000"/>
</svg>
<svg height="36" viewBox="0 0 36 36" width="36" 
  xmlns="http://www.w3.org/2000/svg">
  <path d="m18 .5c-9.66498312 0-17.5 7.83501688-17.5 17.5 0 9.6649831 7.83501688 17.5 17.5 17.5 9.6649831 0 17.5-7.8350169 17.5-17.5 0-9.66498312-7.8350169-17.5-17.5-17.5zm-2.4743663 17.5124676 6.2047606 6.1806394-2.255005 1.9926688-8.1829612-8.1740856 8.2317677-8.2190718 2.1015574 2.1080821z" stroke="#000"/>
</svg>