<svg height="18" viewBox="0 0 107 18" width="107" 
  xmlns="http://www.w3.org/2000/svg" 
  xmlns:xlink="http://www.w3.org/1999/xlink">
  <linearGradient id="a" x1="50%" x2="50%" y1="0%" y2="100%">
    <stop offset="0" stop-color="#c20b06"/>
    <stop offset="1" stop-color="#c30e09"/>
  </linearGradient>
  <linearGradient id="b" x1="50%" x2="50%" y1="0%" y2="100%">
    <stop offset="0" stop-color="#d7150f"/>
    <stop offset="1" stop-color="#e3211b"/>
  </linearGradient>
  <g fill="none">
    <path d="m12.9150006 2.38649422c1.259435 1.0638272 1.4683983 2.81112013.6268901 5.24187878-1.3233689 3.822649-2.579432 5.6839735-3.76818937 5.5839735h8.79935147c1.0417691-2.2785717 1.5626536-4.32481714 1.5626536-6.13873614 0-1.81391899-1.6131097-3.41409201-4.8393293-4.80051905h-2.3398879c-.035509 0-.0642947.02877675-.0642947.06428572 0 .01893155.0083435.03690088.0228061.04911719z" fill="url(#a)"/>
    <path d="m4.27551866 0c-1.93043184 0-3.24158299.52535135-3.9334534 1.57605404-.05709238.08670282-.12228068.2081583-.1955649.36436648l-.00000185-.00000086c-.07539801.1607138-.00623589.35212024.1544779.42751825.0065928.00309297.0132888.00596101.02007642.00859913.05886672.02287959.10889408.04554336.15008209.06799131 1.12432282.61276919 2.0644278 2.64911782 2.82031496 6.10904587 1.28873618 5.89894198 3.41884771 9.35667268 8.44439522 9.35667268 3.350365 0 5.7666744-1.8829272 7.2489285-5.6487814-2.8635117.9122861-5.1044823.9122861-6.7229119 0-.8837111-.4981357-1.874272-2.38087715-2.3736845-4.43413564-.91827897-3.77536408-2.01498741-7.82732986-5.61265854-7.82732986z" fill="url(#b)"/>
    <path d="m16.7944175 0c1.5976329 0 2.8298773.44601185 3.696733 1.33803554.1404733.14455176.3156306.37336285.5254719.68643328l.0000032-.00000213c.0916592.13674997.0651811.32064795-.0613345.42598449-.1682527.14008682-.2851203.25675086-.3506029.3499921-.3897581.55498077-.3397664 1.26705815.1499752 2.13623216 1.1096626 1.96938517 2.138877 3.05044177 4.7346217 2.56732392.1953411-.03635675.4839714-.10653168.8658906-.21052478l.0000005.00000212c.1113334-.03031505.2261621.03536327.2564772.14669666.0131678.04835901.0085124.0998402-.0131167.1450526-.1388274.29019649-.2514308.510924-.3378104.66218252-1.1029476 1.93136122-2.4742615 2.68242522-3.7870478 2.68242522-1.5334851 0-4.830065-.0622104-6.5324059-4.07444757-1.0616329-2.50215647-1.7344184-3.46709085-2.4937585-4.08699301-.1139204-.09300115-.2775009-.20954947-.4907415-.34964498l.0000017-.00000259c-.1348315-.08858202-.1831115-.26338688-.1128562-.40861257.0999978-.20670679.2193031-.39646839.3579158-.56928481.529371-.65999677 1.5824709-1.44084817 3.5925836-1.44084817z" fill="url(#b)"/>
    <g fill="#fff" transform="translate(31.660714 .482143)">
      <path d="m2.99057713.76499741c-.16758483 2.45184384-.91354222 4.26336146-2.23787216 5.43455287-.1119265.09898389-.21652636.19164291-.31379958.27797705-.27915014.24775809-.43890539.60315017-.43890539.97639121v1.31836614.23848552c0 .08923682.0723343.16157753.1615711.16157753.03016134 0 .05972057-.00844209.08533263-.02437095.15942717-.09915225.28407963-.17851429.37395736-.23808615 3.3411665-2.214558 4.15757255-4.73136791 4.3049467-7.46992677.01184284-.22006788.02044543-.54106972.02583396-.96300555.00110426-.08922415-.07030693-.16247382-.15953103-.16362081-.00068437 0-.00136877 0-.00205319 0h-1.31589387c-.25487184 0-.46620645.19738136-.48358653.45165991z"/>
      <path d="m2.55414431 3.25300069v12.57899841c0 .0892333.07233786.1615711.1615711.1615711h1.29256883c.26769977 0 .48471331-.2170135.48471331-.4847133v-12.25585621z"/>
      <path d="m5.53453521 5.88939572h10.57265049c.2676999 0 .4847134-.21701355.4847134-.48471331v-1.29256881c0-.08923327-.0723379-.16157112-.1615711-.16157112h-10.57265058c-.26769976 0-.48471331.21701354-.48471331.48471332v1.29256881c0 .08923325.07233786.16157111.1615711.16157111z"/>
      <path d="m8.67736151.80424477.00341844.26749192c.05294726 3.3280721-.10166977 5.89845207-.8593021 8.6586155-.40322942 1.46902271-.62670081 2.08269491-1.33095669 2.85215131-.13589404.1484752-.36862926.3750325-.69820566.679672-.26733859.2471114-.41935139.5946277-.41935139.9586798v1.497033c0 .0901298.07305697.1631945.16318681.1631945.02769406 0 .0549326-.0070477.07915127-.0204797.36979503-.2050925.64285218-.3676838.81917147-.4877741 2.0129252-1.3709944 2.71347523-3.1502162 3.25670135-5.129267.78854789-2.8727933.96886789-5.50611564.93327229-8.82407476l-.0124151-.94669732c-.0011593-.08839935-.0731503-.15945242-.1615572-.15945242h-1.28843977c-.26769976 0-.48471331.21701354-.48471331.48471331 0 .00206471.0000132.00412941.00003959.00619396z"/>
      <path d="m11.0211204 6.69725122v6.69008888c0 1.3384989 1.0850676 2.4235666 2.4235665 2.4235666h2.7978506c.2086353 0 .3938632-.1335047.4598394-.3314335l.4649185-1.3947554c.0282181-.0846541-.0175325-.176155-.1021866-.2043731-.0164749-.0054916-.0337272-.0082913-.0510932-.0082913h-3.5693287c-.2676998 0-.4847133-.2170135-.4847133-.4847133v-6.36694667c0-.26769976-.2170135-.48471331-.4847133-.48471331h-1.2925688c-.0892333 0-.1615711.07233784-.1615711.1615711z"/>
      <path d="m13.2283857 2.33483146h2.6297574c.2369468 0 .4391644-.17130401.4781182-.40502692l.2242822-1.34569307c.0146699-.08801914-.0447915-.17126503-.1328106-.18593488-.0087783-.00146307-.0176626-.00219835-.0265622-.00219835h-2.6297573c-.2369469 0-.4391645.171304-.4781183.40502693l-.2242822 1.34569307c-.0146698.08801913.0447915.17126502.1328107.18593487.0087783.00146307.0176626.00219835.0265621.00219835z"/>
      <path d="m19.9464441 4.36515221v1.13099771c0 .17846652.1446757.32314221.3231422.32314221h4.7346973c.2676997 0 .4847133-.21701355.4847133-.48471331v-1.29256881c0-.08923327-.0723378-.1615711-.161571-.1615711h-4.0373295-.8589389c-.2676999 0-.4847134.21701353-.4847134.4847133z"/>
      <path d="m20.1900751 2.44780219h1.1708428c.0901255 0 .1631869.07306123.1631869.16318681 0 .00524877-.0002533.01049449-.0007589.01571886l-.4294337 4.43748163c-.0242844.25093901-.2351726.44240392-.487284.44240392h-1.1708428c-.0901256 0-.1631868-.07306123-.1631868-.16318682 0-.00524876.0002532-.01049448.0007588-.01571883l.4294338-4.43748163c.0242844-.25093903.2351725-.44240394.4872839-.44240394z"/>
      <path d="m22.1694454.71912044v15.03394826c0 .0892333.0723379.1615711.1615711.1615711h1.2925689c.2676997 0 .4847133-.2170135.4847133-.4847133v-15.03394826c0-.08923326-.0723378-.1615711-.1615712-.1615711h-1.2925687c-.2676997 0-.4847134.21701354-.4847134.4847133z"/>
      <path d="m19.8436318 13.079287 5.329274-1.977465c.1900056-.0705029.3160911-.2517734.3160911-.4544376v-1.62100092c0-.08923324-.0723378-.1615711-.161571-.1615711-.0183943 0-.0366533.00314099-.0539902.00928754l-5.3248394 1.88785088c-.1934592.0685884-.3227431.2515929-.3227431.4568508v1.7090062c0 .0892333.0723378.1615712.1615712.1615712.0191864 0 .0382193-.0034174.0562074-.010092z"/>
      <path d="m27.082162 3.78897138h7.9477738c.2676999 0 .4847133-.21701353.4847133-.48471331v-1.29256881c0-.08923325-.0723378-.1615711-.161571-.1615711h-7.947774c-.2676997 0-.4847133.21701354-.4847133.4847133v1.29256881c0 .08923327.0723378.16157111.1615712.16157111z"/>
      <path d="m30.2676928.79805081v4.63827333h1.9388533v-4.96141554c0-.08923325-.0723378-.1615711-.161571-.1615711h-1.2925689c-.2676997 0-.4847134.21701354-.4847134.48471331z"/>
      <path d="m26.2116751 6.85882233h9.6221166c.2676999 0 .4847133-.21701355.4847133-.48471331v-1.29256881c0-.08923327-.0723378-.1615711-.161571-.1615711h-9.6221167c-.2676998 0-.4847133.21701352-.4847133.4847133v1.29256881c0 .08923325.0723378.16157111.1615711.16157111z"/>
      <path d="m26.2116751 10.2518155h9.6221166c.2676999 0 .4847133-.2170136.4847133-.48471334v-1.29256882c0-.08923324-.0723378-.1615711-.161571-.1615711h-9.6221167c-.2676998 0-.4847133.21701355-.4847133.48471331v1.29256885c0 .0892332.0723378.1615711.1615711.1615711z"/>
      <path d="m29.8654756 14.9197905-.3912666 1.1737996c-.0282181.0846542.0175324.1761551.1021864.2043731.016475.0054916.0337274.0082913.0510934.0082913h2.371815c1.4337218 0 2.5959829-1.1622611 2.5959829-2.5959829v-5.92130734c0-.08923325-.0723378-.1615711-.161571-.1615711h-1.2925689c-.2676997 0-.4847133.21701354-.4847133.4847133v5.28586824c0 .5353996-.4340271.9694266-.9694265.9694266h-1.0551324c-.3477256 0-.6564386.2225077-.766399.5523892z"/>
      <path d="m27.6171583 11.3354287 1.0965695 2.0176231c.0565518.1040522.1654915.1688337.2839185.1688337h1.97267c.0892332 0 .161571-.0723378.161571-.1615711 0-.0277257-.0071347-.0549851-.020718-.0791556l-1.1349746-2.0196246c-.0572162-.1018133-.1649173-.1648309-.2817062-.1648309h-1.9353708c-.0892332 0-.1615712.0723378-.1615712.1615711 0 .0269513.0067419.0534744.0196118.0771543z"/>
      <path d="m42.0824525 0h-1.4328028c-.2974659 0-.5565135.20304395-.6275732.49189767l-.5779059 2.34915469c-.0426327.17329958.0632936.34834729.2365933.39098002.0252608.00621429.0511795.00935553.0771933.00935553h6.6961633c.2676999 0 .4847133-.21701353.4847133-.4847133v-1.29256881c0-.08923326-.0723378-.16157111-.161571-.16157111h-4.8356134l.296785-1.09883433c.0232672-.08614642-.0277064-.17484379-.1138528-.19811114-.0137357-.00370989-.0279012-.00558922-.0421291-.00558922z"/>
      <path d="m39.7154978 5.88939572h6.7859863c.2676997 0 .4847134-.21701355.4847134-.48471331v-1.29256881c0-.08923327-.0723379-.16157112-.1615712-.16157112h-6.7859862c-.2676999 0-.4847133.21701354-.4847133.48471332v1.29256881c0 .08923325.0723378.16157111.161571.16157111z"/>
      <path d="m42.3640816 2.0173589c0 .98882782-.0499841 2.02037474-.4889708 2.83574652-.384556.71427237-.7569018 1.30125359-1.3947637 1.6473937-.0155786.00845382-.0398339.01903492-.072766.03174332-.4984732.19235991-.8272172.67159376-.8272172 1.20589491v.83618269c0 .08923053.0723406.16156615.1615711.16156615.0101594 0 .0202961-.00095822.0302755-.00286197.3997204-.07625333.6941867-.14499409.8833993-.20622228 1.4363374-.46479129 2.3047337-1.40323065 2.9691995-2.63740622.6073117-1.1280175.6781256-2.58574478.6781256-3.87203682z"/>
      <path d="m44.0342193 7.94932071 2.7529951.65526574c.0868082.020662.17393-.03296004.194592-.11976819.0029173-.01225677.0043911-.02481272.0043911-.03741188v-1.30806633c0-.15516466-.1092449-.28887866-.2612933-.31981916l-2.7452143-.55862637c-.0874412-.0177935-.1727508.03866713-.1905443.12610834-.0021577.01060357-.0032448.02139709-.0032448.03221797v1.21573977c0 .14964305.1027422.27971019.2483185.31436011z"/>
      <path d="m53.4327898.88636119h-3.7080564c-1.070799 0-1.9388532.86805415-1.9388532 1.93885322v5.32703355c0 .08923326.0723379.1615711.1615711.1615711h5.4853385c1.0707991 0 1.9388533-.86805416 1.9388533-1.93885322v-3.54975143c0-1.07079907-.8680542-1.93885322-1.9388533-1.93885322zm0 2.42356653v2.58032481c0 .26769976-.2170136.48471331-.4847133.48471331h-3.2233431v-3.06503812c0-.26769976.2170136-.48471331.4847133-.48471331h2.7386298c.2676997 0 .4847133.21701355.4847133.48471331z"/>
      <path d="m54.345221 10.9652369v3.4021644c0 1.0707991-.8680541 1.9388532-1.9388532 1.9388532h-11.4410212c-.0892334 0-.1615712-.0723378-.1615712-.1615711v-5.1794465c0-1.07079911.8680542-1.93885327 1.9388533-1.93885327h9.6637391c1.0707991 0 1.9388532.86805416 1.9388532 1.93885327zm-11.6025923 3.4021644h9.1790259c.2676997 0 .4847132-.2170135.4847132-.4847133v-2.4327378c0-.2676998-.2170135-.4847133-.4847132-.4847133h-8.6943126c-.2676999 0-.4847133.2170135-.4847133.4847133z"/>
      <path d="m42.2487966 13.6448086h11.1269978v-1.9388532h-11.1269978z"/>
      <path d="m74.9165799 1.69843235v-1.29256882c0-.08923326-.0723379-.1615711-.1615711-.1615711h-13.8700961c-1.0707989 0-1.9388531.86805415-1.9388531 1.93885322v9.22382455c0 .7628877-.1430288 1.8146086-.3669173 2.8375949-.0838884.3833005-.2273585.9108755-.4304105 1.5827249-.0258069.0854155.0225077.1755833.1079209.2013976.0151576.004581.0309062.0069089.0467409.0069089h1.5063377c.2154809 0 .4050909-.1422505.4653649-.3491298.1851896-.6356289.3088213-1.1224214.3708951-1.4603778.177922-.9686839.2389214-1.9147358.2389214-2.8191187v-8.73911124c0-.26769976.2170137-.48471331.4847134-.48471331h13.0622404c.2676999 0 .4847134-.21701354.4847134-.4847133z"/>
      <path d="m62.2493937 4.93924468h4.9315905c.2676999 0 .4847134-.21701353.4847134-.48471331v-1.29256881c0-.08923325-.0723379-.1615711-.1615711-.1615711h-4.9315907c-.2676997 0-.4847133.21701354-.4847133.4847133v1.29256882c0 .08923326.0723378.1615711.1615712.1615711z"/>
      <path d="m63.4796703 5.71153846h2.9373626c.7210048 0 1.3054945.58448981 1.3054945 1.30549451v2.12142857c0 .72100471-.5844897 1.30549446-1.3054945 1.30549446h-4.0796703c-.0901255 0-.1631868-.0730612-.1631868-.1631868v-3.26373623c0-.7210047.5844898-1.30549451 1.3054945-1.30549451zm.4895604 2.12142857v.81593407h1.6318681c.1802512 0 .3263738-.14612244.3263738-.32637363v-.48956044c0-.18025117-.1461226-.32637362-.3263738-.32637362h-1.3054945c-.180251 0-.3263736.14612245-.3263736.32637362z"/>
      <path d="m61.9967456 11.3298044.6182956 1.8290243c.0443814.1312879.1675374.2196579.3061239.2196579h1.5904071c.0892334 0 .1615712-.0723378.1615712-.1615711 0-.018554-.0031958-.0369694-.0094473-.0544386l-.6554944-1.8317207c-.0459876-.1285085-.1677584-.214265-.3042476-.214265h-1.5541465c-.0892332 0-.1615712.0723379-.1615712.1615711 0 .0175957.0028742.0350731.0085092.0517421z"/>
      <path d="m68.7435377 7.86521354.6680242 3.11663886c.0319333.1489835.1635983.2554178.3159656.2554178h1.424956c.0892332 0 .1615712-.0723379.1615712-.1615711 0-.0120293-.0013434-.024021-.0040053-.0357521l-.7076009-3.11852866c-.0333947-.14717623-.1642145-.25163812-.3151318-.25163812h-1.385796c-.0892334 0-.1615713.07233785-.1615713.1615711 0 .0113823.0012028.02273273.0035883.03386222z"/>
      <path d="m61.8287058 16.016991 6.4196672-.6697517c.2468877-.0257573.4344171-.2338691.4344171-.4820968v-1.3082795c0-.0892333-.0723378-.1615711-.161571-.1615711-.0053216 0-.01064.0002629-.0159357.0007877l-6.4180075.6361c-.2479704.0245768-.4369067.2331646-.4369067.48235v1.3417625c0 .0892332.0723378.1615711.161571.1615711.0055999 0 .0111959-.0002912.0167656-.0008722z"/>
      <path d="m66.2138241 11.3146385-1.2654724 3.0168926h1.9715144l1.2274279-2.9921486c.0338662-.082557-.0056056-.1769366-.0881624-.2108028-.0194585-.0079822-.0402882-.0120885-.0613202-.0120885h-1.4859987c-.1301729 0-.2476361.0781071-.2979886.1981473z"/>
      <path d="m68.9670871 6.25301629h5.4647794c.2676999 0 .4847134-.21701355.4847134-.48471331v-1.29256881c0-.08923327-.0723379-.1615711-.1615711-.1615711h-5.4647796c-.2676997 0-.4847133.21701352-.4847133.4847133v1.29256882c0 .08923324.072338.1615711.1615712.1615711z"/>
      <path d="m72.2935591 3.42989936v10.22650054c0 .2676997-.2170135.4847133-.4847133.4847133h-.6879086c-.3477256 0-.6564384.2225077-.766399.5523891l-.3912665 1.1737997c-.028218.0846541.0175323.1761551.1021865.2043731.0164748.0054916.0337273.0082913.0510933.0082913h1.6922943c1.338499 0 2.4235666-1.0850677 2.4235666-2.4235665v-10.54964275c0-.08923324-.0723378-.1615711-.1615711-.1615711h-1.2925689c-.2676997 0-.4847133.21701355-.4847133.48471331z"/>
    </g>
  </g>
</svg>