<svg height="50" viewBox="0 0 50 50" width="50" xmlns="http://www.w3.org/2000/svg"><g fill="none"><path d="m49.25.75v48.5h-48.5v-48.5zm-48 .5v47.5h47.5v-47.5z"/><g fill="#000" transform="translate(6 12)"><path d="m.74509804.29543772h9.44858776c.5423406 0 1.0228082.34972409 1.1894961.8658137l.5334848 1.69111705v24.00547463h-11.17156866c-.54957748 0-.99509804-.4455205-.99509804-.995098v-24.57220934c0-.54957747.44552057-.99509804.99509804-.99509804zm10.67169646 26.06240538.011973-23.42863737-.521384-1.61427979c-.1000127-.30965376-.3882933-.51948822-.7136977-.51948822h-9.44858776c-.2734351 0-.49509804.22166295-.49509804.49509804v24.57220934c0 .2734351.22166293.495098.49509804.495098z"/><path d="m2.48 28.21c.40316787 0 .73-.3268321.73-.73s-.32683213-.73-.73-.73-.73.3268321-.73.73.32683213.73.73.73zm0-.5c-.1270255 0-.23-.1029745-.23-.23s.1029745-.23.23-.23.23.1029745.23.23-.1029745.23-.23.23z"/><path d="m9.48 28.21c.40316787 0 .73-.3268321.73-.73s-.32683213-.73-.73-.73-.73.3268321-.73.73.32683213.73.73.73zm0-.5c-.1270255 0-.23-.1029745-.23-.23s.1029745-.23.23-.23.23.1029745.23.23-.1029745.23-.23.23z"/><path d="m28.48 28.21c.4031679 0 .73-.3268321.73-.73s-.3268321-.73-.73-.73-.73.3268321-.73.73.3268321.73.73.73zm0-.5c-.1270255 0-.23-.1029745-.23-.23s.1029745-.23.23-.23.23.1029745.23.23-.1029745.23-.23.23z"/><path d="m35.48 28.21c.4031679 0 .73-.3268321.73-.73s-.3268321-.73-.73-.73-.73.3268321-.73.73.3268321.73.73.73zm0-.5c-.1270255 0-.23-.1029745-.23-.23s.1029745-.23.23-.23.23.1029745.23.23-.1029745.23-.23.23z"/><path d="m27.8100462.29543772h9.4448558c.5495774 0 .995098.44552059.995098.99509804v24.57220934c0 .5495775-.4455206.995098-.995098.995098h-11.1715687l.0117294-24.0421479.5236304-1.64864597c.164852-.51903509.6467674-.87161151 1.1913531-.87161151zm9.4448558 26.06240538c.2734351 0 .495098-.2216629.495098-.495098v-24.57220934c0-.27343507-.221663-.49509804-.495098-.49509804h-9.4448558c-.3267514 0-.6159007.21154586-.7148119.52296692l-.511901 1.57296826v23.4664702z"/><path d="m26.5833333 2.6127451v24.245098h-15.1666666v-24.245098zm-14.6666666 23.745098h14.1666666v-23.245098h-14.1666666z"/><path d="m14.372549 4.65196078h9.254902c.3438243 0 .622549.27872469.622549.62254902v11.254902c0 .3438243-.2787247.622549-.622549.622549h-9.254902c-.3438243 0-.622549-.2787247-.622549-.622549v-11.254902c0-.34382433.2787247-.62254902.622549-.62254902zm0 .5c-.0676819 0-.122549.05486707-.122549.12254902v11.254902c0 .0676819.0548671.122549.122549.122549h9.254902c.0676819 0 .122549-.0548671.122549-.122549v-11.254902c0-.06768195-.0548671-.12254902-.122549-.12254902z"/><path d="m0 2.6127451v.5h38v-.5z"/></g></g></svg>