<svg height="50" viewBox="0 0 50 50" width="50" xmlns="http://www.w3.org/2000/svg"><g fill="none"><path d="m49.25.75v48.5h-48.5v-48.5zm-48 .5v47.5h47.5v-47.5z"/><g fill="#000" transform="translate(9 13)"><path d="m2-.25h28c1.2426407 0 2.25 1.00735931 2.25 2.25v19.3333333c0 1.2426407-1.0073593 2.25-2.25 2.25h-28c-1.24264069 0-2.25-1.0073593-2.25-2.25v-19.3333333c0-1.24264069 1.00735931-2.25 2.25-2.25zm0 .5c-.96649831 0-1.75.78350169-1.75 1.75v19.3333333c0 .9664983.78350169 1.75 1.75 1.75h28c.9664983 0 1.75-.7835017 1.75-1.75v-19.3333333c0-.96649831-.7835017-1.75-1.75-1.75z"/><path d="m6.82098765 4.70061728h1.7654321c.41421356 0 .75.33578644.75.75v4.13580247c0 .41421355-.33578644.74999995-.75.74999995h-1.7654321c-.41421356 0-.75-.3357864-.75-.74999995v-4.13580247c0-.41421356.33578644-.75.75-.75zm0 .5c-.13807119 0-.25.11192881-.25.25v4.13580247c0 .13807119.11192881.25.25.25h1.7654321c.13807119 0 .25-.11192881.25-.25v-4.13580247c0-.13807119-.11192881-.25-.25-.25z"/><path d="m23.4135802 4.70061728h1.7654321c.4142136 0 .75.33578644.75.75v4.13580247c0 .41421355-.3357864.74999995-.75.74999995h-1.7654321c-.4142136 0-.75-.3357864-.75-.74999995v-4.13580247c0-.41421356.3357864-.75.75-.75zm0 .5c-.1380712 0-.25.11192881-.25.25v4.13580247c0 .13807119.1119288.25.25.25h1.7654321c.1380712 0 .25-.11192881.25-.25v-4.13580247c0-.13807119-.1119288-.25-.25-.25z"/><path d="m0 7.76851852h6.32098765v-.5h-6.32098765z"/><path d="m9.08641975 7.76851852h13.82716045v-.5h-13.82716045z"/><path d="m25.6790123 7.76851852h6.3209877v-.5h-6.3209877z"/><path d="m-.25 13.75h32.5v2.4104938c0 .690356-.5596441 1.25-1.25 1.25h-30c-.69035595 0-1.25-.559644-1.25-1.25zm.5.5v1.9104938c0 .4142136.33578642.75.75.75h30c.4142136 0 .75-.3357864.75-.75v-1.9104938z"/></g></g></svg>