<svg height="50" viewBox="0 0 50 50" width="50" xmlns="http://www.w3.org/2000/svg"><g fill="none"><path d="m49.25.75v48.5h-48.5v-48.5zm-48 .5v47.5h47.5v-47.5z"/><g fill="#000" transform="translate(10.12 10.6)"><path d="m1.44-.25h27.36c.9333612 0 1.69.75663877 1.69 1.69v26.4c0 .9333612-.7566388 1.69-1.69 1.69h-27.36c-.93336123 0-1.69-.7566388-1.69-1.69v-26.4c0-.93336123.75663877-1.69 1.69-1.69zm0 .5c-.65721885 0-1.19.53278115-1.19 1.19v26.4c0 .6572189.53278115 1.19 1.19 1.19h27.36c.6572189 0 1.19-.5327811 1.19-1.19v-26.4c0-.65721885-.5327811-1.19-1.19-1.19z"/><path d="m0 1.21h30.24v-.5h-30.24z"/><path d="m0 11.77h30.24v-.5h-30.24z"/><path d="m0 22.33h30.24v-.5h-30.24z"/><path d="m14.87.96v21.12h.5v-21.12z"/><path d="m3.6 24.23h3.36c.27061953 0 .49.2193805.49.49v.96c0 .2706195-.21938047.49-.49.49h-3.36c-.27061953 0-.49-.2193805-.49-.49v-.96c0-.2706195.21938047-.49.49-.49zm.01 1.44h3.34v-.94h-3.34z"/><path d="m10.32 24.23h3.36c.2706195 0 .49.2193805.49.49v.96c0 .2706195-.2193805.49-.49.49h-3.36c-.2706195 0-.49-.2193805-.49-.49v-.96c0-.2706195.2193805-.49.49-.49zm.01 1.44h3.34v-.94h-3.34z"/><path d="m17.04 24.23h3.36c.2706195 0 .49.2193805.49.49v.96c0 .2706195-.2193805.49-.49.49h-3.36c-.2706195 0-.49-.2193805-.49-.49v-.96c0-.2706195.2193805-.49.49-.49zm.01 1.44h3.34v-.94h-3.34z"/><path d="m23.76 24.23h3.36c.2706195 0 .49.2193805.49.49v.96c0 .2706195-.2193805.49-.49.49h-3.36c-.2706195 0-.49-.2193805-.49-.49v-.96c0-.2706195.2193805-.49.49-.49zm.01 1.44h3.34v-.94h-3.34z"/></g></g></svg>