<svg height="30" viewBox="0 0 30 30" width="30" xmlns="http://www.w3.org/2000/svg"><g fill="none" fill-rule="evenodd"><rect fill="#fff" height="30" rx="4" width="30"/><g fill="#000" fill-rule="nonzero" transform="translate(5 5)"><path d="m0 0h20v20h-20z" opacity="0"/><path d="m17.0368 14.2912-4.1816-4.128c.2552-.6196.3948-1.2988.3948-2.0088 0-2.956-2.4284-5.3544-5.426-5.3544-.9416 0-1.8264.2372-2.5992.652l3.0968 3.056c.09948601.09756807.15554075.23105512.15554075.3704s-.05605474.27283193-.15554075.3704l-1.4152 1.3964c-.20846887.2045541-.54233113.2045541-.7508 0l-3.0948-3.054c-.43502764.78473441-.66247841 1.66755181-.66080922 2.5648 0 2.956 2.42840922 5.3544 5.42600922 5.3544.8316 0 1.6172-.1848 2.322-.5144l4.1024 4.048c.7508.7412 1.9768.7412 2.7276 0l.0604-.0596c.3595941-.3559339.5617896-.8409728.5614893-1.346934-.0003009-.5059613-.2030725-.9907596-.5630893-1.346266z"/></g></g></svg>