<svg height="30" viewBox="0 0 30 30" width="30" xmlns="http://www.w3.org/2000/svg"><g fill="none" fill-rule="evenodd"><rect fill="#fff" height="30" rx="4" width="30"/><g fill="#000" fill-rule="nonzero" transform="translate(6 6)"><path d="m0 0h18v18h-18z" opacity="0"/><path d="m14.1996094.68203125-13.5527344 13.55273435 3.15703125 3.1570313 13.55273435-13.5527344zm-11.40820315 14.28749995-1.23046875-1.2304687.27070312-.2707031 1.23046875 1.2304687zm1.20585938-1.2058593-1.23046875-1.2304688.27070312-.2707031 1.23046875 1.2304688zm1.20234375-1.2023438-1.23046875-1.2304687.27070312-.2707031 1.23046875 1.2304687zm1.20585937-1.2058593-1.23046875-1.2304688.27070312-.27070312 1.23046875 1.23046872zm1.20234375-1.2023438-1.23046875-1.23046875.27070313-.27070312 1.23046874 1.23046875zm1.20585937-1.20585938-1.23046875-1.23046874.27070313-.27070313 1.23046875 1.23046875zm1.20585933-1.20234374-1.2304687-1.23046875.27070312-.27070313 1.23046878 1.23046875zm1.2023438-1.20585938-1.23046875-1.23046875.27070315-.27070312 1.2304687 1.23046875zm1.2058594-1.20585938-1.2304688-1.23046875.2707031-.27070312 1.2304688 1.23046875zm1.2023437-1.20234375-1.2304687-1.23046875.2707031-.27070312 1.2304687 1.23046875zm-.0246093-2.43632812.2707031-.27070313 1.2304687 1.23046876-.2707031.27070312zm1.2550781 10.11445315-2.3625-2.36250003-3.0761719 3.07617183 2.3625 2.3625 4.0007812.9246094zm-11.09945534-11.09666463 4.79778399 4.79778398-3.07505637 3.07505637-4.79778398-4.79778399z"/></g></g></svg>