<?xml version="1.0" encoding="UTF-8"?>
<svg width="14px" height="14px" viewBox="0 0 14 14" version="1.1" 
    xmlns="http://www.w3.org/2000/svg" 
    xmlns:xlink="http://www.w3.org/1999/xlink">
    <!-- Generator: Sketch 58 (84663) - https://sketch.com -->
    <title>以上</title>
    <desc>Created with Sketch.</desc>
    <g id="以上" stroke="none" stroke-width="1" fill="none" fill-rule="evenodd">
        <path d="M7,0 C10.8659932,0 14,3.13400675 14,7 C14,10.8659932 10.8659932,14 7,14 C3.13400675,14 0,10.8659932 0,7 C0,3.13400675 3.13400675,0 7,0 Z M7.73149934,3.06556822 C7.43705198,2.71268002 7.06879751,2.59708559 6.70407214,2.70829087 C6.48192001,2.77602538 6.33327993,2.88748948 6.16384694,3.05538566 L6.16384694,3.05538566 L3.27784405,5.91521144 C2.90738532,6.28230998 2.90738532,6.84767265 3.27784405,7.21477118 C3.60732661,7.54126522 4.11568499,7.59163996 4.50935684,7.39658941 L4.50935684,7.39658941 L6.05916306,5.87952532 L6.05916306,10.740337 C6.05916306,11.2785911 6.45168154,11.6675493 7,11.6675493 C7.54831846,11.6675493 7.94083694,11.2785911 7.94083694,10.740337 L7.94083694,10.740337 L7.94083694,5.85295765 L9.40356923,7.2218966 C9.76946602,7.5846811 10.3488601,7.5846811 10.7221559,7.21477118 C11.0926147,6.84767265 11.0926147,6.28230998 10.7221559,5.91521144 L10.7221559,5.91521144 Z" id="椭圆形-2" fill="#000000"></path>
    </g>
</svg>