<svg height="14" viewBox="0 0 14 14" width="14" xmlns="http://www.w3.org/2000/svg"><path d="m7 0c3.8659932 0 7 3.13400675 7 7 0 3.8659932-3.1340068 7-7 7-3.86599325 0-7-3.1340068-7-7 0-3.86599325 3.13400675-7 7-7zm.73149934 3.06556822c-.29444736-.3528882-.66270183-.46848263-1.0274272-.35727735-.22215213.06773451-.37079221.17919861-.5402252.34709479l-2.88600289 2.85982578c-.37045873.36709854-.37045873.93246121 0 1.29955974.32948256.32649404.83784094.37686878 1.23151279.18181823l1.54980622-1.51706409v4.86081168c0 .5382541.39251848.9272123.94083694.9272123s.94083694-.3889582.94083694-.9272123v-4.88737935l1.46273229 1.36893895c.36589679.3627845.94529087.3627845 1.31858667-.00712542.3704588-.36709853.3704588-.9324612 0-1.29955974z" fill="#fff" fill-rule="evenodd"/></svg>