<svg height="36" viewBox="0 0 36 36" width="36" xmlns="http://www.w3.org/2000/svg"><path d="m18 0c9.9411255 0 18 8.0588745 18 18s-8.0588745 18-18 18-18-8.0588745-18-18 8.0588745-18 18-18zm1.4629987 9.79603791c-.5888947-.7057764-1.3254037-.93696526-2.0548544-.71455469-.4443043.13546901-.7415844.35839722-1.0804504.69418957l-5.7720058 5.71965161c-.74091747.734197-.74091747 1.8649224 0 2.5991194.6589651.6529881 1.6756819.7537376 2.4630256.3636365l3.0996124-3.0341282v9.7216233c0 1.0765082.785037 1.8544246 1.8816739 1.8544246s1.8816739-.7779164 1.8816739-1.8544246v-9.7747586l2.9254646 2.7378779c.7317935.725569 1.8905817.725569 2.6371734-.0142509.7409175-.734197.7409175-1.8649224 0-2.5991194z" fill-rule="evenodd" transform="matrix(0 1 -1 0 36 0)"/></svg>