<svg height="8" viewBox="0 0 8 8" width="8" 
  xmlns="http://www.w3.org/2000/svg">
  <path d="m294.791667 8.16666667h-3.958334v-3.95833334c0-.11458333-.09375-.20833333-.208333-.20833333h-1.25c-.114583 0-.208333.09375-.208333.20833333v3.95833334h-3.958334c-.114583 0-.208333.09375-.208333.20833333v1.25c0 .11458333.09375.20833333.208333.20833333h3.958334v3.95833337c0 .1145833.09375.2083333.208333.2083333h1.25c.114583 0 .208333-.09375.208333-.2083333v-3.95833337h3.958334c.114583 0 .208333-.09375.208333-.20833333v-1.25c0-.11458333-.09375-.20833333-.208333-.20833333z" fill="#fff" transform="matrix(.70710678 .70710678 -.70710678 .70710678 -194.697006 -207.424928)"/>
</svg>