<svg height="16" viewBox="0 0 16 16" width="16" xmlns="http://www.w3.org/2000/svg" xmlns:xlink="http://www.w3.org/1999/xlink"><defs><path id="a" d="m8 6.11438192 5.6568542-5.65685425c.5206991-.52069906 1.3649191-.52069906 1.8856181 0 .5206991.52069905.5206991 1.36491902 0 1.88561808l-5.65685422 5.65685425 5.65685422 5.6568542c.5206991.5206991.5206991 1.3649191 0 1.8856181-.520699.5206991-1.364919.5206991-1.8856181 0l-5.6568542-5.65685422-5.65685425 5.65685422c-.52069906.5206991-1.36491903.5206991-1.88561808 0-.52069906-.520699-.52069906-1.364919 0-1.8856181l5.65685425-5.6568542-5.65685425-5.65685425c-.52069906-.52069906-.52069906-1.36491903 0-1.88561808.52069905-.52069906 1.36491902-.52069906 1.88561808 0z"/><mask id="b" fill="#fff"><use fill="#fff" fill-rule="evenodd" xlink:href="#a"/></mask></defs><g fill="none" fill-rule="evenodd"><use fill="#3377f6" xlink:href="#a"/><g fill="#000" mask="url(#b)" stroke="#4d4d4d"><path d="m.5.5h23.333333v23.333333h-23.333333z" transform="translate(-4 -4)"/></g></g></svg>