<svg height="12" viewBox="0 0 14 12" width="14" 
  xmlns="http://www.w3.org/2000/svg" 
  xmlns:xlink="http://www.w3.org/1999/xlink">
  <defs>
    <path id="a" d="m6.95897352 11.7000462c-.00298741.0000309-.00597852.0000464-.00897323.0000464h-6.10000038c-.46944199 0-.84999991-.3805579-.84999991-.8499999s.38055792-.8499999.84999991-.8499999h3.99102677c.0029874-.0000309.00597851-.0000464.00897322-.0000464h8.3000002c.469442 0 .8499999.3805579.8499999.8499999s-.3805579.8499999-.8499999.8499999zm-.00000048-4.99997152c-.00298741.0000309-.00597851.00004639-.00897323.00004639h-6.09999943c-.46944225 0-.85000038-.38055813-.85000038-.85000038s.38055813-.85000038.85000038-.85000038h3.99102677c.00298741-.0000309.00597851-.00004639.00897323-.00004639h5.29999922c.4694423 0 .8500004.38055813.8500004.85000038s-.3805581.85000038-.8500004.85000038zm.00000048-5.00002849c-.00298741.0000309-.00597852.00004639-.00897323.00004639h-6.10000038c-.46944199 0-.84999991-.38055792-.84999991-.8499999 0-.46944199.38055792-.84999991.84999991-.84999991h3.99102677c.0029874-.0000309.00597851-.00004638.00897322-.00004638h8.3000002c.469442 0 .8499999.38055792.8499999.8499999s-.3805579.8499999-.8499999.8499999z"/>
    <mask id="b">
      <use fill-rule="evenodd" xlink:href="#a"/>
    </mask>
  </defs>
  <g fill-rule="evenodd">
    <use xlink:href="#a"/>
    <g mask="url(#b)">
      <path d="m0 0h18v18h-18z" transform="translate(-2 -3)"/>
    </g>
  </g>
</svg>