<svg height="165" viewBox="0 0 160 165" width="160" xmlns="http://www.w3.org/2000/svg" xmlns:xlink="http://www.w3.org/1999/xlink"><linearGradient id="a" x1="50%" x2="50%" y1="0%" y2="100%"><stop offset="0" stop-color="#c20b06"/><stop offset="1" stop-color="#c30e09"/></linearGradient><linearGradient id="b" x1="50%" x2="50%" y1="0%" y2="100%"><stop offset="0" stop-color="#d7150f"/><stop offset="1" stop-color="#e3211b"/></linearGradient><g fill="none"><path d="m3 160c-1.65685425 0-3-1.343146-3-3v-154c0-1.65685425 1.34314575-3 3-3h154c1.656854 0 3 1.34314575 3 3v154c0 1.656854-1.343146 3-3 3h-70l-5.0789873 4.234206c-1.1126994.927625-2.729326.927625-3.8420254 0l-5.0789873-4.234206z" fill="#fff"/><path d="m146.145156 146.068283c-.042228 1.22576-.084584 2.451775-.126812 3.677536h3.550725c.49558-.528424.298261-2.569203.253623-3.550725-1.225761-.042228-2.451775-.084583-3.677536-.126811zm-7.862319 3.804347c.042228-1.267989.084583-2.536358.126812-3.804347h-7.481885v3.677536c2.451522.042228 4.903551.084583 7.355073.126811zm-14.963768-.126811c1.225761.042228 2.451775.084583 3.677536.126811.042228-1.267989.084583-2.536358.126812-3.804347h-3.677537c-.042228 1.22576-.084583 2.451775-.126811 3.677536zm-67.9710147-.126812c.8081703.382464 2.4725725.288623 3.6775363.253623.0422282-1.267989.0845833-2.536358.1268116-3.804347h-3.8043479zm71.7753627-3.550724h3.804347v-3.804348h-3.677536c-.042228 1.267989-.084583 2.536358-.126811 3.804348zm-18.894928-3.804348v3.677536c1.267989.042228 2.536359.084583 3.804348.126812v-3.804348zm-18.8949274 3.804348h-3.6775362v3.677536c6.213134.042228 12.4281703.084583 18.6413046.126811 2.669511-5.502608-6.4648554-3.92076-11.032609-3.804347-.0422282-1.26799-.0845833-2.536359-.1268116-3.804348h-3.6775362c-.0422283 1.267989-.0845833 2.536358-.1268116 3.804348zm-41.4673913-3.804348v7.481884c1.2257609.042228 2.4517754.084583 3.6775362.126811.0422283-1.267989.0845834-2.536358.1268116-3.804347h3.6775362c.0422283-1.26799.0845834-2.536359.1268116-3.804348zm45.3985507-3.804348c-.0422282 1.267989-.0845833 2.536359-.1268116 3.804348h15.0905796v-3.677536c-4.987373-.042229-9.9763948-.084584-14.963768-.126812zm56.431159 3.804348c.042229-2.451395.084584-4.903678.126812-7.355073-1.267989-.042228-2.536359-.084583-3.804348-.126811v3.677536h-3.804348v3.677536c2.493624.042228 4.988261.084584 7.481884.126812zm-60.3623184-3.677536c-1.2257609-.042229-2.4517754-.084584-3.6775362-.126812v-3.550725c-1.2679892-.042228-2.5363587-.084583-3.8043479-.126811v7.481884h7.4818841zm3.6775362-3.804348c.0422283-1.267989.0845834-2.536359.1268116-3.804348h-3.6775362c-.0422283 1.183406-.0845833 2.367319-.1268116 3.550725.8081703.382463 2.4725725.288623 3.6775362.253623zm-75.3260869 7.481884h11.2862319v-11.286232h-11.2862319zm124.5289851-7.481884h3.804348v-7.608696h-3.804348zm-86.8659417-3.93116c1.2257609.042229 2.4517754.084584 3.6775363.126812.0422282-1.225761.0845833-2.451775.1268116-3.677536-1.2257609-.042229-2.4517754-.084584-3.6775363-.126812-.0422282 1.183406-.0845833 2.367319-.1268116 3.550725zm71.7753627-7.355072c-1.225761-.042228-2.451776-.084583-3.677537-.126812-.042228 1.225761-.084583 2.451776-.126811 3.677536 1.225761.042229 2.451775.084584 3.677536.126812.042228-1.225761.084583-2.451775.126812-3.677536zm-22.826087 11.286232c.149637-.246649.460199-2.672808.126811-3.550725-.528424-.49558-2.569203-.298261-3.550724-.253623-.042229-2.49375-.084584-4.988134-.126812-7.481884-1.2679891-.042228-2.5363586-.084583-3.8043478-.126812v11.286232c2.451395.042228 4.9035508.084583 7.3550728.126812zm-26.2500003-7.608696h-11.1594203c-.0422282 1.225761-.0845833 2.451775-.1268116 3.677536-1.2257608.042229-2.4517753.084584-3.6775362.126812-.0422283 1.225761-.0845833 2.451775-.1268116 3.677536 1.2257609.042228 2.4517754.084583 3.6775362.126812.0422283 1.183406.0845834 2.367319.1268116 3.550724-1.2679891.042229-2.5363587.084584-3.8043478.126812v-3.677536h-7.3550725c-.2940761-.647247.1027174-2.03-.2536232-3.423913.0422283-.126812.0845834-.253624.1268116-.380435h-11.4130434v7.481884h-3.5507247c-.3824637.80817-.2886232 2.472572-.2536232 3.677536 2.5359783.042228 5.0727174.084584 7.6086957.126812v-7.481884h3.6775362c.0422283 1.225761.0845834 2.451775.1268116 3.677536h3.5507247c.3502536.984058.4622282 2.538388.1268115 3.677536 1.2257609.042228 2.4517754.084584 3.6775363.126812.0422282 1.267989.0845833 2.536358.1268116 3.804348h3.6775362c.0422283 1.22576.0845833 2.451775.1268116 3.677536 1.2257609.042228 2.4517754.084583 3.6775362.126811.0422283-1.267989.0845834-2.536358.1268116-3.804347h14.9637681c.0422283-1.26799.0845834-2.536359.1268116-3.804348h-3.6775362c-.0422283-1.225761-.0845833-2.451776-.1268116-3.677536-1.1834058-.042229-2.3673188-.084584-3.5507246-.126812-.3946377.835181-.2884964 2.568569-.2536232 3.804348h-3.6775362v-7.481884h7.3550724c.0422283-1.225761.0845833-2.451776.1268116-3.677537 1.2257609-.042228 2.4517754-.084583 3.6775362-.126811.0422283-2.535978.0845834-5.072717.1268116-7.608696h-3.8043478zm-22.5724638 0v-3.677536c-2.5359782-.042228-5.0727173-.084583-7.6086956-.126812v3.677536c2.5359783.042229 5.0727174.084584 7.6086956.126812zm-41.4673913 0h18.6413044c.0422282 6.255362.0845833 12.512754.1268116 18.768116-6.2553623.042228-12.5127536.084583-18.768116.126812zm-3.9311594 22.572464c8.7913406.042228 17.585471.084583 26.3768116.126811.0422283-8.79134.0845833-17.585471.1268116-26.376811-8.7913406-.042228-17.585471-.084583-26.3768116-.126812-.0422283 8.791341-.0845833 17.585471-.1268116 26.376812zm135.9420288-22.572464h3.677536c.042229-2.451395.084584-4.903677.126812-7.355072-2.493623-.042229-4.988261-.084584-7.481884-.126812-.042228 1.225761-.084583 2.451775-.126812 3.677536h3.677537c.042228 1.267989.084583 2.536359.126811 3.804348zm-83.061594-3.804348h3.6775362c.0422283-1.225761.0845834-2.451775.1268116-3.677536h-3.8043478zm30.1811594 3.804348v-3.677536c1.2679892-.042228 2.5363587-.084583 3.8043478-.126812v-3.677536c-1.2257608-.042228-2.4517753-.084583-3.6775362-.126812-.0422282 1.26799-.0845833 2.536359-.1268116 3.804348h-3.8043478v3.677536c1.2679891.042229 2.5363587.084584 3.8043478.126812zm-15.0905797-3.804348v-7.481884h-3.8043478v7.355073c1.2679891.042228 2.5363587.084583 3.8043478.126811zm-11.2862319-3.677536h3.5507247c.3946376-.835181.2884963-2.568569.2536232-3.804348h-3.8043479zm-18.8949275 3.677536v-7.481884h-3.8043478v3.677536h-3.5507247c-.4788406 1.034276-.6322826 9.923134-.1268116 11.159421.5433877.508514 2.6744566.298007 3.6775363.253623v-7.481884c1.2679891-.042228 2.5363587-.084583 3.8043478-.126812zm-15.0905797-7.481884v3.677536c1.1834058.042229 2.3673188.084584 3.5507246.126812.3824638-.80817.2886232-2.472572.2536232-3.677536-1.2679891-.042228-2.5363587-.084584-3.8043478-.126812zm-11.2862319 0v3.677536c2.4515217.042229 4.9035507.084584 7.3550725.126812.0422282-1.267989.0845833-2.536359.1268116-3.804348zm-4.057971 3.677536c.4955797-.528423.2982608-2.569202.2536232-3.550724-2.4936232-.042228-4.9882609-.084584-7.4818841-.126812-.0422283 1.183406-.0845833 2.367319-.1268116 3.550725 1.1651449.549221 5.9941304.697717 7.3550725.126811zm53.134058-3.677536h3.6775362v-3.804348h-3.6775362zm-30.3079711-3.804348c.0422283 1.183406.0845834 2.367319.1268116 3.550725.5433877.508514 2.6744566.298007 3.6775363.253623v-3.677536c-1.2679892-.042228-2.5363587-.084583-3.8043479-.126812zm79.5108694-3.804347c-.042228 1.267989-.084583 2.536358-.126811 3.804347h3.677536v-3.804347zm-30.1811592 0c-.7596015 1.649945-.2879891 5.330525-.2536232 7.481884-1.2257609.042228-2.4517754.084583-3.6775362.126811v3.550725c-.8351812.394638-2.5685689.288496-3.8043479.253623v3.677536h7.4818841v-3.550724c1.2679891-.042229 2.5363587-.084584 3.8043478-.126812v-7.481884c1.2679892-.042228 2.5363587-.084583 3.8043478-.126812v-3.677536c-2.4515217-.042228-4.9036775-.084583-7.3550724-.126811zm56.4311592 3.677536c-1.267989.042228-2.536358.084583-3.804348.126811v3.677537c2.493624.042228 4.988261.084583 7.481884.126811v-11.286232h-7.481884v3.677537h3.677537c.042228 1.22576.084583 2.451775.126811 3.677536zm-109.311594-7.481884c-.0422283 1.225761-.0845833 2.451775-.1268116 3.677536-1.2679891.042228-2.5363587.084583-3.8043478.126812v3.677536c2.4936232.042228 4.988134.084583 7.481884.126811v-7.608695zm-11.5398551.126811c-1.0989492-.042228-2.1981521-.084583-3.2971014-.126811-.9786051 1.154873-.4249457 5.673297-.3804348 7.608695h7.4818841v-3.804348h-3.6775363c-.0422282-1.22576-.0845833-2.451775-.1268116-3.677536zm105.7608691 26.25c-3.719384.042229-7.440036.084584-11.15942.126812-.042228-3.761739-.084583-7.524493-.126811-11.286232h11.286231zm3.93116 3.93116c-.042228-1.267989-.084583-2.536359-.126812-3.804348h3.677537v-3.677536c1.267989-.042229 2.536358-.084584 3.804347-.126812v-3.804348h-3.677536c-.042228-1.225761-.084583-2.451775-.126811-3.677536-1.141178-.042228-2.282736-.084583-3.423913-.126812-.508515-.543387-.298008-2.674456-.253624-3.677536h3.550725c.042228-1.225761.084583-2.451775.126812-3.677536 1.267989-.042228 2.536358-.084583 3.804347-.126812v-3.804348h-7.355072c-.042228 2.493751-.084583 4.988135-.126812 7.481885-2.493623.042228-4.988261.084583-7.481884.126811-.042228-1.267989-.084583-2.536359-.126811-3.804348h-3.804348v3.677537c-1.183406.042228-2.367319.084583-3.550725.126811-.042228-1.267989-.084583-2.536359-.126811-3.804348h-3.804348v-7.481884h-3.550725c-.43788-.769239-.291286-2.618152-.253623-3.804348h-3.677536c-.042229 2.49375-.084584 4.988134-.126812 7.481884h3.677536c.042229 1.225761.084584 2.451776.126812 3.677537-1.267989.042228-2.536359.084583-3.804348.126811v3.677537c1.267989.042228 2.536359.084583 3.804348.126811v3.677536c1.225761.042229 2.451775.084584 3.677536.126812.042228 1.183406.084584 2.367319.126812 3.550725-1.225761.042228-2.451776.084583-3.677536.126811-.042229 1.225761-.084584 2.451776-.126812 3.677536-1.267989.042229-2.536359.084584-3.804348.126812v7.481884c2.493623.042228 4.988134.084583 7.481884.126812.042228 1.183406.084584 2.367319.126812 3.550724-1.225761.042229-2.451776.084584-3.677536.126812-.042229 1.267989-.084584 2.536359-.126812 3.804348h3.677536c.042228 1.225761.084584 2.451775.126812 3.677536-1.267989.042228-2.536359.084583-3.804348.126812v3.677536c2.451395.042228 4.903551.084583 7.355072.126811.759602-1.649945.288116-5.330525.253624-7.481884 1.22576-.042228 2.451775-.084583 3.677536-.126811v-3.677536c-1.225761-.042229-2.451776-.084584-3.677536-.126812v-3.677536h11.15942c.042228 2.49375.084583 4.988134.126811 7.481884h7.481885v-3.550725c.835181-.394638 2.568568-.288496 3.804347-.253623v-3.677536zm-30.18116-15.09058c-.477065-1.086395-.428496-5.524928-.126811-7.608696h3.677536v-3.804347h-3.677536l-.126812-.126812v-7.355072h-3.677536v11.15942c-1.2679891.042228-2.5363586.084583-3.8043478.126811v3.677537c1.2257609.042228 2.4517754.084583 3.6775358.126811.042229 2.49375.084584 4.988134.126812 7.481884h3.550725c.084456 1.267989.169166 2.536359.253623 3.804348h3.677536v-7.481884zm-26.5036227-21.1775362c-.0422283.7185145-.0845833 1.4372826-.1268116 2.1557972 1.2679891.042228 2.5363587.084583 3.8043478.126812v-2.1557976c-1.2257608-.0422283-2.4517753-.0845834-3.6775362-.1268116zm-7.6086956 9.8913042c3.719384-.042228 7.4400362-.084583 11.1594202-.126811.0422283-1.225761.0845834-2.451776.1268116-3.677537h-7.3550724c-.675145-1.459347-.1616848-4.163478-.1268116-5.9601446-1.2679892-.0422283-2.5363587-.0845834-3.8043478-.1268116v5.8333332c-.615924.277591-3.2750363.251594-3.8043479.126812v7.608695h3.8043479zm71.6485503-7.735507c1.225761.042228 2.451776.084583 3.677537.126811.042228-1.2679887.084583-2.5363582.126811-3.8043473h-3.677536c-.042228 1.2257608-.084583 2.4517753-.126812 3.6775363zm-56.5579706-2.1557972c-.0422283.7607427-.0845834 1.5218662-.1268116 2.2826092h-3.6775363v3.677536c1.1411776.042228 2.2827355.084583 3.4239131.126811.606413-.612246.4323007-2.592409.3804348-3.804347h3.6775362v3.550724c1.3741304.642174 5.4395833.101069 7.2282609.253623.978605-1.154873.4249456-5.6732968.3804347-7.6086953h-.1268115c-2.49375 1.7407427-6.6988225 1.5974456-11.1594203 1.5217391zm-30.5615942 5.9601452c.7436231-.619475-.1186957-3.277065.3804347-3.677536h3.6775363v3.677536l-.2536232.126811c-1.1411776-.042228-2.2827355-.084583-3.4239131-.126811v7.355072c-.7451449.424819-2.5198731.291413-3.6775362.253623-.0422283-2.49375-.0845833-4.988134-.1268116-7.481884l-.2536232-.126811c-1.0989492.042228-2.1981521.084583-3.2971014.126811l-.2536232-.126811v11.413043c2.5359783.042228 5.0727174.084584 7.6086956.126812-.0422282 2.451395-.0845833 4.903677-.1268116 7.355072h3.8043479v-7.355072c2.5359782-.042228 5.0727174-.084584 7.6086956-.126812v-3.804348h-7.481884c-.0422283-1.225761-.0845834-2.451775-.1268116-3.677536 1.2679891-.042228 2.5363587-.084583 3.8043478-.126811v-3.677537c1.0989493-.042228 2.1981522-.084583 3.2971014-.126811.7847102.031449.5962682-2.408913.5072464-3.550725-1.2257608-.042228-2.4517753-.084583-3.6775362-.126811-.0422283-1.2679897-.0845833-2.5363592-.1268116-3.8043483h-11.2862319v7.6086953c1.1411776-.042228 2.2827355-.084583 3.4239131-.126811zm64.5471018-11.2862322c-.042229 1.1834058-.084584 2.3673189-.126812 3.5507247v.1268116c1.267989.0422282 2.536359.0845833 3.804348.1268116v-3.8043479zm-79.2572468 11.1594202c.7163587.640018 5.3382609.302573 7.3550725.253623.0422283-2.49375.0845833-4.9881338.1268116-7.4818838 1.2679891-.0422282 2.5363587-.0845833 3.8043478-.1268115v-3.8043479h-11.2862319zm-3.8043478-11.0326086c-1.2257609-.0422282-2.4517754-.0845833-3.6775362-.1268116-.0422283 1.2679892-.0845834 2.5363587-.1268116 3.8043479h3.6775362c.0422283-1.2257609.0845833-2.4517754.1268116-3.6775363zm-26.3768116 14.9637686c-.0422283 1.22576-.0845833 2.451775-.1268116 3.677536 2.4936232.042228 4.9882609.084583 7.4818841.126811.0422282-3.761739.0845833-7.524492.1268116-11.286231h3.6775362c.0422283-1.2257614.0845833-2.4517759.1268116-3.6775368-1.2257609-.0422282-2.4517754-.0845833-3.6775362-.1268115-.0422283-1.2257609-.0845834-2.4517754-.1268116-3.6775363-2.4936232-.0422282-4.9882609-.0845833-7.4818841-.1268116-.0422283 2.49375-.0845833 4.9881341-.1268116 7.4818842 1.2679891.042228 2.5363587.084583 3.8043478.126812v7.481884zm109.4384062-11.2862323h-3.677537c-.042228-2.5359783-.084583-5.0727174-.126811-7.6086957h-3.677536c-.042229 1.2257609-.084584 2.4517754-.126812 3.6775362-1.225761.0422283-2.451775.0845834-3.677536.1268116-.042229 1.2257609-.084584 2.4517754-.126812 3.6775363 1.225761.0422282 2.451775.0845833 3.677536.1268116.042229 1.2679891.084584 2.5363586.126812 3.8043483h7.355072c.394638-.8351817.288497-2.5685694.253624-3.8043483zm-15.09058-7.4818841c-1.944276-.0422283-3.889058-.0845833-5.8333334-.1268116-.664366 1.2156159.2375181 3.4118659-.2536232 4.9456522-.3804348.7185145-.7608696 1.4372826-1.1413044 2.1557971l-.3804348.3804348v.1268116h7.4818838c.042229-2.49375.084584-4.9881341.126812-7.4818841zm-67.9710146 15.0905794v-3.677536c-1.2257609-.042228-2.4517754-.084583-3.6775362-.126812-.0422283-1.2679887-.0845834-2.5363582-.1268116-3.8043473h-3.6775363c-.0422282-1.2257609-.0845833-2.4517754-.1268115-3.6775363-1.2257609-.0422282-2.4517754-.0845833-3.6775363-.1268116-.0422282-1.2679891-.0845833-2.5363587-.1268116-3.8043478h-3.6775362v3.8043478h3.6775362v7.4818842c1.2679892.042228 2.5363587.084583 3.8043479.126811v7.481884h3.8043478v-3.677536zm94.3478256-15.0905794c-1.267989-.0422283-2.536358-.0845833-3.804347-.1268116v-3.6775362h-3.677537c-.042228 2.49375-.084583 4.988134-.126811 7.481884h3.677536c.042228 1.2257609.084583 2.4517754.126812 3.6775363-1.267989.0422282-2.536359.0845833-3.804348.1268116v11.2862313h3.677536c.042228 1.26799.084583 2.536359.126812 3.804348h3.677536c.042228-4.987373.084583-9.976395.126811-14.9637678 1.225761-.0422282 2.451776-.0845833 3.677537-.1268115.042228-1.2679892.084583-2.5363587.126811-3.8043479h-3.804348zm-22.699275-3.8043478h-3.677536c-.042228 1.1834058-.084583 2.3673188-.126812 3.5507246 1.267989.0422283 2.536359.0845833 3.804348.1268116zm-71.7753622 3.6775362c.0422283-1.1834058.0845833-2.3673188.1268116-3.5507246-1.2679891-.0422283-2.5363587-.0845834-3.8043478-.1268116v3.6775362zm-26.3768116-.1268116c1.2679891.0422283 2.5363587.0845833 3.8043478.1268116v-3.6775362h-3.6775362c-.0422283 1.1834058-.0845833 2.3673188-.1268116 3.5507246zm90.6702898-7.3550725v3.6775363c1.267989.0422282 2.536359.0845833 3.804348.1268116-.042228-1.2679892-.084583-2.5363587-.126812-3.8043479zm-2.155797-3.8043478c-.0422283 1.2257609-.0845834 2.4517754-.1268116 3.6775362.7608695.0422283 1.5217391.0845834 2.2826086.1268116v-3.8043478zm-50.7246377 7.6086957h3.6775362c.0422283-2.5359783.0845834-5.0727174.1268116-7.6086957h-3.8043478zm94.3478257-11.4130435h-3.550724c-.772283 1.6784783-.287989 5.4253804-.253623 7.6086956h3.804347zm-117.0471011 7.6086956v7.4818841h3.8043479v-3.5507246c1.2679891-.0422283 2.5363586-.0845834 3.8043478-.1268116v-3.6775363c1.2257608-.0422282 2.4517753-.0845833 3.6775362-.1268116.0422283-1.2257608.0845833-2.4517753.1268116-3.6775362-2.49375-.0422283-4.9882609-.0845833-7.4818841-.1268116-.0422282-1.2679891-.0845833-2.5363587-.1268115-3.8043478h-11.2862319v7.481884c-1.2257609.0422283-2.4517754.0845834-3.6775363.1268116-.0422282 1.2679892-.0845833 2.5363587-.1268116 3.8043479h3.6775363c.0422282 1.2257608.0845833 2.4517753.1268116 3.6775362h3.8043478v-7.4818841zm-15.0905797-3.9311594c1.2257609.0422283 2.4517754.0845834 3.6775362.1268116.0422283-1.2679891.0845834-2.5363587.1268116-3.8043478-1.1834058.0422283-2.3673188.0845833-3.5507246.1268116-.4955797.5284239-.2982609 2.5692029-.2536232 3.5507246zm132.1376808-3.6775362h3.804348v-3.6775362h-3.804348zm-22.572463 7.6086956h3.550724c.042229-1.2257608.084584-2.4517753.126812-3.6775362 1.225761-.0422283 2.451775-.0845833 3.677536-.1268116.042228 2.5359783.084583 5.0727174.126812 7.6086957h7.481884c.042228 2.49375.084583 4.988134.126811 7.481884h11.159421c.042228 1.2679892.084583 2.5363587.126811 3.8043479h3.677536c.042229-2.451395.084584-4.9036776.126812-7.3550725-.835181-.3946377-2.568569-.2884964-3.804348-.2536232v-3.6775362c1.183406-.0422283 2.367319-.0845834 3.550725-.1268116.665253-.7502174.283804-9.363895.253623-11.1594203-1.267989-.0422283-2.536359-.0845833-3.804348-.1268116v7.481884c-1.267989.0422283-2.536358.0845834-3.804348.1268116v7.4818841h-3.677536c-.042228-2.49375-.084583-4.9881341-.126811-7.4818841h-7.355073c-.042228-2.49375-.084583-4.988134-.126812-7.481884-1.267989-.0422283-2.536358-.0845833-3.804347-.1268116v-3.6775362h-3.804348v3.6775362h-3.677536v-3.6775362h-7.608696v7.3550724c-1.225761.0422283-2.451775.0845834-3.677536.1268116-.042229 1.2257609-.084584 2.4517754-.126812 3.6775362 1.225761.0422283 2.451775.0845834 3.677536.1268116.042229 1.2257609.084584 2.4517754.126812 3.6775363 1.225761.0422282 2.451775.0845833 3.677536.1268116.042228 1.2257608.084584 2.4517753.126812 3.6775362h3.677536c.042228-2.49375.084583-4.9881341.126812-7.4818841zm-83.0615946-11.2862318h-7.4818841c-.0422282 1.2257608-.0845833 2.4517753-.1268115 3.6775362h7.481884c.0422283-1.2257609.0845833-2.4517754.1268116-3.6775362zm71.7753626-3.8043479c-.042229 1.1834058-.084584 2.3673189-.126812 3.5507247.835181.3946377 2.568569.2884963 3.804348.2536232v-3.8043479zm-3.804348.1268116c-1.267989-.0422282-2.536359-.0845833-3.804348-.1268116v11.2862319h3.677536c.042229-3.719384.084584-7.4400362.126812-11.1594203zm-64.1666668 0c-1.2679891-.0422282-2.5363587-.0845833-3.8043478-.1268116v3.8043479h3.6775362c.0422283-1.2257609.0845834-2.4517754.1268116-3.6775363zm-18.8949275 3.5507247c1.1834058.0422282 2.3673188.0845833 3.5507246.1268116.0422283-1.2679892.0845834-2.5363587.1268116-3.8043479h-3.6775362zm7.4818841-7.4818841v3.6775362c2.5359782.0422283 5.0727173.0845834 7.6086956.1268116v-3.6775362c-2.5359783-.0422283-5.0727174-.0845833-7.6086956-.1268116zm86.8659422-3.6775362c-1.225761-.0422283-2.451776-.0845834-3.677536-.1268116-.042229 2.5359782-.084584 5.0727174-.126812 7.6086956h3.677536c.042228-2.49375.084584-4.988134.126812-7.481884zm-7.608696 3.6775362v-3.6775362c-2.49375-.0422283-4.988261-.0845834-7.481884-.1268116v3.8043478zm-60.3623187 26.3768116v-3.6775362h-3.6775362c-.0422283-2.49375-.0845834-4.9881341-.1268116-7.4818841 1.2679891-.0422283 2.5363587-.0845833 3.8043478-.1268116v-7.481884h3.6775362c.0422283 2.49375.0845834 4.988134.1268116 7.481884h3.6775362v7.3550725c.8351812.3946377 2.5685689.2884964 3.8043479.2536232v3.6775362h-7.3550725c-.0422283 1.2679891-.0845833 2.5363587-.1268116 3.8043478h7.4818841v-3.6775362c.7185145-.0422283 1.4372826-.0845833 2.1557971-.1268116.0422282-2.4513949.0845833-4.9036775.1268116-7.3550725-.7185145-.0422282-1.4372826-.0845833-2.1557971-.1268116-.0422283-1.2257608-.0845834-2.4517753-.1268116-3.6775362.7185145-.0422283 1.4372826-.0845833 2.1557971-.1268116.0422282-1.2257609.0845833-2.4517753.1268116-3.6775362-.7185145-.0422283-1.4372826-.0845833-2.1557971-.1268116-.0422283-1.1834058-.0845834-2.3673189-.1268116-3.5507246.6762862-.0845834 1.3526992-.1690399 2.0289855-.2536232.8282065-.9921739-.1933877-3.4093297.2536232-4.8188406.6662681-2.1005073 2.5340761-4.0709058 5.1992753-4.1847826.0422283-.7185145.0845834-1.4372826.1268116-2.1557971-2.5359782-.0422283-5.0727174-.0845834-7.6086956-.1268116v3.8043478h-3.6775363v3.423913c-1.0543116.8827356-9.1090036.4155616-11.2862318.3804348-.0422283 1.2257609-.0845834 2.4517754-.1268116 3.6775363-1.2679892.0422282-2.5363587.0845833-3.8043479.1268116v18.6413043c2.5359783.0422283 5.0727174.0845833 7.6086957.1268116zm0-26.5036232c1.2257609.0422283 2.4517754.0845833 3.6775362.1268116.0422283-1.2679891.0845834-2.5363587.1268116-3.8043478h-3.6775362c-.0422283 1.2257608-.0845833 2.4517753-.1268116 3.6775362zm3.9311594-7.481884c-.0422283 1.2679891-.0845833 2.5363586-.1268116 3.8043478h7.4818841v-3.6775363c-2.4515218-.0422282-4.9036776-.0845833-7.3550725-.1268115zm-11.5398551 3.6775362c1.2679892.0422282 2.5363587.0845833 3.8043479.1268116v-3.8043478h-3.4239131c-.5389493.6969565-.4292572 2.4106884-.3804348 3.6775362zm-3.6775362-3.4239131c-1.1834058-.0844565-2.3673188-.1690398-3.5507246-.2536231-.4929167.6572644-.294837 2.7042572-.2536232 3.8043478h3.6775362c.0422283-1.1834058.0845833-2.3673189.1268116-3.5507247zm-11.1594203-.2536231c-.7596014 1.6499456-.2879891 5.3305253-.2536232 7.481884 1.2679892.0422283 2.5363587.0845833 3.8043479.1268116v-7.4818841c-1.1834058-.0422282-2.3673189-.0845833-3.5507247-.1268115zm-7.7355072 3.8043478h3.6775362c.0422283-1.1834058.0845833-2.3673189.1268116-3.5507247-1.1834058-.0844565-2.3673188-.1690398-3.5507246-.2536231-.4929167.6572644-.294837 2.7042572-.2536232 3.8043478zm90.5434781-3.9311594c.847482.3889311 2.255852.0715217 3.550725.2536231.437753-.7692391.291286-2.6181521.253623-3.8043478h-3.677536c-.042229 1.1834058-.084584 2.3673189-.126812 3.5507247zm-7.355072.2536231c1.183405-.0422282 2.367318-.0845833 3.550724-.1268115.042229-1.1411776.084584-2.2827356.126812-3.4239131-.769239-.4377536-2.618152-.2912862-3.804348-.2536232v3.8043478zm-37.916667-3.8043478h-3.8043478v3.8043478c1.1834058-.0422282 2.3673188-.0845833 3.5507246-.1268115.5085145-.5433877.2980073-2.6744566.2536232-3.6775363zm-30.1811594-.1268116c1.2257608.0422283 2.4517753.0845834 3.6775362.1268116.0422283-1.2679891.0845833-2.5363587.1268116-3.8043478h-3.8043478zm-11.4130435 15.2173913c.0422283-1.2257608.0845833-2.4517753.1268116-3.6775362-2.49375-.0422283-4.9882609-.0845833-7.4818841-.1268116-.0422282-3.7193841-.0845833-7.4400362-.1268116-11.1594203 1.2257609-.0422282 2.4517754-.0845833 3.6775363-.1268116.0422282-1.2679891.0845833-2.5363587.1268116-3.8043478h-7.4818841c-.0422283 7.4811232-.0845833 14.964529-.1268116 22.4456522.8351812.3946377 2.5685689.2884963 3.8043478.2536232v3.6775362h3.8043479v-7.4818841zm120.9782609-18.8949275c-.042228 1.2257609-.084583 2.4517754-.126812 3.6775362 1.225761.0422283 2.451776.0845834 3.677537.1268116.042228 1.2257609.084583 2.4517754.126811 3.6775363-2.493623.0422282-4.988261.0845833-7.481884.1268115-.042228-1.2679891-.084583-2.5363586-.126811-3.8043478h-3.677537v3.6775363h3.550725c.042228 2.5359782.084583 5.0727173.126812 7.6086956h-7.355073c-.042228 2.49375-.084583 4.9881341-.126812 7.4818841 2.451522.0422282 4.903551.0845833 7.355073.1268116.042228-1.2257609.084583-2.4517754.126812-3.6775363 1.22576-.0422282 2.451775-.0845833 3.677536-.1268116.042228-2.49375.084583-4.988134.126811-7.481884 1.225761-.0422283 2.451776-.0845834 3.677537-.1268116.042228 2.49375.084583 4.988134.126811 7.481884 1.225761.0422283 2.451776.0845834 3.677536.1268116.042229-7.5233514.084584-15.0491123.126812-22.5724637-1.267989-.0422283-2.536359-.0845834-3.804348-.1268116v3.6775362c-1.225761.0422283-2.451775.0845833-3.677536.1268116zm-26.503623-3.6775362c-2.49375-.0422283-4.988261-.0845834-7.481884-.1268116-.042229 1.2257608-.084584 2.4517753-.126812 3.6775362 1.225761.0422283 2.451775.0845833 3.677536.1268116.042229 1.2679891.084584 2.5363587.126812 3.8043478h3.677536c.042228-2.49375.084584-4.988134.126812-7.481884zm-53.0072466 3.6775362c.0422283-1.2257609.0845833-2.4517754.1268116-3.6775362-1.2679891-.0422283-2.5363587-.0845834-3.8043478-.1268116v3.8043478zm64.1666666 18.8949275c.042228-3.7617391.084583-7.5244927.126812-11.2862319l.126811-.1268115h3.423913c.508515-.5433877.298008-2.6744566.253623-3.6775363h3.804348v-3.6775362c-1.225761-.0422283-2.451775-.0845833-3.677536-.1268116-.042228-1.2257609-.084583-2.4517754-.126812-3.6775362 5.029602-.0422283 10.060979-.0845834 15.09058-.1268116v-3.6775363h-18.641304c-.890344.98875-.293949 5.7152718-.253623 7.3550725-2.49375.0422283-4.988261.0845833-7.481884.1268116v3.6775362c2.493623.0422283 4.988134.0845834 7.481884.1268116v3.6775363h-7.355073c-.084456 4.9873731-.169166 9.9763949-.253623 14.9637681v.1268116c1.267989.0422282 2.536359.0845833 3.804348.1268116v-3.6775363c1.225761-.0422282 2.451775-.0845833 3.677536-.1268116zm-3.677536-22.6992753v-3.6775363c-1.267989-.0422282-2.536359-.0845833-3.804348-.1268116.042228 1.2679892.084583 2.5363587.126812 3.8043479zm-101.8297103 7.481884c1.1834058.0422283 2.3673188.0845834 3.5507246.1268116.0422283-2.49375.0845834-4.988134.1268116-7.481884-1.2257608-.0422283-2.4517753-.0845834-3.6775362-.1268116v-3.5507247c-.8081703-.3824637-2.4725725-.2886232-3.6775362-.2536232-.0422283 2.5359783-.0845834 5.0727174-.1268116 7.6086957h3.6775362c.0422283 1.2257609.0845833 2.4517754.1268116 3.6775362zm26.3768116-7.481884v-7.4818841h-3.8043478v3.6775362c-4.945145.0422283-9.8918116.0845834-14.8369566.1268116-.8903442.98875-.2939492 5.7152718-.2536231 7.3550725 1.2679891.0422283 2.5363586.0845833 3.8043478.1268116v-3.6775362c1.2257608-.0422283 2.4517753-.0845834 3.6775362-.1268116.0422283 1.2679891.0845833 2.5363587.1268116 3.8043478h3.6775362c.0422283-1.1834058.0845834-2.3673188.1268116-3.5507246.6184602-.5565761 6.1024276-.2871015 7.4818841-.2536232zm52.8804347 3.8043478h3.677536v-15.0905797h-3.677536zm-30.1811593-11.4130435c1.1834057.0422283 2.3673188.0845834 3.5507246.1268116.0422283-1.2679891.0845833-2.5363587.1268116-3.8043478h-3.6775362zm-18.8949276-3.5507246c-1.2257609-.0422283-2.4517753-.0845834-3.6775362-.1268116-.0422283 1.2679891-.0845833 2.5363587-.1268116 3.8043478h3.6775362c.0422283-1.2257609.0845834-2.4517754.1268116-3.6775362zm67.8442029 7.3550724v-11.0326087c-.528424-.4955797-2.569203-.2982608-3.550725-.2536231-.042228 2.49375-.084583 4.988134-.126811 7.481884-1.225761.0422283-2.451776.0845834-3.677536.1268116-.042229-1.2257609-.084584-2.4517754-.126812-3.6775362-1.267989-.0422283-2.536359-.0845834-3.804348-.1268116v7.3550724c3.761739.0422283 7.524493.0845834 11.286232.1268116zm-37.5362319 11.4130435c-.0422282-1.2257608-.0845833-2.4517753-.1268116-3.6775362-1.2257608-.0422283-2.4517753-.0845833-3.6775362-.1268116-.0422283 1.2257609-.0845833 2.4517754-.1268116 3.6775362-1.2257609.0422283-2.4517754.0845834-3.6775362.1268116-.0422283-2.49375-.0845834-4.988134-.1268116-7.481884 2.4936232-.0422283 4.988134-.0845834 7.481884-.1268116.0422283-3.7617392.0845834-7.5244928.1268116-11.2862319h3.6775363c.0422282 6.2553623.0845833 12.5127536.1268116 18.7681159-1.2257609.0422283-2.4517754.0845834-3.6775363.1268116zm14.9637681-7.481884c-1.2257608-.0422283-2.4517753-.0845834-3.6775362-.1268116-.0422282 1.2257608-.0845833 2.4517753-.1268116 3.6775362-1.2257608.0422283-2.4517753.0845833-3.6775362.1268116-.0422283-2.4513949-.0845833-4.9036775-.1268116-7.3550725 1.6784783-.7722826 5.4253804-.2879891 7.6086956-.2536232v-7.3550724c-1.2679891-.0422283-2.5363586-.0845834-3.8043478-.1268116v3.6775362c-1.1834058.0422283-2.3673188.0845834-3.5507246.1268116-.3824638-.8081703-.2886232-2.4725725-.2536232-3.6775362 1.2679891-.0422283 2.5363587-.0845834 3.8043478-.1268116v-7.4818841c-1.2679891-.0422282-2.5363587-.0845833-3.8043478-.1268116v3.8043479h-14.9637681c-.0422283 1.2679891-.0845834 2.5363587-.1268116 3.8043478h3.8043478v7.481884h-11.2862319v7.4818841c1.2257609.0422283 2.4517754.0845833 3.6775363.1268116.0422282 2.49375.0845833 4.9881341.1268116 7.4818841 1.2257608.0422282 2.4517753.0845833 3.6775362.1268115v3.5507247c1.2679891.0422282 2.5363587.0845833 3.8043478.1268116v-3.6775363c1.1834058-.0422282 2.3673189-.0845833 3.5507246-.1268115.6633515 1.188605.2903986 4.2820471.2536232 5.9601449 1.2257609.0422282 2.4517754.0845833 3.6775363.1268116.0422282-.7185145.0845833-1.4372826.1268116-2.1557971 1.1834058-.0422283 2.3673188-.0845834 3.5507246-.1268116.0844565.7607427.1691667 1.5218659.2536232 2.2826087 3.1687681-.0181341 5.0372101.3548188 6.9746377 1.1413043l.3804348.3804348c.0422282-1.2257609.0845833-2.4517754.1268115-3.6775362 1.2679892-.0422283 2.5363587-.0845834 3.8043478-.1268116v-3.6775363h-3.423913c-.6273369-.5615217-.4342029-2.6298188-.3804348-3.8043478h3.8043478v-3.8043478h-3.6775362c-.0422282-1.2257609-.0845833-2.4517754-.1268116-3.6775362zm33.9855068-15.2173913h11.286232v-11.2862319h-11.286232zm-30.307971-3.8043479c.042229 1.2679892.084584 2.5363587.126812 3.8043479h3.677536v3.8043478h3.804348v-3.6775362c1.225761-.0422283 2.451775-.0845834 3.677536-.1268116.042229-2.49375.084584-4.9881341.126812-7.4818841h-3.550725c-.394637-.8351812-.288496-2.5685688-.253623-3.8043478h-3.804348c.042229 2.4091666.084584 4.8190942.126812 7.2282608v.1268116c-1.267989.0422283-2.536359.0845834-3.804348.1268116v-3.5507246c-1.2679891-.0422283-2.5363586-.0845833-3.8043478-.1268116v3.6775362zm-82.9347821 3.8043479h11.2862319v-11.2862319h-11.2862319zm101.9565221-14.9637682c-1.225761-.0422282-2.451776-.0845833-3.677537-.1268115-.042228 3.7617391-.084583 7.5244927-.126811 11.2862318h3.677536c.042228-3.719384.084583-7.4400362.126812-11.1594203zm-15.09058-.1268115h-3.804348v3.6775362c1.225761.0422282 2.451775.0845833 3.677536.1268116l.126812-.1268116zm-56.6847827 11.2862318v-7.481884h-3.6775362c-.0422283-1.2257609-.0845834-2.4517754-.1268116-3.6775363-1.2257609-.0422282-2.4517754-.0845833-3.6775363-.1268115-.0422282 7.4811231-.0845833 14.9645289-.1268116 22.4456521.8351812.3946377 2.5685689.2884964 3.8043479.2536232v-11.2862319c1.2679891-.0422282 2.5363587-.0845833 3.8043478-.1268116zm79.3840577 7.6086957v-18.8949275h18.641305c.042228 6.2553623.084583 12.5127536.126811 18.7681159-6.255362.0422283-12.512753.0845833-18.768116.1268116zm22.572464-22.5724638c-8.791341-.0422282-17.585471-.0845833-26.376812-.1268116-.042228 8.7913406-.084583 17.585471-.126811 26.3768116 8.79134.0422283 17.585471.0845834 26.376811.1268116.042229-8.7913406.084584-17.585471.126812-26.3768116zm-37.789855 0c-2.451522-.0422282-4.903678-.0845833-7.355073-.1268116-.322355.7046921-.165489 2.8100181-.253623 3.4239131.648134.5682427 2.44645.4319203 3.677536.3804348.042229 1.2679891.084584 2.5363586.126812 3.8043478h3.677536c.042229-2.49375.084584-4.9881341.126812-7.4818841zm-14.9637682-.1268116c-.0422282 1.2257609-.0845833 2.4517754-.1268116 3.6775363 1.2679892.0422282 2.5363587.0845833 3.8043478.1268116v-3.6775363c-1.2257608-.0422282-2.4517753-.0845833-3.6775362-.1268116zm-11.4130434 15.0905797h3.6775362v-3.5507246c2.5359783-.0422283 5.0727174-.0845833 7.6086956-.1268116v-3.6775362c-2.49375-.0422283-4.9882608-.0845834-7.481884-.1268116-.0422283-2.49375-.0845833-4.9881341-.1268116-7.4818841-1.1834058-.0422282-2.3673188-.0845833-3.5507246-.1268116-.0422283 1.2257609-.0845834 2.4517754-.1268116 3.6775363-1.2257609.0422282-2.4517754.0845833-3.6775363.1268116-.0422282 1.2257608-.0845833 2.4517753-.1268116 3.6775362-1.2257608.0422282-2.4517753.0845833-3.6775362.1268116-.0422283 1.2679891-.0845833 2.5363587-.1268116 3.8043478h7.4818841c.0422282 1.2257609.0845833 2.4517754.1268116 3.6775362zm-30.1811595 22.6992754c-.0422282-.0844565-.0845833-.1690399-.1268116-.2536232.9097464-3.5480616-1.3070471-3.7588225 3.8043479-3.5507246v-3.5507247c1.6784782-.7722826 5.4253804-.2879891 7.6086956-.2536232v-11.2862318h-3.6775362c-.0422283-1.2257609-.0845833-2.4517754-.1268116-3.6775363 1.2257609-.0422282 2.4517754-.0845833 3.6775362-.1268116.0422283 1.2679892.0845834 2.5363587.1268116 3.8043479h3.6775363c.0422282-2.49375.0845833-4.9881341.1268116-7.4818841h3.6775362v3.5507246c1.2679891.0422283 2.5363587.0845834 3.8043478.1268116v-3.6775362h-3.6775362c-.0422283-2.49375-.0845834-4.9881341-.1268116-7.4818841 1.2679891-.0422282 2.5363587-.0845833 3.8043478-.1268116v-3.6775362c-3.719384-.0422282-7.4400362-.0845833-11.1594203-.1268116-.0422282 2.49375-.0845833 4.9881341-.1268116 7.4818841-1.2257608.0422282-2.4517753.0845833-3.6775362.1268116-.0422283 1.2257608-.0845833 2.4517753-.1268116 3.6775362-1.2679891.0422283-2.5363587.0845833-3.8043478.1268116v11.2862319h3.6775362c.0422283 1.2257609.0845833 2.4517753.1268116 3.6775362-1.2257609.0422283-2.4517754.0845834-3.6775362.1268116-.0422283-1.2679891-.0845834-2.5363587-.1268116-3.8043478-1.2679892.0422282-2.5363587.0845833-3.8043479.1268116v7.1014493c-.5284239.4955797-2.5692029.2982608-3.5507246.2536231-.0422283 1.2257609-.0845833 2.4517754-.1268116 3.6775363-1.2679891.0422282-2.5363587.0845833-3.8043478.1268116v3.6775362c-2.5359783.0422283-5.0727174.0845833-7.6086957.1268116.0422283 1.1834058.0845834 2.3673188.1268116 3.5507246.5433877.5085145 2.6744566.2980073 3.6775363.2536232v3.6775363h3.8043478v-3.6775363h11.2862319v-3.8043478zm-.1268116-26.6304348c.8351812.3946377 2.5685689.2884964 3.8043479.2536232v-11.2862319c-2.4515218-.0422282-4.9036776-.0845833-7.3550725-.1268116-.0422283 1.2257609-.0845833 2.4517754-.1268116 3.6775363-1.2257609.0422282-2.4517753.0845833-3.6775362.1268115-.0422283 1.2679892-.0845833 2.5363587-.1268116 3.8043479h7.481884zm-41.3405797 11.5398551v-18.8949275h18.6413044c.0422282 6.2553623.0845833 12.5127536.1268116 18.7681159-6.2553623.0422283-12.5127536.0845833-18.768116.1268116zm22.5724638-22.5724638c-8.7913406-.0422282-17.585471-.0845833-26.3768116-.1268116-.0422283 8.7913406-.0845833 17.585471-.1268116 26.3768116 8.7913406.0422283 17.585471.0845834 26.3768116.1268116.0422283-8.7913406.0845833-17.585471.1268116-26.3768116z" fill="#000"/><g transform="translate(67.567 70.615942)"><path d="m13.3902695 2.49673989c1.3176153 1.11297138 1.5362319 2.94098165.6558498 5.48403078-1.3845029 3.99923883-2.6985907 5.94654843-3.9422635 5.84192883h9.2058433c1.0898943-2.3838319 1.6348414-4.52460493 1.6348414-6.42231909 0-1.89771417-1.6876283-3.57180822-5.0628853-5.02228217h-2.4479805c-.0371493 0-.0672648.03010612-.0672648.06725545 0 .0198061.0087289.03860554.0238596.0513862z" fill="url(#a)"/><g fill="url(#b)"><path d="m4.35168104 0c-2.0196094 0-3.39133002.5496203-4.11516185 1.64886088-.05972979.09070812-.12792951.21777431-.20459914.38119863l-.00000193-.0000009c-.07888107.16813807-.00652397.36838667.16161411.44726774.00689735.00323584.01390268.00623638.02100385.00899637.06158611.02393653.11392452.04764726.15701523.07113221 1.17626164.64107646 2.15979539 2.77149555 2.95060125 6.39125723 1.34827019 6.17144754 3.57678361 9.78891024 8.83448954 9.78891024 3.5051374 0 6.0330697-1.9699102 7.5837975-5.9097306-2.9957935.9544299-5.3402872.9544299-7.0334812 0-.9245348-.5211473-1.9608552-2.4908632-2.4833384-4.63897333-.96069946-3.94976949-2.10807106-8.18891847-5.87193896-8.18891847z"/><path d="m17.4488986 0c1.6714366 0 2.9606053.46661565 3.867506 1.39984696.1469625.15122942.3302113.39061059.5497464.71814352l.0000033-.00000223c.0958935.14306722.0681922.33546048-.0641678.44566313-.1760254.14655821-.2982917.26861162-.3667992.3661602-.4077634.58061847-.3554622 1.32559073.1569033 2.23491679 1.1609241 2.06036221 2.2376839 3.19135893 4.9533406 2.68592314.204365-.03803628.5063288-.11145298.9058911-.22025011l.0000005.00000222c.1164764-.03171548.2366098.03699689.2683252.1534734.0137762.05059298.0089057.10445237-.0137225.15175339-.1452408.30360231-.2630458.53452648-.3534158.69277248-1.1538989 2.02058171-2.5885616 2.80634161-3.9619929 2.80634161-1.6043255 0-5.0531931-.0650842-6.8341747-4.26266935-1.1106758-2.61774521-1.8145409-3.62725535-2.6089594-4.2757943-.1191829-.0972974-.2903201-.21922975-.5134115-.36579707l.0000017-.0000027c-.1410601-.09267413-.1915704-.27555421-.1180697-.42748869.1046173-.21625576.229434-.41478351.3744501-.5955833.5538255-.69048575 1.6555742-1.50740909 3.7585453-1.50740909z"/></g></g></g></svg>