<svg height="18" viewBox="0 0 18 18" width="18" 
  xmlns="http://www.w3.org/2000/svg">
  <path d="m8 0c4.418278 0 8 3.581722 8 8s-3.581722 8-8 8-8-3.581722-8-8 3.581722-8 8-8zm0 3.99995793c-.42693591 0-.77303585.34609994-.77303585.77303586l-.00096415 2.51300621-2.51269293.0006909c-.39394855 0-.71330695.3193584-.71330695.71330695 0 .36111951.26834977.65956256.61651542.7067953l.09679153.00651165 2.51269293-.0003048.00096415 2.513964c0 .3913579.29082009.7147912.66813946.765979l.10489639.0070569c.42693591 0 .77303585-.3461.77303585-.7730359l-.00003585-2.513964 2.513755.0003048c.3939485 0 .7133069-.3193584.7133069-.71330695s-.3193584-.71330695-.7133069-.71330695l-2.513755-.0006909.00003585-2.51300621c0-.39135792-.29082009-.71479117-.66813946-.76597895z" fill="#fff" fill-rule="evenodd" transform="translate(1 1)"/>
</svg>